%TF.GenerationSoftware,KiCad,Pcbnew,(6.0.8)*%
%TF.CreationDate,2023-05-05T16:47:41-05:00*%
%TF.ProjectId,MSoRo_v4.0_big_mode_RSC,4d536f52-6f5f-4763-942e-305f6269675f,rev?*%
%TF.SameCoordinates,Original*%
%TF.FileFunction,Copper,L12,Inr*%
%TF.FilePolarity,Positive*%
%FSLAX46Y46*%
G04 Gerber Fmt 4.6, Leading zero omitted, Abs format (unit mm)*
G04 Created by KiCad (PCBNEW (6.0.8)) date 2023-05-05 16:47:41*
%MOMM*%
%LPD*%
G01*
G04 APERTURE LIST*
G04 Aperture macros list*
%AMOutline5P*
0 Free polygon, 5 corners , with rotation*
0 The origin of the aperture is its center*
0 number of corners: always 5*
0 $1 to $10 corner X, Y*
0 $11 Rotation angle, in degrees counterclockwise*
0 create outline with 5 corners*
4,1,5,$1,$2,$3,$4,$5,$6,$7,$8,$9,$10,$1,$2,$11*%
%AMOutline6P*
0 Free polygon, 6 corners , with rotation*
0 The origin of the aperture is its center*
0 number of corners: always 6*
0 $1 to $12 corner X, Y*
0 $13 Rotation angle, in degrees counterclockwise*
0 create outline with 6 corners*
4,1,6,$1,$2,$3,$4,$5,$6,$7,$8,$9,$10,$11,$12,$1,$2,$13*%
%AMOutline7P*
0 Free polygon, 7 corners , with rotation*
0 The origin of the aperture is its center*
0 number of corners: always 7*
0 $1 to $14 corner X, Y*
0 $15 Rotation angle, in degrees counterclockwise*
0 create outline with 7 corners*
4,1,7,$1,$2,$3,$4,$5,$6,$7,$8,$9,$10,$11,$12,$13,$14,$1,$2,$15*%
%AMOutline8P*
0 Free polygon, 8 corners , with rotation*
0 The origin of the aperture is its center*
0 number of corners: always 8*
0 $1 to $16 corner X, Y*
0 $17 Rotation angle, in degrees counterclockwise*
0 create outline with 8 corners*
4,1,8,$1,$2,$3,$4,$5,$6,$7,$8,$9,$10,$11,$12,$13,$14,$15,$16,$1,$2,$17*%
G04 Aperture macros list end*
%TA.AperFunction,ComponentPad*%
%ADD10Outline8P,-0.800100X0.331412X-0.331412X0.800100X0.331412X0.800100X0.800100X0.331412X0.800100X-0.331412X0.331412X-0.800100X-0.331412X-0.800100X-0.800100X-0.331412X0.000000*%
%TD*%
%TA.AperFunction,ComponentPad*%
%ADD11C,1.700000*%
%TD*%
%TA.AperFunction,ComponentPad*%
%ADD12R,1.700000X1.700000*%
%TD*%
%TA.AperFunction,ComponentPad*%
%ADD13C,7.620000*%
%TD*%
%TA.AperFunction,ComponentPad*%
%ADD14O,2.032000X4.064000*%
%TD*%
%TA.AperFunction,ComponentPad*%
%ADD15Outline8P,-0.660400X0.273547X-0.273547X0.660400X0.273547X0.660400X0.660400X0.273547X0.660400X-0.273547X0.273547X-0.660400X-0.273547X-0.660400X-0.660400X-0.273547X180.000000*%
%TD*%
%TA.AperFunction,ComponentPad*%
%ADD16Outline8P,-0.660400X0.273547X-0.273547X0.660400X0.273547X0.660400X0.660400X0.273547X0.660400X-0.273547X0.273547X-0.660400X-0.273547X-0.660400X-0.660400X-0.273547X0.000000*%
%TD*%
%TA.AperFunction,ComponentPad*%
%ADD17Outline8P,-0.660400X0.273547X-0.273547X0.660400X0.273547X0.660400X0.660400X0.273547X0.660400X-0.273547X0.273547X-0.660400X-0.273547X-0.660400X-0.660400X-0.273547X270.000000*%
%TD*%
%TA.AperFunction,ComponentPad*%
%ADD18Outline8P,-0.838200X0.347194X-0.347194X0.838200X0.347194X0.838200X0.838200X0.347194X0.838200X-0.347194X0.347194X-0.838200X-0.347194X-0.838200X-0.838200X-0.347194X90.000000*%
%TD*%
%TA.AperFunction,ComponentPad*%
%ADD19Outline8P,-0.660400X0.273547X-0.273547X0.660400X0.273547X0.660400X0.660400X0.273547X0.660400X-0.273547X0.273547X-0.660400X-0.273547X-0.660400X-0.660400X-0.273547X90.000000*%
%TD*%
%TA.AperFunction,ComponentPad*%
%ADD20Outline8P,-1.270000X0.526051X-0.526051X1.270000X0.526051X1.270000X1.270000X0.526051X1.270000X-0.526051X0.526051X-1.270000X-0.526051X-1.270000X-1.270000X-0.526051X0.000000*%
%TD*%
%TA.AperFunction,ComponentPad*%
%ADD21C,1.930400*%
%TD*%
%TA.AperFunction,ComponentPad*%
%ADD22R,1.930400X1.930400*%
%TD*%
G04 APERTURE END LIST*
D10*
%TO.N,VCC*%
%TO.C,PAD1*%
X165011100Y-106908600D03*
%TD*%
%TO.N,VCCM3*%
%TO.C,PAD10*%
X161201100Y-108178600D03*
%TD*%
%TO.N,GND*%
%TO.C,PAD11*%
X161201100Y-105638600D03*
%TD*%
%TO.N,GNDM3*%
%TO.C,PAD12*%
X161201100Y-103098600D03*
%TD*%
%TO.N,IN6*%
%TO.C,PAD13*%
X161201100Y-100558600D03*
%TD*%
%TO.N,IN5*%
%TO.C,PAD14*%
X161201100Y-98018600D03*
%TD*%
%TO.N,VCC*%
%TO.C,PAD15*%
X137071100Y-113258600D03*
%TD*%
%TO.N,N/C*%
%TO.C,PAD16*%
X137071100Y-110718600D03*
%TD*%
%TO.N,VCCM2*%
%TO.C,PAD17*%
X137071100Y-108178600D03*
%TD*%
%TO.N,GND*%
%TO.C,PAD18*%
X137071100Y-105638600D03*
%TD*%
%TO.N,GNDM2*%
%TO.C,PAD19*%
X137071100Y-103098600D03*
%TD*%
%TO.N,N/C*%
%TO.C,PAD2*%
X165011100Y-104368600D03*
%TD*%
%TO.N,IN4*%
%TO.C,PAD20*%
X137071100Y-100558600D03*
%TD*%
%TO.N,IN3*%
%TO.C,PAD21*%
X137071100Y-98018600D03*
%TD*%
%TO.N,VCC*%
%TO.C,PAD22*%
X131991100Y-108178600D03*
%TD*%
%TO.N,N/C*%
%TO.C,PAD23*%
X131991100Y-105638600D03*
%TD*%
%TO.N,VCCM1*%
%TO.C,PAD24*%
X131991100Y-103098600D03*
%TD*%
%TO.N,GND*%
%TO.C,PAD25*%
X131991100Y-100558600D03*
%TD*%
%TO.N,GNDM1*%
%TO.C,PAD26*%
X131991100Y-98018600D03*
%TD*%
%TO.N,IN2*%
%TO.C,PAD27*%
X131991100Y-95478600D03*
%TD*%
%TO.N,IN1*%
%TO.C,PAD28*%
X131991100Y-92938600D03*
%TD*%
%TO.N,VCCM4*%
%TO.C,PAD3*%
X165011100Y-101828600D03*
%TD*%
%TO.N,VCC*%
%TO.C,PAD37*%
X133261100Y-82778600D03*
%TD*%
%TO.N,GND*%
%TO.C,PAD38*%
X130721100Y-82778600D03*
%TD*%
%TO.N,GND*%
%TO.C,PAD4*%
X165011100Y-99288600D03*
%TD*%
%TO.N,GNDM4*%
%TO.C,PAD5*%
X165011100Y-96748600D03*
%TD*%
%TO.N,IN8*%
%TO.C,PAD6*%
X165011100Y-94208600D03*
%TD*%
%TO.N,IN7*%
%TO.C,PAD7*%
X165011100Y-91668600D03*
%TD*%
%TO.N,VCC*%
%TO.C,PAD8*%
X161201100Y-113258600D03*
%TD*%
%TO.N,N/C*%
%TO.C,PAD9*%
X161201100Y-110718600D03*
%TD*%
D11*
%TO.N,VCC5V*%
%TO.C,U1*%
X156121100Y-91668600D03*
%TO.N,GND*%
X156121100Y-94208600D03*
%TO.N,N/C*%
X156121100Y-96748600D03*
%TO.N,IN7*%
X156121100Y-99288600D03*
%TO.N,IN8*%
X156121100Y-101828600D03*
%TO.N,IN5*%
X156121100Y-104368600D03*
%TO.N,IN6*%
X156121100Y-106908600D03*
%TO.N,N/C*%
X140881100Y-106908600D03*
%TO.N,SCL*%
X140881100Y-104368600D03*
%TO.N,SDA*%
X140881100Y-101828600D03*
%TO.N,IN4*%
X140881100Y-99288600D03*
%TO.N,IN3*%
X140881100Y-96748600D03*
%TO.N,IN2*%
X140881100Y-94208600D03*
D12*
%TO.N,IN1*%
X140881100Y-91668600D03*
%TD*%
D13*
%TO.N,GND*%
%TO.C,U2*%
X158661100Y-66268600D03*
D14*
%TO.N,VCC5V*%
X161201100Y-84048600D03*
%TO.N,GND*%
X158661100Y-84048600D03*
%TO.N,VCC*%
X156121100Y-84048600D03*
%TD*%
D10*
%TO.N,VOUT*%
%TO.C,PAD39*%
X140881100Y-122148600D03*
%TD*%
%TO.N,GND*%
%TO.C,PAD40*%
X140881100Y-124688600D03*
%TD*%
%TO.N,REFV*%
%TO.C,PAD41*%
X140881100Y-127228600D03*
%TD*%
D15*
%TO.N,GND*%
%TO.C,R1*%
X143421100Y-122148600D03*
%TO.N,REFV*%
X151041100Y-122148600D03*
%TD*%
D16*
%TO.N,VCC*%
%TO.C,R2*%
X151041100Y-127228600D03*
%TO.N,SERIES*%
X143421100Y-127228600D03*
%TD*%
%TO.N,REFV*%
%TO.C,R3*%
X151041100Y-124688600D03*
%TO.N,SERIES*%
X143421100Y-124688600D03*
%TD*%
D17*
%TO.N,VCC*%
%TO.C,R4*%
X153581100Y-127228600D03*
%TO.N,VOUT*%
X153581100Y-119608600D03*
%TD*%
D18*
%TO.N,GNDM1*%
%TO.C,P1*%
X128181100Y-98288600D03*
%TO.N,VCCM1*%
X128181100Y-100288600D03*
%TD*%
%TO.N,GNDM2*%
%TO.C,P2*%
X128181100Y-112258600D03*
%TO.N,VCCM2*%
X128181100Y-114258600D03*
%TD*%
%TO.N,GNDM3*%
%TO.C,P3*%
X170091100Y-112258600D03*
%TO.N,VCCM3*%
X170091100Y-114258600D03*
%TD*%
%TO.N,GNDM4*%
%TO.C,P4*%
X170091100Y-98288600D03*
%TO.N,VCCM4*%
X170091100Y-100288600D03*
%TD*%
D19*
%TO.N,VCC*%
%TO.C,R5*%
X170091100Y-118338600D03*
%TO.N,BPOS*%
X170091100Y-125958600D03*
%TD*%
D20*
%TO.N,BPOS*%
%TO.C,SP1*%
X164452300Y-123418600D03*
%TO.N,DRAIN*%
X157949900Y-123418600D03*
%TD*%
D21*
%TO.N,VOUT*%
%TO.C,Q1*%
X137071100Y-123418600D03*
%TO.N,DRAIN*%
X137071100Y-120878600D03*
D22*
%TO.N,GND*%
X137071100Y-118338600D03*
%TD*%
M02*
