%TF.GenerationSoftware,KiCad,Pcbnew,(6.0.8)*%
%TF.CreationDate,2023-05-05T16:47:41-05:00*%
%TF.ProjectId,MSoRo_v4.0_big_mode_RSC,4d536f52-6f5f-4763-942e-305f6269675f,rev?*%
%TF.SameCoordinates,Original*%
%TF.FileFunction,Legend,Top*%
%TF.FilePolarity,Positive*%
%FSLAX46Y46*%
G04 Gerber Fmt 4.6, Leading zero omitted, Abs format (unit mm)*
G04 Created by KiCad (PCBNEW (6.0.8)) date 2023-05-05 16:47:41*
%MOMM*%
%LPD*%
G01*
G04 APERTURE LIST*
%ADD10C,0.150000*%
%ADD11C,0.114300*%
%ADD12C,0.093878*%
%ADD13C,0.080000*%
%ADD14C,0.087033*%
%ADD15C,0.089154*%
%ADD16C,0.093472*%
%ADD17C,0.101600*%
%ADD18C,0.074778*%
%ADD19C,0.152400*%
%ADD20C,0.254000*%
%ADD21C,0.127000*%
G04 APERTURE END LIST*
D10*
%TO.C,@HOLE0*%
%TO.C,@HOLE1*%
%TO.C,@HOLE2*%
%TO.C,@HOLE3*%
D11*
%TO.C,PAD1*%
X164598561Y-106415416D02*
X164598561Y-105259716D01*
X165038828Y-105259716D01*
X165148895Y-105314750D01*
X165203928Y-105369783D01*
X165258961Y-105479850D01*
X165258961Y-105644950D01*
X165203928Y-105755016D01*
X165148895Y-105810050D01*
X165038828Y-105865083D01*
X164598561Y-105865083D01*
X165699228Y-106085216D02*
X166249561Y-106085216D01*
X165589161Y-106415416D02*
X165974395Y-105259716D01*
X166359628Y-106415416D01*
X166744861Y-106415416D02*
X166744861Y-105259716D01*
X167020028Y-105259716D01*
X167185128Y-105314750D01*
X167295195Y-105424816D01*
X167350228Y-105534883D01*
X167405261Y-105755016D01*
X167405261Y-105920116D01*
X167350228Y-106140250D01*
X167295195Y-106250316D01*
X167185128Y-106360383D01*
X167020028Y-106415416D01*
X166744861Y-106415416D01*
X168505928Y-106415416D02*
X167845528Y-106415416D01*
X168175728Y-106415416D02*
X168175728Y-105259716D01*
X168065661Y-105424816D01*
X167955595Y-105534883D01*
X167845528Y-105589916D01*
%TO.C,PAD10*%
X160788561Y-107685416D02*
X160788561Y-106529716D01*
X161228828Y-106529716D01*
X161338895Y-106584750D01*
X161393928Y-106639783D01*
X161448961Y-106749850D01*
X161448961Y-106914950D01*
X161393928Y-107025016D01*
X161338895Y-107080050D01*
X161228828Y-107135083D01*
X160788561Y-107135083D01*
X161889228Y-107355216D02*
X162439561Y-107355216D01*
X161779161Y-107685416D02*
X162164395Y-106529716D01*
X162549628Y-107685416D01*
X162934861Y-107685416D02*
X162934861Y-106529716D01*
X163210028Y-106529716D01*
X163375128Y-106584750D01*
X163485195Y-106694816D01*
X163540228Y-106804883D01*
X163595261Y-107025016D01*
X163595261Y-107190116D01*
X163540228Y-107410250D01*
X163485195Y-107520316D01*
X163375128Y-107630383D01*
X163210028Y-107685416D01*
X162934861Y-107685416D01*
X164695928Y-107685416D02*
X164035528Y-107685416D01*
X164365728Y-107685416D02*
X164365728Y-106529716D01*
X164255661Y-106694816D01*
X164145595Y-106804883D01*
X164035528Y-106859916D01*
X165411361Y-106529716D02*
X165521428Y-106529716D01*
X165631495Y-106584750D01*
X165686528Y-106639783D01*
X165741561Y-106749850D01*
X165796595Y-106969983D01*
X165796595Y-107245150D01*
X165741561Y-107465283D01*
X165686528Y-107575350D01*
X165631495Y-107630383D01*
X165521428Y-107685416D01*
X165411361Y-107685416D01*
X165301295Y-107630383D01*
X165246261Y-107575350D01*
X165191228Y-107465283D01*
X165136195Y-107245150D01*
X165136195Y-106969983D01*
X165191228Y-106749850D01*
X165246261Y-106639783D01*
X165301295Y-106584750D01*
X165411361Y-106529716D01*
%TO.C,PAD11*%
X160788561Y-105145416D02*
X160788561Y-103989716D01*
X161228828Y-103989716D01*
X161338895Y-104044750D01*
X161393928Y-104099783D01*
X161448961Y-104209850D01*
X161448961Y-104374950D01*
X161393928Y-104485016D01*
X161338895Y-104540050D01*
X161228828Y-104595083D01*
X160788561Y-104595083D01*
X161889228Y-104815216D02*
X162439561Y-104815216D01*
X161779161Y-105145416D02*
X162164395Y-103989716D01*
X162549628Y-105145416D01*
X162934861Y-105145416D02*
X162934861Y-103989716D01*
X163210028Y-103989716D01*
X163375128Y-104044750D01*
X163485195Y-104154816D01*
X163540228Y-104264883D01*
X163595261Y-104485016D01*
X163595261Y-104650116D01*
X163540228Y-104870250D01*
X163485195Y-104980316D01*
X163375128Y-105090383D01*
X163210028Y-105145416D01*
X162934861Y-105145416D01*
X164695928Y-105145416D02*
X164035528Y-105145416D01*
X164365728Y-105145416D02*
X164365728Y-103989716D01*
X164255661Y-104154816D01*
X164145595Y-104264883D01*
X164035528Y-104319916D01*
X165796595Y-105145416D02*
X165136195Y-105145416D01*
X165466395Y-105145416D02*
X165466395Y-103989716D01*
X165356328Y-104154816D01*
X165246261Y-104264883D01*
X165136195Y-104319916D01*
%TO.C,PAD12*%
X160788561Y-102605416D02*
X160788561Y-101449716D01*
X161228828Y-101449716D01*
X161338895Y-101504750D01*
X161393928Y-101559783D01*
X161448961Y-101669850D01*
X161448961Y-101834950D01*
X161393928Y-101945016D01*
X161338895Y-102000050D01*
X161228828Y-102055083D01*
X160788561Y-102055083D01*
X161889228Y-102275216D02*
X162439561Y-102275216D01*
X161779161Y-102605416D02*
X162164395Y-101449716D01*
X162549628Y-102605416D01*
X162934861Y-102605416D02*
X162934861Y-101449716D01*
X163210028Y-101449716D01*
X163375128Y-101504750D01*
X163485195Y-101614816D01*
X163540228Y-101724883D01*
X163595261Y-101945016D01*
X163595261Y-102110116D01*
X163540228Y-102330250D01*
X163485195Y-102440316D01*
X163375128Y-102550383D01*
X163210028Y-102605416D01*
X162934861Y-102605416D01*
X164695928Y-102605416D02*
X164035528Y-102605416D01*
X164365728Y-102605416D02*
X164365728Y-101449716D01*
X164255661Y-101614816D01*
X164145595Y-101724883D01*
X164035528Y-101779916D01*
X165136195Y-101559783D02*
X165191228Y-101504750D01*
X165301295Y-101449716D01*
X165576461Y-101449716D01*
X165686528Y-101504750D01*
X165741561Y-101559783D01*
X165796595Y-101669850D01*
X165796595Y-101779916D01*
X165741561Y-101945016D01*
X165081161Y-102605416D01*
X165796595Y-102605416D01*
%TO.C,PAD13*%
X160788561Y-100065416D02*
X160788561Y-98909716D01*
X161228828Y-98909716D01*
X161338895Y-98964750D01*
X161393928Y-99019783D01*
X161448961Y-99129850D01*
X161448961Y-99294950D01*
X161393928Y-99405016D01*
X161338895Y-99460050D01*
X161228828Y-99515083D01*
X160788561Y-99515083D01*
X161889228Y-99735216D02*
X162439561Y-99735216D01*
X161779161Y-100065416D02*
X162164395Y-98909716D01*
X162549628Y-100065416D01*
X162934861Y-100065416D02*
X162934861Y-98909716D01*
X163210028Y-98909716D01*
X163375128Y-98964750D01*
X163485195Y-99074816D01*
X163540228Y-99184883D01*
X163595261Y-99405016D01*
X163595261Y-99570116D01*
X163540228Y-99790250D01*
X163485195Y-99900316D01*
X163375128Y-100010383D01*
X163210028Y-100065416D01*
X162934861Y-100065416D01*
X164695928Y-100065416D02*
X164035528Y-100065416D01*
X164365728Y-100065416D02*
X164365728Y-98909716D01*
X164255661Y-99074816D01*
X164145595Y-99184883D01*
X164035528Y-99239916D01*
X165081161Y-98909716D02*
X165796595Y-98909716D01*
X165411361Y-99349983D01*
X165576461Y-99349983D01*
X165686528Y-99405016D01*
X165741561Y-99460050D01*
X165796595Y-99570116D01*
X165796595Y-99845283D01*
X165741561Y-99955350D01*
X165686528Y-100010383D01*
X165576461Y-100065416D01*
X165246261Y-100065416D01*
X165136195Y-100010383D01*
X165081161Y-99955350D01*
%TO.C,PAD14*%
X160788561Y-97525416D02*
X160788561Y-96369716D01*
X161228828Y-96369716D01*
X161338895Y-96424750D01*
X161393928Y-96479783D01*
X161448961Y-96589850D01*
X161448961Y-96754950D01*
X161393928Y-96865016D01*
X161338895Y-96920050D01*
X161228828Y-96975083D01*
X160788561Y-96975083D01*
X161889228Y-97195216D02*
X162439561Y-97195216D01*
X161779161Y-97525416D02*
X162164395Y-96369716D01*
X162549628Y-97525416D01*
X162934861Y-97525416D02*
X162934861Y-96369716D01*
X163210028Y-96369716D01*
X163375128Y-96424750D01*
X163485195Y-96534816D01*
X163540228Y-96644883D01*
X163595261Y-96865016D01*
X163595261Y-97030116D01*
X163540228Y-97250250D01*
X163485195Y-97360316D01*
X163375128Y-97470383D01*
X163210028Y-97525416D01*
X162934861Y-97525416D01*
X164695928Y-97525416D02*
X164035528Y-97525416D01*
X164365728Y-97525416D02*
X164365728Y-96369716D01*
X164255661Y-96534816D01*
X164145595Y-96644883D01*
X164035528Y-96699916D01*
X165686528Y-96754950D02*
X165686528Y-97525416D01*
X165411361Y-96314683D02*
X165136195Y-97140183D01*
X165851628Y-97140183D01*
%TO.C,PAD15*%
X136658561Y-112765416D02*
X136658561Y-111609716D01*
X137098828Y-111609716D01*
X137208895Y-111664750D01*
X137263928Y-111719783D01*
X137318961Y-111829850D01*
X137318961Y-111994950D01*
X137263928Y-112105016D01*
X137208895Y-112160050D01*
X137098828Y-112215083D01*
X136658561Y-112215083D01*
X137759228Y-112435216D02*
X138309561Y-112435216D01*
X137649161Y-112765416D02*
X138034395Y-111609716D01*
X138419628Y-112765416D01*
X138804861Y-112765416D02*
X138804861Y-111609716D01*
X139080028Y-111609716D01*
X139245128Y-111664750D01*
X139355195Y-111774816D01*
X139410228Y-111884883D01*
X139465261Y-112105016D01*
X139465261Y-112270116D01*
X139410228Y-112490250D01*
X139355195Y-112600316D01*
X139245128Y-112710383D01*
X139080028Y-112765416D01*
X138804861Y-112765416D01*
X140565928Y-112765416D02*
X139905528Y-112765416D01*
X140235728Y-112765416D02*
X140235728Y-111609716D01*
X140125661Y-111774816D01*
X140015595Y-111884883D01*
X139905528Y-111939916D01*
X141611561Y-111609716D02*
X141061228Y-111609716D01*
X141006195Y-112160050D01*
X141061228Y-112105016D01*
X141171295Y-112049983D01*
X141446461Y-112049983D01*
X141556528Y-112105016D01*
X141611561Y-112160050D01*
X141666595Y-112270116D01*
X141666595Y-112545283D01*
X141611561Y-112655350D01*
X141556528Y-112710383D01*
X141446461Y-112765416D01*
X141171295Y-112765416D01*
X141061228Y-112710383D01*
X141006195Y-112655350D01*
%TO.C,PAD16*%
X136658561Y-110225416D02*
X136658561Y-109069716D01*
X137098828Y-109069716D01*
X137208895Y-109124750D01*
X137263928Y-109179783D01*
X137318961Y-109289850D01*
X137318961Y-109454950D01*
X137263928Y-109565016D01*
X137208895Y-109620050D01*
X137098828Y-109675083D01*
X136658561Y-109675083D01*
X137759228Y-109895216D02*
X138309561Y-109895216D01*
X137649161Y-110225416D02*
X138034395Y-109069716D01*
X138419628Y-110225416D01*
X138804861Y-110225416D02*
X138804861Y-109069716D01*
X139080028Y-109069716D01*
X139245128Y-109124750D01*
X139355195Y-109234816D01*
X139410228Y-109344883D01*
X139465261Y-109565016D01*
X139465261Y-109730116D01*
X139410228Y-109950250D01*
X139355195Y-110060316D01*
X139245128Y-110170383D01*
X139080028Y-110225416D01*
X138804861Y-110225416D01*
X140565928Y-110225416D02*
X139905528Y-110225416D01*
X140235728Y-110225416D02*
X140235728Y-109069716D01*
X140125661Y-109234816D01*
X140015595Y-109344883D01*
X139905528Y-109399916D01*
X141556528Y-109069716D02*
X141336395Y-109069716D01*
X141226328Y-109124750D01*
X141171295Y-109179783D01*
X141061228Y-109344883D01*
X141006195Y-109565016D01*
X141006195Y-110005283D01*
X141061228Y-110115350D01*
X141116261Y-110170383D01*
X141226328Y-110225416D01*
X141446461Y-110225416D01*
X141556528Y-110170383D01*
X141611561Y-110115350D01*
X141666595Y-110005283D01*
X141666595Y-109730116D01*
X141611561Y-109620050D01*
X141556528Y-109565016D01*
X141446461Y-109509983D01*
X141226328Y-109509983D01*
X141116261Y-109565016D01*
X141061228Y-109620050D01*
X141006195Y-109730116D01*
%TO.C,PAD17*%
X136658561Y-107685416D02*
X136658561Y-106529716D01*
X137098828Y-106529716D01*
X137208895Y-106584750D01*
X137263928Y-106639783D01*
X137318961Y-106749850D01*
X137318961Y-106914950D01*
X137263928Y-107025016D01*
X137208895Y-107080050D01*
X137098828Y-107135083D01*
X136658561Y-107135083D01*
X137759228Y-107355216D02*
X138309561Y-107355216D01*
X137649161Y-107685416D02*
X138034395Y-106529716D01*
X138419628Y-107685416D01*
X138804861Y-107685416D02*
X138804861Y-106529716D01*
X139080028Y-106529716D01*
X139245128Y-106584750D01*
X139355195Y-106694816D01*
X139410228Y-106804883D01*
X139465261Y-107025016D01*
X139465261Y-107190116D01*
X139410228Y-107410250D01*
X139355195Y-107520316D01*
X139245128Y-107630383D01*
X139080028Y-107685416D01*
X138804861Y-107685416D01*
X140565928Y-107685416D02*
X139905528Y-107685416D01*
X140235728Y-107685416D02*
X140235728Y-106529716D01*
X140125661Y-106694816D01*
X140015595Y-106804883D01*
X139905528Y-106859916D01*
X140951161Y-106529716D02*
X141721628Y-106529716D01*
X141226328Y-107685416D01*
%TO.C,PAD18*%
X136658561Y-105145416D02*
X136658561Y-103989716D01*
X137098828Y-103989716D01*
X137208895Y-104044750D01*
X137263928Y-104099783D01*
X137318961Y-104209850D01*
X137318961Y-104374950D01*
X137263928Y-104485016D01*
X137208895Y-104540050D01*
X137098828Y-104595083D01*
X136658561Y-104595083D01*
X137759228Y-104815216D02*
X138309561Y-104815216D01*
X137649161Y-105145416D02*
X138034395Y-103989716D01*
X138419628Y-105145416D01*
X138804861Y-105145416D02*
X138804861Y-103989716D01*
X139080028Y-103989716D01*
X139245128Y-104044750D01*
X139355195Y-104154816D01*
X139410228Y-104264883D01*
X139465261Y-104485016D01*
X139465261Y-104650116D01*
X139410228Y-104870250D01*
X139355195Y-104980316D01*
X139245128Y-105090383D01*
X139080028Y-105145416D01*
X138804861Y-105145416D01*
X140565928Y-105145416D02*
X139905528Y-105145416D01*
X140235728Y-105145416D02*
X140235728Y-103989716D01*
X140125661Y-104154816D01*
X140015595Y-104264883D01*
X139905528Y-104319916D01*
X141226328Y-104485016D02*
X141116261Y-104429983D01*
X141061228Y-104374950D01*
X141006195Y-104264883D01*
X141006195Y-104209850D01*
X141061228Y-104099783D01*
X141116261Y-104044750D01*
X141226328Y-103989716D01*
X141446461Y-103989716D01*
X141556528Y-104044750D01*
X141611561Y-104099783D01*
X141666595Y-104209850D01*
X141666595Y-104264883D01*
X141611561Y-104374950D01*
X141556528Y-104429983D01*
X141446461Y-104485016D01*
X141226328Y-104485016D01*
X141116261Y-104540050D01*
X141061228Y-104595083D01*
X141006195Y-104705150D01*
X141006195Y-104925283D01*
X141061228Y-105035350D01*
X141116261Y-105090383D01*
X141226328Y-105145416D01*
X141446461Y-105145416D01*
X141556528Y-105090383D01*
X141611561Y-105035350D01*
X141666595Y-104925283D01*
X141666595Y-104705150D01*
X141611561Y-104595083D01*
X141556528Y-104540050D01*
X141446461Y-104485016D01*
%TO.C,PAD19*%
X136658561Y-102605416D02*
X136658561Y-101449716D01*
X137098828Y-101449716D01*
X137208895Y-101504750D01*
X137263928Y-101559783D01*
X137318961Y-101669850D01*
X137318961Y-101834950D01*
X137263928Y-101945016D01*
X137208895Y-102000050D01*
X137098828Y-102055083D01*
X136658561Y-102055083D01*
X137759228Y-102275216D02*
X138309561Y-102275216D01*
X137649161Y-102605416D02*
X138034395Y-101449716D01*
X138419628Y-102605416D01*
X138804861Y-102605416D02*
X138804861Y-101449716D01*
X139080028Y-101449716D01*
X139245128Y-101504750D01*
X139355195Y-101614816D01*
X139410228Y-101724883D01*
X139465261Y-101945016D01*
X139465261Y-102110116D01*
X139410228Y-102330250D01*
X139355195Y-102440316D01*
X139245128Y-102550383D01*
X139080028Y-102605416D01*
X138804861Y-102605416D01*
X140565928Y-102605416D02*
X139905528Y-102605416D01*
X140235728Y-102605416D02*
X140235728Y-101449716D01*
X140125661Y-101614816D01*
X140015595Y-101724883D01*
X139905528Y-101779916D01*
X141116261Y-102605416D02*
X141336395Y-102605416D01*
X141446461Y-102550383D01*
X141501495Y-102495350D01*
X141611561Y-102330250D01*
X141666595Y-102110116D01*
X141666595Y-101669850D01*
X141611561Y-101559783D01*
X141556528Y-101504750D01*
X141446461Y-101449716D01*
X141226328Y-101449716D01*
X141116261Y-101504750D01*
X141061228Y-101559783D01*
X141006195Y-101669850D01*
X141006195Y-101945016D01*
X141061228Y-102055083D01*
X141116261Y-102110116D01*
X141226328Y-102165150D01*
X141446461Y-102165150D01*
X141556528Y-102110116D01*
X141611561Y-102055083D01*
X141666595Y-101945016D01*
%TO.C,PAD2*%
X164598561Y-103875416D02*
X164598561Y-102719716D01*
X165038828Y-102719716D01*
X165148895Y-102774750D01*
X165203928Y-102829783D01*
X165258961Y-102939850D01*
X165258961Y-103104950D01*
X165203928Y-103215016D01*
X165148895Y-103270050D01*
X165038828Y-103325083D01*
X164598561Y-103325083D01*
X165699228Y-103545216D02*
X166249561Y-103545216D01*
X165589161Y-103875416D02*
X165974395Y-102719716D01*
X166359628Y-103875416D01*
X166744861Y-103875416D02*
X166744861Y-102719716D01*
X167020028Y-102719716D01*
X167185128Y-102774750D01*
X167295195Y-102884816D01*
X167350228Y-102994883D01*
X167405261Y-103215016D01*
X167405261Y-103380116D01*
X167350228Y-103600250D01*
X167295195Y-103710316D01*
X167185128Y-103820383D01*
X167020028Y-103875416D01*
X166744861Y-103875416D01*
X167845528Y-102829783D02*
X167900561Y-102774750D01*
X168010628Y-102719716D01*
X168285795Y-102719716D01*
X168395861Y-102774750D01*
X168450895Y-102829783D01*
X168505928Y-102939850D01*
X168505928Y-103049916D01*
X168450895Y-103215016D01*
X167790495Y-103875416D01*
X168505928Y-103875416D01*
%TO.C,PAD20*%
X136658561Y-100065416D02*
X136658561Y-98909716D01*
X137098828Y-98909716D01*
X137208895Y-98964750D01*
X137263928Y-99019783D01*
X137318961Y-99129850D01*
X137318961Y-99294950D01*
X137263928Y-99405016D01*
X137208895Y-99460050D01*
X137098828Y-99515083D01*
X136658561Y-99515083D01*
X137759228Y-99735216D02*
X138309561Y-99735216D01*
X137649161Y-100065416D02*
X138034395Y-98909716D01*
X138419628Y-100065416D01*
X138804861Y-100065416D02*
X138804861Y-98909716D01*
X139080028Y-98909716D01*
X139245128Y-98964750D01*
X139355195Y-99074816D01*
X139410228Y-99184883D01*
X139465261Y-99405016D01*
X139465261Y-99570116D01*
X139410228Y-99790250D01*
X139355195Y-99900316D01*
X139245128Y-100010383D01*
X139080028Y-100065416D01*
X138804861Y-100065416D01*
X139905528Y-99019783D02*
X139960561Y-98964750D01*
X140070628Y-98909716D01*
X140345795Y-98909716D01*
X140455861Y-98964750D01*
X140510895Y-99019783D01*
X140565928Y-99129850D01*
X140565928Y-99239916D01*
X140510895Y-99405016D01*
X139850495Y-100065416D01*
X140565928Y-100065416D01*
X141281361Y-98909716D02*
X141391428Y-98909716D01*
X141501495Y-98964750D01*
X141556528Y-99019783D01*
X141611561Y-99129850D01*
X141666595Y-99349983D01*
X141666595Y-99625150D01*
X141611561Y-99845283D01*
X141556528Y-99955350D01*
X141501495Y-100010383D01*
X141391428Y-100065416D01*
X141281361Y-100065416D01*
X141171295Y-100010383D01*
X141116261Y-99955350D01*
X141061228Y-99845283D01*
X141006195Y-99625150D01*
X141006195Y-99349983D01*
X141061228Y-99129850D01*
X141116261Y-99019783D01*
X141171295Y-98964750D01*
X141281361Y-98909716D01*
%TO.C,PAD21*%
X136658561Y-97525416D02*
X136658561Y-96369716D01*
X137098828Y-96369716D01*
X137208895Y-96424750D01*
X137263928Y-96479783D01*
X137318961Y-96589850D01*
X137318961Y-96754950D01*
X137263928Y-96865016D01*
X137208895Y-96920050D01*
X137098828Y-96975083D01*
X136658561Y-96975083D01*
X137759228Y-97195216D02*
X138309561Y-97195216D01*
X137649161Y-97525416D02*
X138034395Y-96369716D01*
X138419628Y-97525416D01*
X138804861Y-97525416D02*
X138804861Y-96369716D01*
X139080028Y-96369716D01*
X139245128Y-96424750D01*
X139355195Y-96534816D01*
X139410228Y-96644883D01*
X139465261Y-96865016D01*
X139465261Y-97030116D01*
X139410228Y-97250250D01*
X139355195Y-97360316D01*
X139245128Y-97470383D01*
X139080028Y-97525416D01*
X138804861Y-97525416D01*
X139905528Y-96479783D02*
X139960561Y-96424750D01*
X140070628Y-96369716D01*
X140345795Y-96369716D01*
X140455861Y-96424750D01*
X140510895Y-96479783D01*
X140565928Y-96589850D01*
X140565928Y-96699916D01*
X140510895Y-96865016D01*
X139850495Y-97525416D01*
X140565928Y-97525416D01*
X141666595Y-97525416D02*
X141006195Y-97525416D01*
X141336395Y-97525416D02*
X141336395Y-96369716D01*
X141226328Y-96534816D01*
X141116261Y-96644883D01*
X141006195Y-96699916D01*
%TO.C,PAD22*%
X131578561Y-107685416D02*
X131578561Y-106529716D01*
X132018828Y-106529716D01*
X132128895Y-106584750D01*
X132183928Y-106639783D01*
X132238961Y-106749850D01*
X132238961Y-106914950D01*
X132183928Y-107025016D01*
X132128895Y-107080050D01*
X132018828Y-107135083D01*
X131578561Y-107135083D01*
X132679228Y-107355216D02*
X133229561Y-107355216D01*
X132569161Y-107685416D02*
X132954395Y-106529716D01*
X133339628Y-107685416D01*
X133724861Y-107685416D02*
X133724861Y-106529716D01*
X134000028Y-106529716D01*
X134165128Y-106584750D01*
X134275195Y-106694816D01*
X134330228Y-106804883D01*
X134385261Y-107025016D01*
X134385261Y-107190116D01*
X134330228Y-107410250D01*
X134275195Y-107520316D01*
X134165128Y-107630383D01*
X134000028Y-107685416D01*
X133724861Y-107685416D01*
X134825528Y-106639783D02*
X134880561Y-106584750D01*
X134990628Y-106529716D01*
X135265795Y-106529716D01*
X135375861Y-106584750D01*
X135430895Y-106639783D01*
X135485928Y-106749850D01*
X135485928Y-106859916D01*
X135430895Y-107025016D01*
X134770495Y-107685416D01*
X135485928Y-107685416D01*
X135926195Y-106639783D02*
X135981228Y-106584750D01*
X136091295Y-106529716D01*
X136366461Y-106529716D01*
X136476528Y-106584750D01*
X136531561Y-106639783D01*
X136586595Y-106749850D01*
X136586595Y-106859916D01*
X136531561Y-107025016D01*
X135871161Y-107685416D01*
X136586595Y-107685416D01*
%TO.C,PAD23*%
X131578561Y-105145416D02*
X131578561Y-103989716D01*
X132018828Y-103989716D01*
X132128895Y-104044750D01*
X132183928Y-104099783D01*
X132238961Y-104209850D01*
X132238961Y-104374950D01*
X132183928Y-104485016D01*
X132128895Y-104540050D01*
X132018828Y-104595083D01*
X131578561Y-104595083D01*
X132679228Y-104815216D02*
X133229561Y-104815216D01*
X132569161Y-105145416D02*
X132954395Y-103989716D01*
X133339628Y-105145416D01*
X133724861Y-105145416D02*
X133724861Y-103989716D01*
X134000028Y-103989716D01*
X134165128Y-104044750D01*
X134275195Y-104154816D01*
X134330228Y-104264883D01*
X134385261Y-104485016D01*
X134385261Y-104650116D01*
X134330228Y-104870250D01*
X134275195Y-104980316D01*
X134165128Y-105090383D01*
X134000028Y-105145416D01*
X133724861Y-105145416D01*
X134825528Y-104099783D02*
X134880561Y-104044750D01*
X134990628Y-103989716D01*
X135265795Y-103989716D01*
X135375861Y-104044750D01*
X135430895Y-104099783D01*
X135485928Y-104209850D01*
X135485928Y-104319916D01*
X135430895Y-104485016D01*
X134770495Y-105145416D01*
X135485928Y-105145416D01*
X135871161Y-103989716D02*
X136586595Y-103989716D01*
X136201361Y-104429983D01*
X136366461Y-104429983D01*
X136476528Y-104485016D01*
X136531561Y-104540050D01*
X136586595Y-104650116D01*
X136586595Y-104925283D01*
X136531561Y-105035350D01*
X136476528Y-105090383D01*
X136366461Y-105145416D01*
X136036261Y-105145416D01*
X135926195Y-105090383D01*
X135871161Y-105035350D01*
%TO.C,PAD24*%
X131578561Y-102605416D02*
X131578561Y-101449716D01*
X132018828Y-101449716D01*
X132128895Y-101504750D01*
X132183928Y-101559783D01*
X132238961Y-101669850D01*
X132238961Y-101834950D01*
X132183928Y-101945016D01*
X132128895Y-102000050D01*
X132018828Y-102055083D01*
X131578561Y-102055083D01*
X132679228Y-102275216D02*
X133229561Y-102275216D01*
X132569161Y-102605416D02*
X132954395Y-101449716D01*
X133339628Y-102605416D01*
X133724861Y-102605416D02*
X133724861Y-101449716D01*
X134000028Y-101449716D01*
X134165128Y-101504750D01*
X134275195Y-101614816D01*
X134330228Y-101724883D01*
X134385261Y-101945016D01*
X134385261Y-102110116D01*
X134330228Y-102330250D01*
X134275195Y-102440316D01*
X134165128Y-102550383D01*
X134000028Y-102605416D01*
X133724861Y-102605416D01*
X134825528Y-101559783D02*
X134880561Y-101504750D01*
X134990628Y-101449716D01*
X135265795Y-101449716D01*
X135375861Y-101504750D01*
X135430895Y-101559783D01*
X135485928Y-101669850D01*
X135485928Y-101779916D01*
X135430895Y-101945016D01*
X134770495Y-102605416D01*
X135485928Y-102605416D01*
X136476528Y-101834950D02*
X136476528Y-102605416D01*
X136201361Y-101394683D02*
X135926195Y-102220183D01*
X136641628Y-102220183D01*
%TO.C,PAD25*%
X131578561Y-100065416D02*
X131578561Y-98909716D01*
X132018828Y-98909716D01*
X132128895Y-98964750D01*
X132183928Y-99019783D01*
X132238961Y-99129850D01*
X132238961Y-99294950D01*
X132183928Y-99405016D01*
X132128895Y-99460050D01*
X132018828Y-99515083D01*
X131578561Y-99515083D01*
X132679228Y-99735216D02*
X133229561Y-99735216D01*
X132569161Y-100065416D02*
X132954395Y-98909716D01*
X133339628Y-100065416D01*
X133724861Y-100065416D02*
X133724861Y-98909716D01*
X134000028Y-98909716D01*
X134165128Y-98964750D01*
X134275195Y-99074816D01*
X134330228Y-99184883D01*
X134385261Y-99405016D01*
X134385261Y-99570116D01*
X134330228Y-99790250D01*
X134275195Y-99900316D01*
X134165128Y-100010383D01*
X134000028Y-100065416D01*
X133724861Y-100065416D01*
X134825528Y-99019783D02*
X134880561Y-98964750D01*
X134990628Y-98909716D01*
X135265795Y-98909716D01*
X135375861Y-98964750D01*
X135430895Y-99019783D01*
X135485928Y-99129850D01*
X135485928Y-99239916D01*
X135430895Y-99405016D01*
X134770495Y-100065416D01*
X135485928Y-100065416D01*
X136531561Y-98909716D02*
X135981228Y-98909716D01*
X135926195Y-99460050D01*
X135981228Y-99405016D01*
X136091295Y-99349983D01*
X136366461Y-99349983D01*
X136476528Y-99405016D01*
X136531561Y-99460050D01*
X136586595Y-99570116D01*
X136586595Y-99845283D01*
X136531561Y-99955350D01*
X136476528Y-100010383D01*
X136366461Y-100065416D01*
X136091295Y-100065416D01*
X135981228Y-100010383D01*
X135926195Y-99955350D01*
%TO.C,PAD26*%
X131578561Y-97525416D02*
X131578561Y-96369716D01*
X132018828Y-96369716D01*
X132128895Y-96424750D01*
X132183928Y-96479783D01*
X132238961Y-96589850D01*
X132238961Y-96754950D01*
X132183928Y-96865016D01*
X132128895Y-96920050D01*
X132018828Y-96975083D01*
X131578561Y-96975083D01*
X132679228Y-97195216D02*
X133229561Y-97195216D01*
X132569161Y-97525416D02*
X132954395Y-96369716D01*
X133339628Y-97525416D01*
X133724861Y-97525416D02*
X133724861Y-96369716D01*
X134000028Y-96369716D01*
X134165128Y-96424750D01*
X134275195Y-96534816D01*
X134330228Y-96644883D01*
X134385261Y-96865016D01*
X134385261Y-97030116D01*
X134330228Y-97250250D01*
X134275195Y-97360316D01*
X134165128Y-97470383D01*
X134000028Y-97525416D01*
X133724861Y-97525416D01*
X134825528Y-96479783D02*
X134880561Y-96424750D01*
X134990628Y-96369716D01*
X135265795Y-96369716D01*
X135375861Y-96424750D01*
X135430895Y-96479783D01*
X135485928Y-96589850D01*
X135485928Y-96699916D01*
X135430895Y-96865016D01*
X134770495Y-97525416D01*
X135485928Y-97525416D01*
X136476528Y-96369716D02*
X136256395Y-96369716D01*
X136146328Y-96424750D01*
X136091295Y-96479783D01*
X135981228Y-96644883D01*
X135926195Y-96865016D01*
X135926195Y-97305283D01*
X135981228Y-97415350D01*
X136036261Y-97470383D01*
X136146328Y-97525416D01*
X136366461Y-97525416D01*
X136476528Y-97470383D01*
X136531561Y-97415350D01*
X136586595Y-97305283D01*
X136586595Y-97030116D01*
X136531561Y-96920050D01*
X136476528Y-96865016D01*
X136366461Y-96809983D01*
X136146328Y-96809983D01*
X136036261Y-96865016D01*
X135981228Y-96920050D01*
X135926195Y-97030116D01*
%TO.C,PAD27*%
X131578561Y-94985416D02*
X131578561Y-93829716D01*
X132018828Y-93829716D01*
X132128895Y-93884750D01*
X132183928Y-93939783D01*
X132238961Y-94049850D01*
X132238961Y-94214950D01*
X132183928Y-94325016D01*
X132128895Y-94380050D01*
X132018828Y-94435083D01*
X131578561Y-94435083D01*
X132679228Y-94655216D02*
X133229561Y-94655216D01*
X132569161Y-94985416D02*
X132954395Y-93829716D01*
X133339628Y-94985416D01*
X133724861Y-94985416D02*
X133724861Y-93829716D01*
X134000028Y-93829716D01*
X134165128Y-93884750D01*
X134275195Y-93994816D01*
X134330228Y-94104883D01*
X134385261Y-94325016D01*
X134385261Y-94490116D01*
X134330228Y-94710250D01*
X134275195Y-94820316D01*
X134165128Y-94930383D01*
X134000028Y-94985416D01*
X133724861Y-94985416D01*
X134825528Y-93939783D02*
X134880561Y-93884750D01*
X134990628Y-93829716D01*
X135265795Y-93829716D01*
X135375861Y-93884750D01*
X135430895Y-93939783D01*
X135485928Y-94049850D01*
X135485928Y-94159916D01*
X135430895Y-94325016D01*
X134770495Y-94985416D01*
X135485928Y-94985416D01*
X135871161Y-93829716D02*
X136641628Y-93829716D01*
X136146328Y-94985416D01*
%TO.C,PAD28*%
X131578561Y-92445416D02*
X131578561Y-91289716D01*
X132018828Y-91289716D01*
X132128895Y-91344750D01*
X132183928Y-91399783D01*
X132238961Y-91509850D01*
X132238961Y-91674950D01*
X132183928Y-91785016D01*
X132128895Y-91840050D01*
X132018828Y-91895083D01*
X131578561Y-91895083D01*
X132679228Y-92115216D02*
X133229561Y-92115216D01*
X132569161Y-92445416D02*
X132954395Y-91289716D01*
X133339628Y-92445416D01*
X133724861Y-92445416D02*
X133724861Y-91289716D01*
X134000028Y-91289716D01*
X134165128Y-91344750D01*
X134275195Y-91454816D01*
X134330228Y-91564883D01*
X134385261Y-91785016D01*
X134385261Y-91950116D01*
X134330228Y-92170250D01*
X134275195Y-92280316D01*
X134165128Y-92390383D01*
X134000028Y-92445416D01*
X133724861Y-92445416D01*
X134825528Y-91399783D02*
X134880561Y-91344750D01*
X134990628Y-91289716D01*
X135265795Y-91289716D01*
X135375861Y-91344750D01*
X135430895Y-91399783D01*
X135485928Y-91509850D01*
X135485928Y-91619916D01*
X135430895Y-91785016D01*
X134770495Y-92445416D01*
X135485928Y-92445416D01*
X136146328Y-91785016D02*
X136036261Y-91729983D01*
X135981228Y-91674950D01*
X135926195Y-91564883D01*
X135926195Y-91509850D01*
X135981228Y-91399783D01*
X136036261Y-91344750D01*
X136146328Y-91289716D01*
X136366461Y-91289716D01*
X136476528Y-91344750D01*
X136531561Y-91399783D01*
X136586595Y-91509850D01*
X136586595Y-91564883D01*
X136531561Y-91674950D01*
X136476528Y-91729983D01*
X136366461Y-91785016D01*
X136146328Y-91785016D01*
X136036261Y-91840050D01*
X135981228Y-91895083D01*
X135926195Y-92005150D01*
X135926195Y-92225283D01*
X135981228Y-92335350D01*
X136036261Y-92390383D01*
X136146328Y-92445416D01*
X136366461Y-92445416D01*
X136476528Y-92390383D01*
X136531561Y-92335350D01*
X136586595Y-92225283D01*
X136586595Y-92005150D01*
X136531561Y-91895083D01*
X136476528Y-91840050D01*
X136366461Y-91785016D01*
%TO.C,PAD3*%
X164598561Y-101335416D02*
X164598561Y-100179716D01*
X165038828Y-100179716D01*
X165148895Y-100234750D01*
X165203928Y-100289783D01*
X165258961Y-100399850D01*
X165258961Y-100564950D01*
X165203928Y-100675016D01*
X165148895Y-100730050D01*
X165038828Y-100785083D01*
X164598561Y-100785083D01*
X165699228Y-101005216D02*
X166249561Y-101005216D01*
X165589161Y-101335416D02*
X165974395Y-100179716D01*
X166359628Y-101335416D01*
X166744861Y-101335416D02*
X166744861Y-100179716D01*
X167020028Y-100179716D01*
X167185128Y-100234750D01*
X167295195Y-100344816D01*
X167350228Y-100454883D01*
X167405261Y-100675016D01*
X167405261Y-100840116D01*
X167350228Y-101060250D01*
X167295195Y-101170316D01*
X167185128Y-101280383D01*
X167020028Y-101335416D01*
X166744861Y-101335416D01*
X167790495Y-100179716D02*
X168505928Y-100179716D01*
X168120695Y-100619983D01*
X168285795Y-100619983D01*
X168395861Y-100675016D01*
X168450895Y-100730050D01*
X168505928Y-100840116D01*
X168505928Y-101115283D01*
X168450895Y-101225350D01*
X168395861Y-101280383D01*
X168285795Y-101335416D01*
X167955595Y-101335416D01*
X167845528Y-101280383D01*
X167790495Y-101225350D01*
%TO.C,PAD37*%
X132848561Y-82285416D02*
X132848561Y-81129716D01*
X133288828Y-81129716D01*
X133398895Y-81184750D01*
X133453928Y-81239783D01*
X133508961Y-81349850D01*
X133508961Y-81514950D01*
X133453928Y-81625016D01*
X133398895Y-81680050D01*
X133288828Y-81735083D01*
X132848561Y-81735083D01*
X133949228Y-81955216D02*
X134499561Y-81955216D01*
X133839161Y-82285416D02*
X134224395Y-81129716D01*
X134609628Y-82285416D01*
X134994861Y-82285416D02*
X134994861Y-81129716D01*
X135270028Y-81129716D01*
X135435128Y-81184750D01*
X135545195Y-81294816D01*
X135600228Y-81404883D01*
X135655261Y-81625016D01*
X135655261Y-81790116D01*
X135600228Y-82010250D01*
X135545195Y-82120316D01*
X135435128Y-82230383D01*
X135270028Y-82285416D01*
X134994861Y-82285416D01*
X136040495Y-81129716D02*
X136755928Y-81129716D01*
X136370695Y-81569983D01*
X136535795Y-81569983D01*
X136645861Y-81625016D01*
X136700895Y-81680050D01*
X136755928Y-81790116D01*
X136755928Y-82065283D01*
X136700895Y-82175350D01*
X136645861Y-82230383D01*
X136535795Y-82285416D01*
X136205595Y-82285416D01*
X136095528Y-82230383D01*
X136040495Y-82175350D01*
X137141161Y-81129716D02*
X137911628Y-81129716D01*
X137416328Y-82285416D01*
%TO.C,PAD38*%
X130308561Y-82285416D02*
X130308561Y-81129716D01*
X130748828Y-81129716D01*
X130858895Y-81184750D01*
X130913928Y-81239783D01*
X130968961Y-81349850D01*
X130968961Y-81514950D01*
X130913928Y-81625016D01*
X130858895Y-81680050D01*
X130748828Y-81735083D01*
X130308561Y-81735083D01*
X131409228Y-81955216D02*
X131959561Y-81955216D01*
X131299161Y-82285416D02*
X131684395Y-81129716D01*
X132069628Y-82285416D01*
X132454861Y-82285416D02*
X132454861Y-81129716D01*
X132730028Y-81129716D01*
X132895128Y-81184750D01*
X133005195Y-81294816D01*
X133060228Y-81404883D01*
X133115261Y-81625016D01*
X133115261Y-81790116D01*
X133060228Y-82010250D01*
X133005195Y-82120316D01*
X132895128Y-82230383D01*
X132730028Y-82285416D01*
X132454861Y-82285416D01*
X133500495Y-81129716D02*
X134215928Y-81129716D01*
X133830695Y-81569983D01*
X133995795Y-81569983D01*
X134105861Y-81625016D01*
X134160895Y-81680050D01*
X134215928Y-81790116D01*
X134215928Y-82065283D01*
X134160895Y-82175350D01*
X134105861Y-82230383D01*
X133995795Y-82285416D01*
X133665595Y-82285416D01*
X133555528Y-82230383D01*
X133500495Y-82175350D01*
X134876328Y-81625016D02*
X134766261Y-81569983D01*
X134711228Y-81514950D01*
X134656195Y-81404883D01*
X134656195Y-81349850D01*
X134711228Y-81239783D01*
X134766261Y-81184750D01*
X134876328Y-81129716D01*
X135096461Y-81129716D01*
X135206528Y-81184750D01*
X135261561Y-81239783D01*
X135316595Y-81349850D01*
X135316595Y-81404883D01*
X135261561Y-81514950D01*
X135206528Y-81569983D01*
X135096461Y-81625016D01*
X134876328Y-81625016D01*
X134766261Y-81680050D01*
X134711228Y-81735083D01*
X134656195Y-81845150D01*
X134656195Y-82065283D01*
X134711228Y-82175350D01*
X134766261Y-82230383D01*
X134876328Y-82285416D01*
X135096461Y-82285416D01*
X135206528Y-82230383D01*
X135261561Y-82175350D01*
X135316595Y-82065283D01*
X135316595Y-81845150D01*
X135261561Y-81735083D01*
X135206528Y-81680050D01*
X135096461Y-81625016D01*
%TO.C,PAD4*%
X164598561Y-98795416D02*
X164598561Y-97639716D01*
X165038828Y-97639716D01*
X165148895Y-97694750D01*
X165203928Y-97749783D01*
X165258961Y-97859850D01*
X165258961Y-98024950D01*
X165203928Y-98135016D01*
X165148895Y-98190050D01*
X165038828Y-98245083D01*
X164598561Y-98245083D01*
X165699228Y-98465216D02*
X166249561Y-98465216D01*
X165589161Y-98795416D02*
X165974395Y-97639716D01*
X166359628Y-98795416D01*
X166744861Y-98795416D02*
X166744861Y-97639716D01*
X167020028Y-97639716D01*
X167185128Y-97694750D01*
X167295195Y-97804816D01*
X167350228Y-97914883D01*
X167405261Y-98135016D01*
X167405261Y-98300116D01*
X167350228Y-98520250D01*
X167295195Y-98630316D01*
X167185128Y-98740383D01*
X167020028Y-98795416D01*
X166744861Y-98795416D01*
X168395861Y-98024950D02*
X168395861Y-98795416D01*
X168120695Y-97584683D02*
X167845528Y-98410183D01*
X168560961Y-98410183D01*
%TO.C,PAD5*%
X164598561Y-96255416D02*
X164598561Y-95099716D01*
X165038828Y-95099716D01*
X165148895Y-95154750D01*
X165203928Y-95209783D01*
X165258961Y-95319850D01*
X165258961Y-95484950D01*
X165203928Y-95595016D01*
X165148895Y-95650050D01*
X165038828Y-95705083D01*
X164598561Y-95705083D01*
X165699228Y-95925216D02*
X166249561Y-95925216D01*
X165589161Y-96255416D02*
X165974395Y-95099716D01*
X166359628Y-96255416D01*
X166744861Y-96255416D02*
X166744861Y-95099716D01*
X167020028Y-95099716D01*
X167185128Y-95154750D01*
X167295195Y-95264816D01*
X167350228Y-95374883D01*
X167405261Y-95595016D01*
X167405261Y-95760116D01*
X167350228Y-95980250D01*
X167295195Y-96090316D01*
X167185128Y-96200383D01*
X167020028Y-96255416D01*
X166744861Y-96255416D01*
X168450895Y-95099716D02*
X167900561Y-95099716D01*
X167845528Y-95650050D01*
X167900561Y-95595016D01*
X168010628Y-95539983D01*
X168285795Y-95539983D01*
X168395861Y-95595016D01*
X168450895Y-95650050D01*
X168505928Y-95760116D01*
X168505928Y-96035283D01*
X168450895Y-96145350D01*
X168395861Y-96200383D01*
X168285795Y-96255416D01*
X168010628Y-96255416D01*
X167900561Y-96200383D01*
X167845528Y-96145350D01*
%TO.C,PAD6*%
X164598561Y-93715416D02*
X164598561Y-92559716D01*
X165038828Y-92559716D01*
X165148895Y-92614750D01*
X165203928Y-92669783D01*
X165258961Y-92779850D01*
X165258961Y-92944950D01*
X165203928Y-93055016D01*
X165148895Y-93110050D01*
X165038828Y-93165083D01*
X164598561Y-93165083D01*
X165699228Y-93385216D02*
X166249561Y-93385216D01*
X165589161Y-93715416D02*
X165974395Y-92559716D01*
X166359628Y-93715416D01*
X166744861Y-93715416D02*
X166744861Y-92559716D01*
X167020028Y-92559716D01*
X167185128Y-92614750D01*
X167295195Y-92724816D01*
X167350228Y-92834883D01*
X167405261Y-93055016D01*
X167405261Y-93220116D01*
X167350228Y-93440250D01*
X167295195Y-93550316D01*
X167185128Y-93660383D01*
X167020028Y-93715416D01*
X166744861Y-93715416D01*
X168395861Y-92559716D02*
X168175728Y-92559716D01*
X168065661Y-92614750D01*
X168010628Y-92669783D01*
X167900561Y-92834883D01*
X167845528Y-93055016D01*
X167845528Y-93495283D01*
X167900561Y-93605350D01*
X167955595Y-93660383D01*
X168065661Y-93715416D01*
X168285795Y-93715416D01*
X168395861Y-93660383D01*
X168450895Y-93605350D01*
X168505928Y-93495283D01*
X168505928Y-93220116D01*
X168450895Y-93110050D01*
X168395861Y-93055016D01*
X168285795Y-92999983D01*
X168065661Y-92999983D01*
X167955595Y-93055016D01*
X167900561Y-93110050D01*
X167845528Y-93220116D01*
%TO.C,PAD7*%
X164598561Y-91175416D02*
X164598561Y-90019716D01*
X165038828Y-90019716D01*
X165148895Y-90074750D01*
X165203928Y-90129783D01*
X165258961Y-90239850D01*
X165258961Y-90404950D01*
X165203928Y-90515016D01*
X165148895Y-90570050D01*
X165038828Y-90625083D01*
X164598561Y-90625083D01*
X165699228Y-90845216D02*
X166249561Y-90845216D01*
X165589161Y-91175416D02*
X165974395Y-90019716D01*
X166359628Y-91175416D01*
X166744861Y-91175416D02*
X166744861Y-90019716D01*
X167020028Y-90019716D01*
X167185128Y-90074750D01*
X167295195Y-90184816D01*
X167350228Y-90294883D01*
X167405261Y-90515016D01*
X167405261Y-90680116D01*
X167350228Y-90900250D01*
X167295195Y-91010316D01*
X167185128Y-91120383D01*
X167020028Y-91175416D01*
X166744861Y-91175416D01*
X167790495Y-90019716D02*
X168560961Y-90019716D01*
X168065661Y-91175416D01*
%TO.C,PAD8*%
X160788561Y-112765416D02*
X160788561Y-111609716D01*
X161228828Y-111609716D01*
X161338895Y-111664750D01*
X161393928Y-111719783D01*
X161448961Y-111829850D01*
X161448961Y-111994950D01*
X161393928Y-112105016D01*
X161338895Y-112160050D01*
X161228828Y-112215083D01*
X160788561Y-112215083D01*
X161889228Y-112435216D02*
X162439561Y-112435216D01*
X161779161Y-112765416D02*
X162164395Y-111609716D01*
X162549628Y-112765416D01*
X162934861Y-112765416D02*
X162934861Y-111609716D01*
X163210028Y-111609716D01*
X163375128Y-111664750D01*
X163485195Y-111774816D01*
X163540228Y-111884883D01*
X163595261Y-112105016D01*
X163595261Y-112270116D01*
X163540228Y-112490250D01*
X163485195Y-112600316D01*
X163375128Y-112710383D01*
X163210028Y-112765416D01*
X162934861Y-112765416D01*
X164255661Y-112105016D02*
X164145595Y-112049983D01*
X164090561Y-111994950D01*
X164035528Y-111884883D01*
X164035528Y-111829850D01*
X164090561Y-111719783D01*
X164145595Y-111664750D01*
X164255661Y-111609716D01*
X164475795Y-111609716D01*
X164585861Y-111664750D01*
X164640895Y-111719783D01*
X164695928Y-111829850D01*
X164695928Y-111884883D01*
X164640895Y-111994950D01*
X164585861Y-112049983D01*
X164475795Y-112105016D01*
X164255661Y-112105016D01*
X164145595Y-112160050D01*
X164090561Y-112215083D01*
X164035528Y-112325150D01*
X164035528Y-112545283D01*
X164090561Y-112655350D01*
X164145595Y-112710383D01*
X164255661Y-112765416D01*
X164475795Y-112765416D01*
X164585861Y-112710383D01*
X164640895Y-112655350D01*
X164695928Y-112545283D01*
X164695928Y-112325150D01*
X164640895Y-112215083D01*
X164585861Y-112160050D01*
X164475795Y-112105016D01*
%TO.C,PAD9*%
X160788561Y-110225416D02*
X160788561Y-109069716D01*
X161228828Y-109069716D01*
X161338895Y-109124750D01*
X161393928Y-109179783D01*
X161448961Y-109289850D01*
X161448961Y-109454950D01*
X161393928Y-109565016D01*
X161338895Y-109620050D01*
X161228828Y-109675083D01*
X160788561Y-109675083D01*
X161889228Y-109895216D02*
X162439561Y-109895216D01*
X161779161Y-110225416D02*
X162164395Y-109069716D01*
X162549628Y-110225416D01*
X162934861Y-110225416D02*
X162934861Y-109069716D01*
X163210028Y-109069716D01*
X163375128Y-109124750D01*
X163485195Y-109234816D01*
X163540228Y-109344883D01*
X163595261Y-109565016D01*
X163595261Y-109730116D01*
X163540228Y-109950250D01*
X163485195Y-110060316D01*
X163375128Y-110170383D01*
X163210028Y-110225416D01*
X162934861Y-110225416D01*
X164145595Y-110225416D02*
X164365728Y-110225416D01*
X164475795Y-110170383D01*
X164530828Y-110115350D01*
X164640895Y-109950250D01*
X164695928Y-109730116D01*
X164695928Y-109289850D01*
X164640895Y-109179783D01*
X164585861Y-109124750D01*
X164475795Y-109069716D01*
X164255661Y-109069716D01*
X164145595Y-109124750D01*
X164090561Y-109179783D01*
X164035528Y-109289850D01*
X164035528Y-109565016D01*
X164090561Y-109675083D01*
X164145595Y-109730116D01*
X164255661Y-109785150D01*
X164475795Y-109785150D01*
X164585861Y-109730116D01*
X164640895Y-109675083D01*
X164695928Y-109565016D01*
D12*
%TO.C,U1*%
X146973435Y-100377176D02*
X146973435Y-101020846D01*
X147011298Y-101096572D01*
X147049161Y-101134435D01*
X147124887Y-101172298D01*
X147276339Y-101172298D01*
X147352064Y-101134435D01*
X147389927Y-101096572D01*
X147427790Y-101020846D01*
X147427790Y-100377176D01*
X148222912Y-101172298D02*
X147768557Y-101172298D01*
X147995735Y-101172298D02*
X147995735Y-100377176D01*
X147920009Y-100490764D01*
X147844283Y-100566490D01*
X147768557Y-100604353D01*
D13*
X143747766Y-96920380D02*
X143879195Y-96964190D01*
X144098242Y-96964190D01*
X144185861Y-96920380D01*
X144229671Y-96876571D01*
X144273480Y-96788952D01*
X144273480Y-96701333D01*
X144229671Y-96613714D01*
X144185861Y-96569904D01*
X144098242Y-96526095D01*
X143923004Y-96482285D01*
X143835385Y-96438476D01*
X143791576Y-96394666D01*
X143747766Y-96307047D01*
X143747766Y-96219428D01*
X143791576Y-96131809D01*
X143835385Y-96088000D01*
X143923004Y-96044190D01*
X144142052Y-96044190D01*
X144273480Y-96088000D01*
X144667766Y-96482285D02*
X144974433Y-96482285D01*
X145105861Y-96964190D02*
X144667766Y-96964190D01*
X144667766Y-96044190D01*
X145105861Y-96044190D01*
X145500147Y-96482285D02*
X145806814Y-96482285D01*
X145938242Y-96964190D02*
X145500147Y-96964190D01*
X145500147Y-96044190D01*
X145938242Y-96044190D01*
X146332528Y-96482285D02*
X146639195Y-96482285D01*
X146770623Y-96964190D02*
X146332528Y-96964190D01*
X146332528Y-96044190D01*
X146770623Y-96044190D01*
X147164909Y-96964190D02*
X147164909Y-96044190D01*
X147383957Y-96044190D01*
X147515385Y-96088000D01*
X147603004Y-96175619D01*
X147646814Y-96263238D01*
X147690623Y-96438476D01*
X147690623Y-96569904D01*
X147646814Y-96745142D01*
X147603004Y-96832761D01*
X147515385Y-96920380D01*
X147383957Y-96964190D01*
X147164909Y-96964190D01*
X148742052Y-96920380D02*
X148873480Y-96964190D01*
X149092528Y-96964190D01*
X149180147Y-96920380D01*
X149223957Y-96876571D01*
X149267766Y-96788952D01*
X149267766Y-96701333D01*
X149223957Y-96613714D01*
X149180147Y-96569904D01*
X149092528Y-96526095D01*
X148917290Y-96482285D01*
X148829671Y-96438476D01*
X148785861Y-96394666D01*
X148742052Y-96307047D01*
X148742052Y-96219428D01*
X148785861Y-96131809D01*
X148829671Y-96088000D01*
X148917290Y-96044190D01*
X149136338Y-96044190D01*
X149267766Y-96088000D01*
X149530623Y-96044190D02*
X150056338Y-96044190D01*
X149793480Y-96964190D02*
X149793480Y-96044190D01*
X150363004Y-96044190D02*
X150363004Y-96788952D01*
X150406814Y-96876571D01*
X150450623Y-96920380D01*
X150538242Y-96964190D01*
X150713480Y-96964190D01*
X150801100Y-96920380D01*
X150844909Y-96876571D01*
X150888719Y-96788952D01*
X150888719Y-96044190D01*
X151326814Y-96964190D02*
X151326814Y-96044190D01*
X151545861Y-96044190D01*
X151677290Y-96088000D01*
X151764909Y-96175619D01*
X151808719Y-96263238D01*
X151852528Y-96438476D01*
X151852528Y-96569904D01*
X151808719Y-96745142D01*
X151764909Y-96832761D01*
X151677290Y-96920380D01*
X151545861Y-96964190D01*
X151326814Y-96964190D01*
X152246814Y-96964190D02*
X152246814Y-96044190D01*
X152860147Y-96044190D02*
X153035385Y-96044190D01*
X153123004Y-96088000D01*
X153210623Y-96175619D01*
X153254433Y-96350857D01*
X153254433Y-96657523D01*
X153210623Y-96832761D01*
X153123004Y-96920380D01*
X153035385Y-96964190D01*
X152860147Y-96964190D01*
X152772528Y-96920380D01*
X152684909Y-96832761D01*
X152641100Y-96657523D01*
X152641100Y-96350857D01*
X152684909Y-96175619D01*
X152772528Y-96088000D01*
X152860147Y-96044190D01*
X147099195Y-97525390D02*
X147712528Y-98445390D01*
X147712528Y-97525390D02*
X147099195Y-98445390D01*
X148063004Y-98445390D02*
X148063004Y-97525390D01*
X148457290Y-98182533D02*
X148895385Y-98182533D01*
X148369671Y-98445390D02*
X148676338Y-97525390D01*
X148983004Y-98445390D01*
X149464909Y-97525390D02*
X149640147Y-97525390D01*
X149727766Y-97569200D01*
X149815385Y-97656819D01*
X149859195Y-97832057D01*
X149859195Y-98138723D01*
X149815385Y-98313961D01*
X149727766Y-98401580D01*
X149640147Y-98445390D01*
X149464909Y-98445390D01*
X149377290Y-98401580D01*
X149289671Y-98313961D01*
X149245861Y-98138723D01*
X149245861Y-97832057D01*
X149289671Y-97656819D01*
X149377290Y-97569200D01*
X149464909Y-97525390D01*
D14*
%TO.C,U2*%
X159543615Y-76624427D02*
X159543615Y-77273638D01*
X159581804Y-77350016D01*
X159619993Y-77388205D01*
X159696371Y-77426394D01*
X159849127Y-77426394D01*
X159925505Y-77388205D01*
X159963693Y-77350016D01*
X160001882Y-77273638D01*
X160001882Y-76624427D01*
X160345582Y-76700805D02*
X160383771Y-76662616D01*
X160460149Y-76624427D01*
X160651094Y-76624427D01*
X160727472Y-76662616D01*
X160765660Y-76700805D01*
X160803849Y-76777183D01*
X160803849Y-76853561D01*
X160765660Y-76968127D01*
X160307394Y-77426394D01*
X160803849Y-77426394D01*
D11*
%TO.C,PAD39*%
X140468561Y-121655416D02*
X140468561Y-120499716D01*
X140908828Y-120499716D01*
X141018895Y-120554750D01*
X141073928Y-120609783D01*
X141128961Y-120719850D01*
X141128961Y-120884950D01*
X141073928Y-120995016D01*
X141018895Y-121050050D01*
X140908828Y-121105083D01*
X140468561Y-121105083D01*
X141569228Y-121325216D02*
X142119561Y-121325216D01*
X141459161Y-121655416D02*
X141844395Y-120499716D01*
X142229628Y-121655416D01*
X142614861Y-121655416D02*
X142614861Y-120499716D01*
X142890028Y-120499716D01*
X143055128Y-120554750D01*
X143165195Y-120664816D01*
X143220228Y-120774883D01*
X143275261Y-120995016D01*
X143275261Y-121160116D01*
X143220228Y-121380250D01*
X143165195Y-121490316D01*
X143055128Y-121600383D01*
X142890028Y-121655416D01*
X142614861Y-121655416D01*
X143660495Y-120499716D02*
X144375928Y-120499716D01*
X143990695Y-120939983D01*
X144155795Y-120939983D01*
X144265861Y-120995016D01*
X144320895Y-121050050D01*
X144375928Y-121160116D01*
X144375928Y-121435283D01*
X144320895Y-121545350D01*
X144265861Y-121600383D01*
X144155795Y-121655416D01*
X143825595Y-121655416D01*
X143715528Y-121600383D01*
X143660495Y-121545350D01*
X144926261Y-121655416D02*
X145146395Y-121655416D01*
X145256461Y-121600383D01*
X145311495Y-121545350D01*
X145421561Y-121380250D01*
X145476595Y-121160116D01*
X145476595Y-120719850D01*
X145421561Y-120609783D01*
X145366528Y-120554750D01*
X145256461Y-120499716D01*
X145036328Y-120499716D01*
X144926261Y-120554750D01*
X144871228Y-120609783D01*
X144816195Y-120719850D01*
X144816195Y-120995016D01*
X144871228Y-121105083D01*
X144926261Y-121160116D01*
X145036328Y-121215150D01*
X145256461Y-121215150D01*
X145366528Y-121160116D01*
X145421561Y-121105083D01*
X145476595Y-120995016D01*
%TO.C,PAD40*%
X140468561Y-124195416D02*
X140468561Y-123039716D01*
X140908828Y-123039716D01*
X141018895Y-123094750D01*
X141073928Y-123149783D01*
X141128961Y-123259850D01*
X141128961Y-123424950D01*
X141073928Y-123535016D01*
X141018895Y-123590050D01*
X140908828Y-123645083D01*
X140468561Y-123645083D01*
X141569228Y-123865216D02*
X142119561Y-123865216D01*
X141459161Y-124195416D02*
X141844395Y-123039716D01*
X142229628Y-124195416D01*
X142614861Y-124195416D02*
X142614861Y-123039716D01*
X142890028Y-123039716D01*
X143055128Y-123094750D01*
X143165195Y-123204816D01*
X143220228Y-123314883D01*
X143275261Y-123535016D01*
X143275261Y-123700116D01*
X143220228Y-123920250D01*
X143165195Y-124030316D01*
X143055128Y-124140383D01*
X142890028Y-124195416D01*
X142614861Y-124195416D01*
X144265861Y-123424950D02*
X144265861Y-124195416D01*
X143990695Y-122984683D02*
X143715528Y-123810183D01*
X144430961Y-123810183D01*
X145091361Y-123039716D02*
X145201428Y-123039716D01*
X145311495Y-123094750D01*
X145366528Y-123149783D01*
X145421561Y-123259850D01*
X145476595Y-123479983D01*
X145476595Y-123755150D01*
X145421561Y-123975283D01*
X145366528Y-124085350D01*
X145311495Y-124140383D01*
X145201428Y-124195416D01*
X145091361Y-124195416D01*
X144981295Y-124140383D01*
X144926261Y-124085350D01*
X144871228Y-123975283D01*
X144816195Y-123755150D01*
X144816195Y-123479983D01*
X144871228Y-123259850D01*
X144926261Y-123149783D01*
X144981295Y-123094750D01*
X145091361Y-123039716D01*
%TO.C,PAD41*%
X140468561Y-126735416D02*
X140468561Y-125579716D01*
X140908828Y-125579716D01*
X141018895Y-125634750D01*
X141073928Y-125689783D01*
X141128961Y-125799850D01*
X141128961Y-125964950D01*
X141073928Y-126075016D01*
X141018895Y-126130050D01*
X140908828Y-126185083D01*
X140468561Y-126185083D01*
X141569228Y-126405216D02*
X142119561Y-126405216D01*
X141459161Y-126735416D02*
X141844395Y-125579716D01*
X142229628Y-126735416D01*
X142614861Y-126735416D02*
X142614861Y-125579716D01*
X142890028Y-125579716D01*
X143055128Y-125634750D01*
X143165195Y-125744816D01*
X143220228Y-125854883D01*
X143275261Y-126075016D01*
X143275261Y-126240116D01*
X143220228Y-126460250D01*
X143165195Y-126570316D01*
X143055128Y-126680383D01*
X142890028Y-126735416D01*
X142614861Y-126735416D01*
X144265861Y-125964950D02*
X144265861Y-126735416D01*
X143990695Y-125524683D02*
X143715528Y-126350183D01*
X144430961Y-126350183D01*
X145476595Y-126735416D02*
X144816195Y-126735416D01*
X145146395Y-126735416D02*
X145146395Y-125579716D01*
X145036328Y-125744816D01*
X144926261Y-125854883D01*
X144816195Y-125909916D01*
D15*
%TO.C,R1*%
X148682925Y-123851801D02*
X148382443Y-123422541D01*
X148167813Y-123851801D02*
X148167813Y-122950355D01*
X148511221Y-122950355D01*
X148597073Y-122993281D01*
X148639999Y-123036207D01*
X148682925Y-123122059D01*
X148682925Y-123250837D01*
X148639999Y-123336689D01*
X148597073Y-123379615D01*
X148511221Y-123422541D01*
X148167813Y-123422541D01*
X149541445Y-123851801D02*
X149026333Y-123851801D01*
X149283889Y-123851801D02*
X149283889Y-122950355D01*
X149198037Y-123079133D01*
X149112185Y-123164985D01*
X149026333Y-123207911D01*
%TO.C,R2*%
X145478792Y-126340997D02*
X145178310Y-125911737D01*
X144963680Y-126340997D02*
X144963680Y-125439551D01*
X145307088Y-125439551D01*
X145392940Y-125482477D01*
X145435866Y-125525403D01*
X145478792Y-125611255D01*
X145478792Y-125740033D01*
X145435866Y-125825885D01*
X145392940Y-125868811D01*
X145307088Y-125911737D01*
X144963680Y-125911737D01*
X145822200Y-125525403D02*
X145865126Y-125482477D01*
X145950978Y-125439551D01*
X146165608Y-125439551D01*
X146251460Y-125482477D01*
X146294386Y-125525403D01*
X146337312Y-125611255D01*
X146337312Y-125697107D01*
X146294386Y-125825885D01*
X145779274Y-126340997D01*
X146337312Y-126340997D01*
%TO.C,R3*%
X145478792Y-123800997D02*
X145178310Y-123371737D01*
X144963680Y-123800997D02*
X144963680Y-122899551D01*
X145307088Y-122899551D01*
X145392940Y-122942477D01*
X145435866Y-122985403D01*
X145478792Y-123071255D01*
X145478792Y-123200033D01*
X145435866Y-123285885D01*
X145392940Y-123328811D01*
X145307088Y-123371737D01*
X144963680Y-123371737D01*
X145779274Y-122899551D02*
X146337312Y-122899551D01*
X146036830Y-123242959D01*
X146165608Y-123242959D01*
X146251460Y-123285885D01*
X146294386Y-123328811D01*
X146337312Y-123414663D01*
X146337312Y-123629293D01*
X146294386Y-123715145D01*
X146251460Y-123758071D01*
X146165608Y-123800997D01*
X145908052Y-123800997D01*
X145822200Y-123758071D01*
X145779274Y-123715145D01*
%TO.C,R4*%
X155284297Y-121966774D02*
X154855037Y-122267256D01*
X155284297Y-122481886D02*
X154382851Y-122481886D01*
X154382851Y-122138478D01*
X154425777Y-122052626D01*
X154468703Y-122009700D01*
X154554555Y-121966774D01*
X154683333Y-121966774D01*
X154769185Y-122009700D01*
X154812111Y-122052626D01*
X154855037Y-122138478D01*
X154855037Y-122481886D01*
X154683333Y-121194106D02*
X155284297Y-121194106D01*
X154339925Y-121408736D02*
X154983815Y-121623366D01*
X154983815Y-121065328D01*
D16*
%TO.C,P1*%
X125213238Y-101947717D02*
X124036710Y-101947717D01*
X124036710Y-101499516D01*
X124092736Y-101387466D01*
X124148761Y-101331440D01*
X124260811Y-101275415D01*
X124428886Y-101275415D01*
X124540937Y-101331440D01*
X124596962Y-101387466D01*
X124652987Y-101499516D01*
X124652987Y-101947717D01*
X125213238Y-100154912D02*
X125213238Y-100827214D01*
X125213238Y-100491063D02*
X124036710Y-100491063D01*
X124204786Y-100603114D01*
X124316836Y-100715164D01*
X124372861Y-100827214D01*
D17*
X131625361Y-97432250D02*
X131625361Y-98099907D01*
X131625361Y-97766079D02*
X130456961Y-97766079D01*
X130623876Y-97877355D01*
X130735152Y-97988631D01*
X130790790Y-98099907D01*
D16*
%TO.C,P2*%
X125213238Y-115917717D02*
X124036710Y-115917717D01*
X124036710Y-115469516D01*
X124092736Y-115357466D01*
X124148761Y-115301440D01*
X124260811Y-115245415D01*
X124428886Y-115245415D01*
X124540937Y-115301440D01*
X124596962Y-115357466D01*
X124652987Y-115469516D01*
X124652987Y-115917717D01*
X124148761Y-114797214D02*
X124092736Y-114741189D01*
X124036710Y-114629139D01*
X124036710Y-114349013D01*
X124092736Y-114236963D01*
X124148761Y-114180938D01*
X124260811Y-114124912D01*
X124372861Y-114124912D01*
X124540937Y-114180938D01*
X125213238Y-114853239D01*
X125213238Y-114124912D01*
D17*
X131625361Y-111402250D02*
X131625361Y-112069907D01*
X131625361Y-111736079D02*
X130456961Y-111736079D01*
X130623876Y-111847355D01*
X130735152Y-111958631D01*
X130790790Y-112069907D01*
D16*
%TO.C,P3*%
X167123238Y-115917717D02*
X165946710Y-115917717D01*
X165946710Y-115469516D01*
X166002736Y-115357466D01*
X166058761Y-115301440D01*
X166170811Y-115245415D01*
X166338886Y-115245415D01*
X166450937Y-115301440D01*
X166506962Y-115357466D01*
X166562987Y-115469516D01*
X166562987Y-115917717D01*
X165946710Y-114853239D02*
X165946710Y-114124912D01*
X166394912Y-114517088D01*
X166394912Y-114349013D01*
X166450937Y-114236963D01*
X166506962Y-114180938D01*
X166619012Y-114124912D01*
X166899138Y-114124912D01*
X167011188Y-114180938D01*
X167067213Y-114236963D01*
X167123238Y-114349013D01*
X167123238Y-114685164D01*
X167067213Y-114797214D01*
X167011188Y-114853239D01*
D17*
X173535361Y-111402250D02*
X173535361Y-112069907D01*
X173535361Y-111736079D02*
X172366961Y-111736079D01*
X172533876Y-111847355D01*
X172645152Y-111958631D01*
X172700790Y-112069907D01*
D16*
%TO.C,P4*%
X167123238Y-101947717D02*
X165946710Y-101947717D01*
X165946710Y-101499516D01*
X166002736Y-101387466D01*
X166058761Y-101331440D01*
X166170811Y-101275415D01*
X166338886Y-101275415D01*
X166450937Y-101331440D01*
X166506962Y-101387466D01*
X166562987Y-101499516D01*
X166562987Y-101947717D01*
X166338886Y-100266963D02*
X167123238Y-100266963D01*
X165890685Y-100547088D02*
X166731062Y-100827214D01*
X166731062Y-100098887D01*
D17*
X173535361Y-97432250D02*
X173535361Y-98099907D01*
X173535361Y-97766079D02*
X172366961Y-97766079D01*
X172533876Y-97877355D01*
X172645152Y-97988631D01*
X172700790Y-98099907D01*
D15*
%TO.C,R5*%
X169203497Y-123900907D02*
X168774237Y-124201389D01*
X169203497Y-124416019D02*
X168302051Y-124416019D01*
X168302051Y-124072611D01*
X168344977Y-123986759D01*
X168387903Y-123943833D01*
X168473755Y-123900907D01*
X168602533Y-123900907D01*
X168688385Y-123943833D01*
X168731311Y-123986759D01*
X168774237Y-124072611D01*
X168774237Y-124416019D01*
X168302051Y-123085313D02*
X168302051Y-123514573D01*
X168731311Y-123557499D01*
X168688385Y-123514573D01*
X168645459Y-123428721D01*
X168645459Y-123214091D01*
X168688385Y-123128239D01*
X168731311Y-123085313D01*
X168817163Y-123042387D01*
X169031793Y-123042387D01*
X169117645Y-123085313D01*
X169160571Y-123128239D01*
X169203497Y-123214091D01*
X169203497Y-123428721D01*
X169160571Y-123514573D01*
X169117645Y-123557499D01*
D11*
%TO.C,SP1*%
X158955528Y-117536383D02*
X159120628Y-117591416D01*
X159395795Y-117591416D01*
X159505861Y-117536383D01*
X159560895Y-117481350D01*
X159615928Y-117371283D01*
X159615928Y-117261216D01*
X159560895Y-117151150D01*
X159505861Y-117096116D01*
X159395795Y-117041083D01*
X159175661Y-116986050D01*
X159065595Y-116931016D01*
X159010561Y-116875983D01*
X158955528Y-116765916D01*
X158955528Y-116655850D01*
X159010561Y-116545783D01*
X159065595Y-116490750D01*
X159175661Y-116435716D01*
X159450828Y-116435716D01*
X159615928Y-116490750D01*
X160111228Y-117591416D02*
X160111228Y-116435716D01*
X160551495Y-116435716D01*
X160661561Y-116490750D01*
X160716595Y-116545783D01*
X160771628Y-116655850D01*
X160771628Y-116820950D01*
X160716595Y-116931016D01*
X160661561Y-116986050D01*
X160551495Y-117041083D01*
X160111228Y-117041083D01*
X161872295Y-117591416D02*
X161211895Y-117591416D01*
X161542095Y-117591416D02*
X161542095Y-116435716D01*
X161432028Y-116600816D01*
X161321961Y-116710883D01*
X161211895Y-116765916D01*
D18*
%TO.C,Q1*%
X134919531Y-119978412D02*
X134874711Y-120068052D01*
X134785070Y-120157692D01*
X134650610Y-120292153D01*
X134605790Y-120381793D01*
X134605790Y-120471433D01*
X134829890Y-120426613D02*
X134785070Y-120516253D01*
X134695430Y-120605893D01*
X134516150Y-120650713D01*
X134202409Y-120650713D01*
X134023129Y-120605893D01*
X133933489Y-120516253D01*
X133888668Y-120426613D01*
X133888668Y-120247333D01*
X133933489Y-120157692D01*
X134023129Y-120068052D01*
X134202409Y-120023232D01*
X134516150Y-120023232D01*
X134695430Y-120068052D01*
X134785070Y-120157692D01*
X134829890Y-120247333D01*
X134829890Y-120426613D01*
X134829890Y-119126830D02*
X134829890Y-119664671D01*
X134829890Y-119395751D02*
X133888668Y-119395751D01*
X134023129Y-119485391D01*
X134112769Y-119575031D01*
X134157589Y-119664671D01*
D19*
%TO.C,PAD1*%
X164249100Y-107670600D02*
X164249100Y-107416600D01*
X164503100Y-107670600D02*
X164249100Y-107670600D01*
X165773100Y-107670600D02*
X165519100Y-107670600D01*
X165773100Y-107416600D02*
X165773100Y-107670600D01*
X165773100Y-106146600D02*
X165519100Y-106146600D01*
X165773100Y-106146600D02*
X165773100Y-106400600D01*
X164249100Y-106146600D02*
X164249100Y-106400600D01*
X164249100Y-106146600D02*
X164503100Y-106146600D01*
%TO.C,PAD10*%
X160439100Y-108940600D02*
X160439100Y-108686600D01*
X160693100Y-108940600D02*
X160439100Y-108940600D01*
X161963100Y-108940600D02*
X161709100Y-108940600D01*
X161963100Y-108686600D02*
X161963100Y-108940600D01*
X161963100Y-107416600D02*
X161709100Y-107416600D01*
X161963100Y-107416600D02*
X161963100Y-107670600D01*
X160439100Y-107416600D02*
X160439100Y-107670600D01*
X160439100Y-107416600D02*
X160693100Y-107416600D01*
%TO.C,PAD11*%
X160439100Y-106400600D02*
X160439100Y-106146600D01*
X160693100Y-106400600D02*
X160439100Y-106400600D01*
X161963100Y-106400600D02*
X161709100Y-106400600D01*
X161963100Y-106146600D02*
X161963100Y-106400600D01*
X161963100Y-104876600D02*
X161709100Y-104876600D01*
X161963100Y-104876600D02*
X161963100Y-105130600D01*
X160439100Y-104876600D02*
X160439100Y-105130600D01*
X160439100Y-104876600D02*
X160693100Y-104876600D01*
%TO.C,PAD12*%
X160439100Y-103860600D02*
X160439100Y-103606600D01*
X160693100Y-103860600D02*
X160439100Y-103860600D01*
X161963100Y-103860600D02*
X161709100Y-103860600D01*
X161963100Y-103606600D02*
X161963100Y-103860600D01*
X161963100Y-102336600D02*
X161709100Y-102336600D01*
X161963100Y-102336600D02*
X161963100Y-102590600D01*
X160439100Y-102336600D02*
X160439100Y-102590600D01*
X160439100Y-102336600D02*
X160693100Y-102336600D01*
%TO.C,PAD13*%
X160439100Y-101320600D02*
X160439100Y-101066600D01*
X160693100Y-101320600D02*
X160439100Y-101320600D01*
X161963100Y-101320600D02*
X161709100Y-101320600D01*
X161963100Y-101066600D02*
X161963100Y-101320600D01*
X161963100Y-99796600D02*
X161709100Y-99796600D01*
X161963100Y-99796600D02*
X161963100Y-100050600D01*
X160439100Y-99796600D02*
X160439100Y-100050600D01*
X160439100Y-99796600D02*
X160693100Y-99796600D01*
%TO.C,PAD14*%
X160439100Y-98780600D02*
X160439100Y-98526600D01*
X160693100Y-98780600D02*
X160439100Y-98780600D01*
X161963100Y-98780600D02*
X161709100Y-98780600D01*
X161963100Y-98526600D02*
X161963100Y-98780600D01*
X161963100Y-97256600D02*
X161709100Y-97256600D01*
X161963100Y-97256600D02*
X161963100Y-97510600D01*
X160439100Y-97256600D02*
X160439100Y-97510600D01*
X160439100Y-97256600D02*
X160693100Y-97256600D01*
%TO.C,PAD15*%
X136309100Y-114020600D02*
X136309100Y-113766600D01*
X136563100Y-114020600D02*
X136309100Y-114020600D01*
X137833100Y-114020600D02*
X137579100Y-114020600D01*
X137833100Y-113766600D02*
X137833100Y-114020600D01*
X137833100Y-112496600D02*
X137579100Y-112496600D01*
X137833100Y-112496600D02*
X137833100Y-112750600D01*
X136309100Y-112496600D02*
X136309100Y-112750600D01*
X136309100Y-112496600D02*
X136563100Y-112496600D01*
%TO.C,PAD16*%
X136309100Y-111480600D02*
X136309100Y-111226600D01*
X136563100Y-111480600D02*
X136309100Y-111480600D01*
X137833100Y-111480600D02*
X137579100Y-111480600D01*
X137833100Y-111226600D02*
X137833100Y-111480600D01*
X137833100Y-109956600D02*
X137579100Y-109956600D01*
X137833100Y-109956600D02*
X137833100Y-110210600D01*
X136309100Y-109956600D02*
X136309100Y-110210600D01*
X136309100Y-109956600D02*
X136563100Y-109956600D01*
%TO.C,PAD17*%
X136309100Y-108940600D02*
X136309100Y-108686600D01*
X136563100Y-108940600D02*
X136309100Y-108940600D01*
X137833100Y-108940600D02*
X137579100Y-108940600D01*
X137833100Y-108686600D02*
X137833100Y-108940600D01*
X137833100Y-107416600D02*
X137579100Y-107416600D01*
X137833100Y-107416600D02*
X137833100Y-107670600D01*
X136309100Y-107416600D02*
X136309100Y-107670600D01*
X136309100Y-107416600D02*
X136563100Y-107416600D01*
%TO.C,PAD18*%
X136309100Y-106400600D02*
X136309100Y-106146600D01*
X136563100Y-106400600D02*
X136309100Y-106400600D01*
X137833100Y-106400600D02*
X137579100Y-106400600D01*
X137833100Y-106146600D02*
X137833100Y-106400600D01*
X137833100Y-104876600D02*
X137579100Y-104876600D01*
X137833100Y-104876600D02*
X137833100Y-105130600D01*
X136309100Y-104876600D02*
X136309100Y-105130600D01*
X136309100Y-104876600D02*
X136563100Y-104876600D01*
%TO.C,PAD19*%
X136309100Y-103860600D02*
X136309100Y-103606600D01*
X136563100Y-103860600D02*
X136309100Y-103860600D01*
X137833100Y-103860600D02*
X137579100Y-103860600D01*
X137833100Y-103606600D02*
X137833100Y-103860600D01*
X137833100Y-102336600D02*
X137579100Y-102336600D01*
X137833100Y-102336600D02*
X137833100Y-102590600D01*
X136309100Y-102336600D02*
X136309100Y-102590600D01*
X136309100Y-102336600D02*
X136563100Y-102336600D01*
%TO.C,PAD2*%
X164249100Y-105130600D02*
X164249100Y-104876600D01*
X164503100Y-105130600D02*
X164249100Y-105130600D01*
X165773100Y-105130600D02*
X165519100Y-105130600D01*
X165773100Y-104876600D02*
X165773100Y-105130600D01*
X165773100Y-103606600D02*
X165519100Y-103606600D01*
X165773100Y-103606600D02*
X165773100Y-103860600D01*
X164249100Y-103606600D02*
X164249100Y-103860600D01*
X164249100Y-103606600D02*
X164503100Y-103606600D01*
%TO.C,PAD20*%
X136309100Y-101320600D02*
X136309100Y-101066600D01*
X136563100Y-101320600D02*
X136309100Y-101320600D01*
X137833100Y-101320600D02*
X137579100Y-101320600D01*
X137833100Y-101066600D02*
X137833100Y-101320600D01*
X137833100Y-99796600D02*
X137579100Y-99796600D01*
X137833100Y-99796600D02*
X137833100Y-100050600D01*
X136309100Y-99796600D02*
X136309100Y-100050600D01*
X136309100Y-99796600D02*
X136563100Y-99796600D01*
%TO.C,PAD21*%
X136309100Y-98780600D02*
X136309100Y-98526600D01*
X136563100Y-98780600D02*
X136309100Y-98780600D01*
X137833100Y-98780600D02*
X137579100Y-98780600D01*
X137833100Y-98526600D02*
X137833100Y-98780600D01*
X137833100Y-97256600D02*
X137579100Y-97256600D01*
X137833100Y-97256600D02*
X137833100Y-97510600D01*
X136309100Y-97256600D02*
X136309100Y-97510600D01*
X136309100Y-97256600D02*
X136563100Y-97256600D01*
%TO.C,PAD22*%
X131229100Y-108940600D02*
X131229100Y-108686600D01*
X131483100Y-108940600D02*
X131229100Y-108940600D01*
X132753100Y-108940600D02*
X132499100Y-108940600D01*
X132753100Y-108686600D02*
X132753100Y-108940600D01*
X132753100Y-107416600D02*
X132499100Y-107416600D01*
X132753100Y-107416600D02*
X132753100Y-107670600D01*
X131229100Y-107416600D02*
X131229100Y-107670600D01*
X131229100Y-107416600D02*
X131483100Y-107416600D01*
%TO.C,PAD23*%
X131229100Y-106400600D02*
X131229100Y-106146600D01*
X131483100Y-106400600D02*
X131229100Y-106400600D01*
X132753100Y-106400600D02*
X132499100Y-106400600D01*
X132753100Y-106146600D02*
X132753100Y-106400600D01*
X132753100Y-104876600D02*
X132499100Y-104876600D01*
X132753100Y-104876600D02*
X132753100Y-105130600D01*
X131229100Y-104876600D02*
X131229100Y-105130600D01*
X131229100Y-104876600D02*
X131483100Y-104876600D01*
%TO.C,PAD24*%
X131229100Y-103860600D02*
X131229100Y-103606600D01*
X131483100Y-103860600D02*
X131229100Y-103860600D01*
X132753100Y-103860600D02*
X132499100Y-103860600D01*
X132753100Y-103606600D02*
X132753100Y-103860600D01*
X132753100Y-102336600D02*
X132499100Y-102336600D01*
X132753100Y-102336600D02*
X132753100Y-102590600D01*
X131229100Y-102336600D02*
X131229100Y-102590600D01*
X131229100Y-102336600D02*
X131483100Y-102336600D01*
%TO.C,PAD25*%
X131229100Y-101320600D02*
X131229100Y-101066600D01*
X131483100Y-101320600D02*
X131229100Y-101320600D01*
X132753100Y-101320600D02*
X132499100Y-101320600D01*
X132753100Y-101066600D02*
X132753100Y-101320600D01*
X132753100Y-99796600D02*
X132499100Y-99796600D01*
X132753100Y-99796600D02*
X132753100Y-100050600D01*
X131229100Y-99796600D02*
X131229100Y-100050600D01*
X131229100Y-99796600D02*
X131483100Y-99796600D01*
%TO.C,PAD26*%
X131229100Y-98780600D02*
X131229100Y-98526600D01*
X131483100Y-98780600D02*
X131229100Y-98780600D01*
X132753100Y-98780600D02*
X132499100Y-98780600D01*
X132753100Y-98526600D02*
X132753100Y-98780600D01*
X132753100Y-97256600D02*
X132499100Y-97256600D01*
X132753100Y-97256600D02*
X132753100Y-97510600D01*
X131229100Y-97256600D02*
X131229100Y-97510600D01*
X131229100Y-97256600D02*
X131483100Y-97256600D01*
%TO.C,PAD27*%
X131229100Y-96240600D02*
X131229100Y-95986600D01*
X131483100Y-96240600D02*
X131229100Y-96240600D01*
X132753100Y-96240600D02*
X132499100Y-96240600D01*
X132753100Y-95986600D02*
X132753100Y-96240600D01*
X132753100Y-94716600D02*
X132499100Y-94716600D01*
X132753100Y-94716600D02*
X132753100Y-94970600D01*
X131229100Y-94716600D02*
X131229100Y-94970600D01*
X131229100Y-94716600D02*
X131483100Y-94716600D01*
%TO.C,PAD28*%
X131229100Y-93700600D02*
X131229100Y-93446600D01*
X131483100Y-93700600D02*
X131229100Y-93700600D01*
X132753100Y-93700600D02*
X132499100Y-93700600D01*
X132753100Y-93446600D02*
X132753100Y-93700600D01*
X132753100Y-92176600D02*
X132499100Y-92176600D01*
X132753100Y-92176600D02*
X132753100Y-92430600D01*
X131229100Y-92176600D02*
X131229100Y-92430600D01*
X131229100Y-92176600D02*
X131483100Y-92176600D01*
%TO.C,PAD3*%
X164249100Y-102590600D02*
X164249100Y-102336600D01*
X164503100Y-102590600D02*
X164249100Y-102590600D01*
X165773100Y-102590600D02*
X165519100Y-102590600D01*
X165773100Y-102336600D02*
X165773100Y-102590600D01*
X165773100Y-101066600D02*
X165519100Y-101066600D01*
X165773100Y-101066600D02*
X165773100Y-101320600D01*
X164249100Y-101066600D02*
X164249100Y-101320600D01*
X164249100Y-101066600D02*
X164503100Y-101066600D01*
%TO.C,PAD37*%
X132499100Y-83540600D02*
X132499100Y-83286600D01*
X132753100Y-83540600D02*
X132499100Y-83540600D01*
X134023100Y-83540600D02*
X133769100Y-83540600D01*
X134023100Y-83286600D02*
X134023100Y-83540600D01*
X134023100Y-82016600D02*
X133769100Y-82016600D01*
X134023100Y-82016600D02*
X134023100Y-82270600D01*
X132499100Y-82016600D02*
X132499100Y-82270600D01*
X132499100Y-82016600D02*
X132753100Y-82016600D01*
%TO.C,PAD38*%
X129959100Y-83540600D02*
X129959100Y-83286600D01*
X130213100Y-83540600D02*
X129959100Y-83540600D01*
X131483100Y-83540600D02*
X131229100Y-83540600D01*
X131483100Y-83286600D02*
X131483100Y-83540600D01*
X131483100Y-82016600D02*
X131229100Y-82016600D01*
X131483100Y-82016600D02*
X131483100Y-82270600D01*
X129959100Y-82016600D02*
X129959100Y-82270600D01*
X129959100Y-82016600D02*
X130213100Y-82016600D01*
%TO.C,PAD4*%
X164249100Y-100050600D02*
X164249100Y-99796600D01*
X164503100Y-100050600D02*
X164249100Y-100050600D01*
X165773100Y-100050600D02*
X165519100Y-100050600D01*
X165773100Y-99796600D02*
X165773100Y-100050600D01*
X165773100Y-98526600D02*
X165519100Y-98526600D01*
X165773100Y-98526600D02*
X165773100Y-98780600D01*
X164249100Y-98526600D02*
X164249100Y-98780600D01*
X164249100Y-98526600D02*
X164503100Y-98526600D01*
%TO.C,PAD5*%
X164249100Y-97510600D02*
X164249100Y-97256600D01*
X164503100Y-97510600D02*
X164249100Y-97510600D01*
X165773100Y-97510600D02*
X165519100Y-97510600D01*
X165773100Y-97256600D02*
X165773100Y-97510600D01*
X165773100Y-95986600D02*
X165519100Y-95986600D01*
X165773100Y-95986600D02*
X165773100Y-96240600D01*
X164249100Y-95986600D02*
X164249100Y-96240600D01*
X164249100Y-95986600D02*
X164503100Y-95986600D01*
%TO.C,PAD6*%
X164249100Y-94970600D02*
X164249100Y-94716600D01*
X164503100Y-94970600D02*
X164249100Y-94970600D01*
X165773100Y-94970600D02*
X165519100Y-94970600D01*
X165773100Y-94716600D02*
X165773100Y-94970600D01*
X165773100Y-93446600D02*
X165519100Y-93446600D01*
X165773100Y-93446600D02*
X165773100Y-93700600D01*
X164249100Y-93446600D02*
X164249100Y-93700600D01*
X164249100Y-93446600D02*
X164503100Y-93446600D01*
%TO.C,PAD7*%
X164249100Y-92430600D02*
X164249100Y-92176600D01*
X164503100Y-92430600D02*
X164249100Y-92430600D01*
X165773100Y-92430600D02*
X165519100Y-92430600D01*
X165773100Y-92176600D02*
X165773100Y-92430600D01*
X165773100Y-90906600D02*
X165519100Y-90906600D01*
X165773100Y-90906600D02*
X165773100Y-91160600D01*
X164249100Y-90906600D02*
X164249100Y-91160600D01*
X164249100Y-90906600D02*
X164503100Y-90906600D01*
%TO.C,PAD8*%
X160439100Y-114020600D02*
X160439100Y-113766600D01*
X160693100Y-114020600D02*
X160439100Y-114020600D01*
X161963100Y-114020600D02*
X161709100Y-114020600D01*
X161963100Y-113766600D02*
X161963100Y-114020600D01*
X161963100Y-112496600D02*
X161709100Y-112496600D01*
X161963100Y-112496600D02*
X161963100Y-112750600D01*
X160439100Y-112496600D02*
X160439100Y-112750600D01*
X160439100Y-112496600D02*
X160693100Y-112496600D01*
%TO.C,PAD9*%
X160439100Y-111480600D02*
X160439100Y-111226600D01*
X160693100Y-111480600D02*
X160439100Y-111480600D01*
X161963100Y-111480600D02*
X161709100Y-111480600D01*
X161963100Y-111226600D02*
X161963100Y-111480600D01*
X161963100Y-109956600D02*
X161709100Y-109956600D01*
X161963100Y-109956600D02*
X161963100Y-110210600D01*
X160439100Y-109956600D02*
X160439100Y-110210600D01*
X160439100Y-109956600D02*
X160693100Y-109956600D01*
%TO.C,U1*%
D20*
X138009100Y-90627600D02*
G75*
G03*
X138009100Y-90627600I-127000J0D01*
G01*
D21*
X143701100Y-94720600D02*
X143701100Y-87368600D01*
X153301100Y-94720600D02*
X143701100Y-94720600D01*
X153301100Y-87368600D02*
X153301100Y-94720600D01*
X143701100Y-87368600D02*
X153301100Y-87368600D01*
X139701100Y-88788600D02*
X139701100Y-109788600D01*
X157301100Y-88788600D02*
X139701100Y-88788600D01*
X157301100Y-109788600D02*
X157301100Y-88788600D01*
X139701100Y-109788600D02*
X157301100Y-109788600D01*
D20*
%TO.C,U2*%
X152946100Y-79603600D02*
X152946100Y-70713600D01*
X164376100Y-79603600D02*
X152946100Y-79603600D01*
X164376100Y-70713600D02*
X164376100Y-79603600D01*
X152946100Y-70713600D02*
X164376100Y-70713600D01*
D19*
%TO.C,PAD39*%
X140119100Y-122910600D02*
X140119100Y-122656600D01*
X140373100Y-122910600D02*
X140119100Y-122910600D01*
X141643100Y-122910600D02*
X141389100Y-122910600D01*
X141643100Y-122656600D02*
X141643100Y-122910600D01*
X141643100Y-121386600D02*
X141389100Y-121386600D01*
X141643100Y-121386600D02*
X141643100Y-121640600D01*
X140119100Y-121386600D02*
X140119100Y-121640600D01*
X140119100Y-121386600D02*
X140373100Y-121386600D01*
%TO.C,PAD40*%
X140119100Y-125450600D02*
X140119100Y-125196600D01*
X140373100Y-125450600D02*
X140119100Y-125450600D01*
X141643100Y-125450600D02*
X141389100Y-125450600D01*
X141643100Y-125196600D02*
X141643100Y-125450600D01*
X141643100Y-123926600D02*
X141389100Y-123926600D01*
X141643100Y-123926600D02*
X141643100Y-124180600D01*
X140119100Y-123926600D02*
X140119100Y-124180600D01*
X140119100Y-123926600D02*
X140373100Y-123926600D01*
%TO.C,PAD41*%
X140119100Y-127990600D02*
X140119100Y-127736600D01*
X140373100Y-127990600D02*
X140119100Y-127990600D01*
X141643100Y-127990600D02*
X141389100Y-127990600D01*
X141643100Y-127736600D02*
X141643100Y-127990600D01*
X141643100Y-126466600D02*
X141389100Y-126466600D01*
X141643100Y-126466600D02*
X141643100Y-126720600D01*
X140119100Y-126466600D02*
X140119100Y-126720600D01*
X140119100Y-126466600D02*
X140373100Y-126466600D01*
%TO.C,R1*%
G36*
X150152100Y-122402600D02*
G01*
X149771100Y-122402600D01*
X149771100Y-121894600D01*
X150152100Y-121894600D01*
X150152100Y-122402600D01*
G37*
G36*
X144691100Y-122402600D02*
G01*
X144310100Y-122402600D01*
X144310100Y-121894600D01*
X144691100Y-121894600D01*
X144691100Y-122402600D01*
G37*
X144691100Y-121386600D02*
X144691100Y-122910600D01*
X144945100Y-121132600D02*
X145326100Y-121132600D01*
X144945100Y-123164600D02*
X145326100Y-123164600D01*
X145453100Y-121259600D02*
X149009100Y-121259600D01*
X145453100Y-121259600D02*
X145326100Y-121132600D01*
X145453100Y-123037600D02*
X149009100Y-123037600D01*
X145453100Y-123037600D02*
X145326100Y-123164600D01*
X149009100Y-121259600D02*
X149136100Y-121132600D01*
X149517100Y-121132600D02*
X149136100Y-121132600D01*
X149009100Y-123037600D02*
X149136100Y-123164600D01*
X149517100Y-123164600D02*
X149136100Y-123164600D01*
X149771100Y-121386600D02*
X149771100Y-122910600D01*
X144691100Y-122910600D02*
G75*
G03*
X144945100Y-123164600I254000J0D01*
G01*
X144945100Y-121132600D02*
G75*
G03*
X144691100Y-121386600I0J-254000D01*
G01*
X149771100Y-121386600D02*
G75*
G03*
X149517100Y-121132600I-254000J0D01*
G01*
X149517100Y-123164600D02*
G75*
G03*
X149771100Y-122910600I0J254000D01*
G01*
%TO.C,R2*%
G36*
X144691100Y-127482600D02*
G01*
X144310100Y-127482600D01*
X144310100Y-126974600D01*
X144691100Y-126974600D01*
X144691100Y-127482600D01*
G37*
G36*
X150152100Y-127482600D02*
G01*
X149771100Y-127482600D01*
X149771100Y-126974600D01*
X150152100Y-126974600D01*
X150152100Y-127482600D01*
G37*
X149771100Y-127990600D02*
X149771100Y-126466600D01*
X149517100Y-128244600D02*
X149136100Y-128244600D01*
X149517100Y-126212600D02*
X149136100Y-126212600D01*
X149009100Y-128117600D02*
X145453100Y-128117600D01*
X149009100Y-128117600D02*
X149136100Y-128244600D01*
X149009100Y-126339600D02*
X145453100Y-126339600D01*
X149009100Y-126339600D02*
X149136100Y-126212600D01*
X145453100Y-128117600D02*
X145326100Y-128244600D01*
X144945100Y-128244600D02*
X145326100Y-128244600D01*
X145453100Y-126339600D02*
X145326100Y-126212600D01*
X144945100Y-126212600D02*
X145326100Y-126212600D01*
X144691100Y-127990600D02*
X144691100Y-126466600D01*
X149771100Y-126466600D02*
G75*
G03*
X149517100Y-126212600I-254000J0D01*
G01*
X149517100Y-128244600D02*
G75*
G03*
X149771100Y-127990600I0J254000D01*
G01*
X144691100Y-127990600D02*
G75*
G03*
X144945100Y-128244600I254000J0D01*
G01*
X144945100Y-126212600D02*
G75*
G03*
X144691100Y-126466600I0J-254000D01*
G01*
%TO.C,R3*%
G36*
X144691100Y-124942600D02*
G01*
X144310100Y-124942600D01*
X144310100Y-124434600D01*
X144691100Y-124434600D01*
X144691100Y-124942600D01*
G37*
G36*
X150152100Y-124942600D02*
G01*
X149771100Y-124942600D01*
X149771100Y-124434600D01*
X150152100Y-124434600D01*
X150152100Y-124942600D01*
G37*
X149771100Y-125450600D02*
X149771100Y-123926600D01*
X149517100Y-125704600D02*
X149136100Y-125704600D01*
X149517100Y-123672600D02*
X149136100Y-123672600D01*
X149009100Y-125577600D02*
X145453100Y-125577600D01*
X149009100Y-125577600D02*
X149136100Y-125704600D01*
X149009100Y-123799600D02*
X145453100Y-123799600D01*
X149009100Y-123799600D02*
X149136100Y-123672600D01*
X145453100Y-125577600D02*
X145326100Y-125704600D01*
X144945100Y-125704600D02*
X145326100Y-125704600D01*
X145453100Y-123799600D02*
X145326100Y-123672600D01*
X144945100Y-123672600D02*
X145326100Y-123672600D01*
X144691100Y-125450600D02*
X144691100Y-123926600D01*
X149771100Y-123926600D02*
G75*
G03*
X149517100Y-123672600I-254000J0D01*
G01*
X149517100Y-125704600D02*
G75*
G03*
X149771100Y-125450600I0J254000D01*
G01*
X144691100Y-125450600D02*
G75*
G03*
X144945100Y-125704600I254000J0D01*
G01*
X144945100Y-123672600D02*
G75*
G03*
X144691100Y-123926600I0J-254000D01*
G01*
%TO.C,R4*%
G36*
X153835100Y-120878600D02*
G01*
X153327100Y-120878600D01*
X153327100Y-120497600D01*
X153835100Y-120497600D01*
X153835100Y-120878600D01*
G37*
G36*
X153835100Y-126339600D02*
G01*
X153327100Y-126339600D01*
X153327100Y-125958600D01*
X153835100Y-125958600D01*
X153835100Y-126339600D01*
G37*
X152819100Y-125958600D02*
X154343100Y-125958600D01*
X152565100Y-125704600D02*
X152565100Y-125323600D01*
X154597100Y-125704600D02*
X154597100Y-125323600D01*
X152692100Y-125196600D02*
X152692100Y-121640600D01*
X152692100Y-125196600D02*
X152565100Y-125323600D01*
X154470100Y-125196600D02*
X154470100Y-121640600D01*
X154470100Y-125196600D02*
X154597100Y-125323600D01*
X152692100Y-121640600D02*
X152565100Y-121513600D01*
X152565100Y-121132600D02*
X152565100Y-121513600D01*
X154470100Y-121640600D02*
X154597100Y-121513600D01*
X154597100Y-121132600D02*
X154597100Y-121513600D01*
X152819100Y-120878600D02*
X154343100Y-120878600D01*
X154343100Y-125958600D02*
G75*
G03*
X154597100Y-125704600I0J254000D01*
G01*
X152565100Y-125704600D02*
G75*
G03*
X152819100Y-125958600I254000J0D01*
G01*
X152819100Y-120878600D02*
G75*
G03*
X152565100Y-121132600I0J-254000D01*
G01*
X154597100Y-121132600D02*
G75*
G03*
X154343100Y-120878600I-254000J0D01*
G01*
D21*
%TO.C,P1*%
X129281100Y-99688600D02*
X129881100Y-99688600D01*
X129281100Y-98888600D02*
X129881100Y-98888600D01*
X129281100Y-98888600D02*
X129281100Y-96938600D01*
X128481100Y-96938600D02*
X128481100Y-96338600D01*
X127581100Y-96938600D02*
X127581100Y-96338600D01*
X127581100Y-102238600D02*
X127581100Y-101638600D01*
X128481100Y-102238600D02*
X128481100Y-101638600D01*
X128481100Y-96938600D02*
X129281100Y-96938600D01*
X127581100Y-96938600D02*
X128481100Y-96938600D01*
X125981100Y-96938600D02*
X127581100Y-96938600D01*
X129281100Y-101638600D02*
X129281100Y-99688600D01*
X128481100Y-101638600D02*
X129281100Y-101638600D01*
X127581100Y-101638600D02*
X128481100Y-101638600D01*
X125981100Y-101638600D02*
X127581100Y-101638600D01*
X125981100Y-101638600D02*
X125981100Y-96938600D01*
X128481100Y-102238600D02*
X129881100Y-102238600D01*
X127581100Y-102238600D02*
X128481100Y-102238600D01*
X125381100Y-102238600D02*
X127581100Y-102238600D01*
X128481100Y-96338600D02*
X129881100Y-96338600D01*
X127581100Y-96338600D02*
X128481100Y-96338600D01*
X125381100Y-96338600D02*
X127581100Y-96338600D01*
X125381100Y-102238600D02*
X125381100Y-96338600D01*
X129881100Y-98888600D02*
X129881100Y-96338600D01*
X129881100Y-99688600D02*
X129881100Y-98888600D01*
X129881100Y-102238600D02*
X129881100Y-99688600D01*
%TO.C,P2*%
X129281100Y-113658600D02*
X129881100Y-113658600D01*
X129281100Y-112858600D02*
X129881100Y-112858600D01*
X129281100Y-112858600D02*
X129281100Y-110908600D01*
X128481100Y-110908600D02*
X128481100Y-110308600D01*
X127581100Y-110908600D02*
X127581100Y-110308600D01*
X127581100Y-116208600D02*
X127581100Y-115608600D01*
X128481100Y-116208600D02*
X128481100Y-115608600D01*
X128481100Y-110908600D02*
X129281100Y-110908600D01*
X127581100Y-110908600D02*
X128481100Y-110908600D01*
X125981100Y-110908600D02*
X127581100Y-110908600D01*
X129281100Y-115608600D02*
X129281100Y-113658600D01*
X128481100Y-115608600D02*
X129281100Y-115608600D01*
X127581100Y-115608600D02*
X128481100Y-115608600D01*
X125981100Y-115608600D02*
X127581100Y-115608600D01*
X125981100Y-115608600D02*
X125981100Y-110908600D01*
X128481100Y-116208600D02*
X129881100Y-116208600D01*
X127581100Y-116208600D02*
X128481100Y-116208600D01*
X125381100Y-116208600D02*
X127581100Y-116208600D01*
X128481100Y-110308600D02*
X129881100Y-110308600D01*
X127581100Y-110308600D02*
X128481100Y-110308600D01*
X125381100Y-110308600D02*
X127581100Y-110308600D01*
X125381100Y-116208600D02*
X125381100Y-110308600D01*
X129881100Y-112858600D02*
X129881100Y-110308600D01*
X129881100Y-113658600D02*
X129881100Y-112858600D01*
X129881100Y-116208600D02*
X129881100Y-113658600D01*
%TO.C,P3*%
X171191100Y-113658600D02*
X171791100Y-113658600D01*
X171191100Y-112858600D02*
X171791100Y-112858600D01*
X171191100Y-112858600D02*
X171191100Y-110908600D01*
X170391100Y-110908600D02*
X170391100Y-110308600D01*
X169491100Y-110908600D02*
X169491100Y-110308600D01*
X169491100Y-116208600D02*
X169491100Y-115608600D01*
X170391100Y-116208600D02*
X170391100Y-115608600D01*
X170391100Y-110908600D02*
X171191100Y-110908600D01*
X169491100Y-110908600D02*
X170391100Y-110908600D01*
X167891100Y-110908600D02*
X169491100Y-110908600D01*
X171191100Y-115608600D02*
X171191100Y-113658600D01*
X170391100Y-115608600D02*
X171191100Y-115608600D01*
X169491100Y-115608600D02*
X170391100Y-115608600D01*
X167891100Y-115608600D02*
X169491100Y-115608600D01*
X167891100Y-115608600D02*
X167891100Y-110908600D01*
X170391100Y-116208600D02*
X171791100Y-116208600D01*
X169491100Y-116208600D02*
X170391100Y-116208600D01*
X167291100Y-116208600D02*
X169491100Y-116208600D01*
X170391100Y-110308600D02*
X171791100Y-110308600D01*
X169491100Y-110308600D02*
X170391100Y-110308600D01*
X167291100Y-110308600D02*
X169491100Y-110308600D01*
X167291100Y-116208600D02*
X167291100Y-110308600D01*
X171791100Y-112858600D02*
X171791100Y-110308600D01*
X171791100Y-113658600D02*
X171791100Y-112858600D01*
X171791100Y-116208600D02*
X171791100Y-113658600D01*
%TO.C,P4*%
X171191100Y-99688600D02*
X171791100Y-99688600D01*
X171191100Y-98888600D02*
X171791100Y-98888600D01*
X171191100Y-98888600D02*
X171191100Y-96938600D01*
X170391100Y-96938600D02*
X170391100Y-96338600D01*
X169491100Y-96938600D02*
X169491100Y-96338600D01*
X169491100Y-102238600D02*
X169491100Y-101638600D01*
X170391100Y-102238600D02*
X170391100Y-101638600D01*
X170391100Y-96938600D02*
X171191100Y-96938600D01*
X169491100Y-96938600D02*
X170391100Y-96938600D01*
X167891100Y-96938600D02*
X169491100Y-96938600D01*
X171191100Y-101638600D02*
X171191100Y-99688600D01*
X170391100Y-101638600D02*
X171191100Y-101638600D01*
X169491100Y-101638600D02*
X170391100Y-101638600D01*
X167891100Y-101638600D02*
X169491100Y-101638600D01*
X167891100Y-101638600D02*
X167891100Y-96938600D01*
X170391100Y-102238600D02*
X171791100Y-102238600D01*
X169491100Y-102238600D02*
X170391100Y-102238600D01*
X167291100Y-102238600D02*
X169491100Y-102238600D01*
X170391100Y-96338600D02*
X171791100Y-96338600D01*
X169491100Y-96338600D02*
X170391100Y-96338600D01*
X167291100Y-96338600D02*
X169491100Y-96338600D01*
X167291100Y-102238600D02*
X167291100Y-96338600D01*
X171791100Y-98888600D02*
X171791100Y-96338600D01*
X171791100Y-99688600D02*
X171791100Y-98888600D01*
X171791100Y-102238600D02*
X171791100Y-99688600D01*
%TO.C,R5*%
G36*
X170345100Y-125069600D02*
G01*
X169837100Y-125069600D01*
X169837100Y-124688600D01*
X170345100Y-124688600D01*
X170345100Y-125069600D01*
G37*
G36*
X170345100Y-119608600D02*
G01*
X169837100Y-119608600D01*
X169837100Y-119227600D01*
X170345100Y-119227600D01*
X170345100Y-119608600D01*
G37*
D19*
X170853100Y-119608600D02*
X169329100Y-119608600D01*
X171107100Y-119862600D02*
X171107100Y-120243600D01*
X169075100Y-119862600D02*
X169075100Y-120243600D01*
X170980100Y-120370600D02*
X170980100Y-123926600D01*
X170980100Y-120370600D02*
X171107100Y-120243600D01*
X169202100Y-120370600D02*
X169202100Y-123926600D01*
X169202100Y-120370600D02*
X169075100Y-120243600D01*
X170980100Y-123926600D02*
X171107100Y-124053600D01*
X171107100Y-124434600D02*
X171107100Y-124053600D01*
X169202100Y-123926600D02*
X169075100Y-124053600D01*
X169075100Y-124434600D02*
X169075100Y-124053600D01*
X170853100Y-124688600D02*
X169329100Y-124688600D01*
X169329100Y-119608600D02*
G75*
G03*
X169075100Y-119862600I0J-254000D01*
G01*
X171107100Y-119862600D02*
G75*
G03*
X170853100Y-119608600I-254000J0D01*
G01*
X170853100Y-124688600D02*
G75*
G03*
X171107100Y-124434600I0J254000D01*
G01*
X169075100Y-124434600D02*
G75*
G03*
X169329100Y-124688600I254000J0D01*
G01*
%TO.C,SP1*%
X162471100Y-123418600D02*
G75*
G03*
X162471100Y-123418600I-1270000J0D01*
G01*
X167297100Y-123418600D02*
G75*
G03*
X167297100Y-123418600I-6096000J0D01*
G01*
%TO.C,Q1*%
G36*
X135547100Y-124942600D02*
G01*
X135039100Y-124942600D01*
X135039100Y-116560600D01*
X135547100Y-116560600D01*
X135547100Y-124942600D01*
G37*
D21*
X138595100Y-116814600D02*
X135547100Y-116814600D01*
X138595100Y-124688600D02*
X135547100Y-124688600D01*
X135039100Y-124942600D02*
X135547100Y-124942600D01*
X135039100Y-116560600D02*
X135039100Y-124942600D01*
X135547100Y-116560600D02*
X135039100Y-116560600D01*
X138595100Y-116814600D02*
X138595100Y-124688600D01*
X135547100Y-116814600D02*
X135547100Y-116560600D01*
X135547100Y-124688600D02*
X135547100Y-116814600D01*
X135547100Y-124942600D02*
X135547100Y-124688600D01*
X139103100Y-124180600D02*
X138595100Y-124688600D01*
X139103100Y-117322600D02*
X139103100Y-124180600D01*
X138595100Y-116814600D02*
X139103100Y-117322600D01*
%TD*%
M02*
