%TF.GenerationSoftware,KiCad,Pcbnew,7.0.9*%
%TF.CreationDate,2023-11-20T12:38:18-05:00*%
%TF.ProjectId,brobot_v1,62726f62-6f74-45f7-9631-2e6b69636164,rev?*%
%TF.SameCoordinates,Original*%
%TF.FileFunction,Legend,Bot*%
%TF.FilePolarity,Positive*%
%FSLAX46Y46*%
G04 Gerber Fmt 4.6, Leading zero omitted, Abs format (unit mm)*
G04 Created by KiCad (PCBNEW 7.0.9) date 2023-11-20 12:38:18*
%MOMM*%
%LPD*%
G01*
G04 APERTURE LIST*
%ADD10C,0.100000*%
G04 APERTURE END LIST*
D10*
X149079925Y-101722419D02*
X149556115Y-101722419D01*
X149556115Y-101722419D02*
X149556115Y-100722419D01*
X148318020Y-101722419D02*
X148318020Y-101198609D01*
X148318020Y-101198609D02*
X148365639Y-101103371D01*
X148365639Y-101103371D02*
X148460877Y-101055752D01*
X148460877Y-101055752D02*
X148651353Y-101055752D01*
X148651353Y-101055752D02*
X148746591Y-101103371D01*
X148318020Y-101674800D02*
X148413258Y-101722419D01*
X148413258Y-101722419D02*
X148651353Y-101722419D01*
X148651353Y-101722419D02*
X148746591Y-101674800D01*
X148746591Y-101674800D02*
X148794210Y-101579561D01*
X148794210Y-101579561D02*
X148794210Y-101484323D01*
X148794210Y-101484323D02*
X148746591Y-101389085D01*
X148746591Y-101389085D02*
X148651353Y-101341466D01*
X148651353Y-101341466D02*
X148413258Y-101341466D01*
X148413258Y-101341466D02*
X148318020Y-101293847D01*
X147413258Y-101055752D02*
X147413258Y-101722419D01*
X147841829Y-101055752D02*
X147841829Y-101579561D01*
X147841829Y-101579561D02*
X147794210Y-101674800D01*
X147794210Y-101674800D02*
X147698972Y-101722419D01*
X147698972Y-101722419D02*
X147556115Y-101722419D01*
X147556115Y-101722419D02*
X147460877Y-101674800D01*
X147460877Y-101674800D02*
X147413258Y-101627180D01*
X146937067Y-101722419D02*
X146937067Y-101055752D01*
X146937067Y-101246228D02*
X146889448Y-101150990D01*
X146889448Y-101150990D02*
X146841829Y-101103371D01*
X146841829Y-101103371D02*
X146746591Y-101055752D01*
X146746591Y-101055752D02*
X146651353Y-101055752D01*
X145937067Y-101674800D02*
X146032305Y-101722419D01*
X146032305Y-101722419D02*
X146222781Y-101722419D01*
X146222781Y-101722419D02*
X146318019Y-101674800D01*
X146318019Y-101674800D02*
X146365638Y-101579561D01*
X146365638Y-101579561D02*
X146365638Y-101198609D01*
X146365638Y-101198609D02*
X146318019Y-101103371D01*
X146318019Y-101103371D02*
X146222781Y-101055752D01*
X146222781Y-101055752D02*
X146032305Y-101055752D01*
X146032305Y-101055752D02*
X145937067Y-101103371D01*
X145937067Y-101103371D02*
X145889448Y-101198609D01*
X145889448Y-101198609D02*
X145889448Y-101293847D01*
X145889448Y-101293847D02*
X146365638Y-101389085D01*
X145460876Y-101055752D02*
X145460876Y-101722419D01*
X145460876Y-101150990D02*
X145413257Y-101103371D01*
X145413257Y-101103371D02*
X145318019Y-101055752D01*
X145318019Y-101055752D02*
X145175162Y-101055752D01*
X145175162Y-101055752D02*
X145079924Y-101103371D01*
X145079924Y-101103371D02*
X145032305Y-101198609D01*
X145032305Y-101198609D02*
X145032305Y-101722419D01*
X143794209Y-101198609D02*
X143460876Y-101198609D01*
X143318019Y-101722419D02*
X143794209Y-101722419D01*
X143794209Y-101722419D02*
X143794209Y-100722419D01*
X143794209Y-100722419D02*
X143318019Y-100722419D01*
X142889447Y-101722419D02*
X142889447Y-101055752D01*
X142889447Y-101246228D02*
X142841828Y-101150990D01*
X142841828Y-101150990D02*
X142794209Y-101103371D01*
X142794209Y-101103371D02*
X142698971Y-101055752D01*
X142698971Y-101055752D02*
X142603733Y-101055752D01*
X142365637Y-101055752D02*
X142127542Y-101722419D01*
X142127542Y-101722419D02*
X141889447Y-101055752D01*
X141508494Y-101722419D02*
X141508494Y-101055752D01*
X141508494Y-100722419D02*
X141556113Y-100770038D01*
X141556113Y-100770038D02*
X141508494Y-100817657D01*
X141508494Y-100817657D02*
X141460875Y-100770038D01*
X141460875Y-100770038D02*
X141508494Y-100722419D01*
X141508494Y-100722419D02*
X141508494Y-100817657D01*
X141032304Y-101055752D02*
X141032304Y-101722419D01*
X141032304Y-101150990D02*
X140984685Y-101103371D01*
X140984685Y-101103371D02*
X140889447Y-101055752D01*
X140889447Y-101055752D02*
X140746590Y-101055752D01*
X140746590Y-101055752D02*
X140651352Y-101103371D01*
X140651352Y-101103371D02*
X140603733Y-101198609D01*
X140603733Y-101198609D02*
X140603733Y-101722419D01*
X149603734Y-103046704D02*
X149127544Y-103046704D01*
X149698972Y-103332419D02*
X149365639Y-102332419D01*
X149365639Y-102332419D02*
X149032306Y-103332419D01*
X148270401Y-102665752D02*
X148270401Y-103475276D01*
X148270401Y-103475276D02*
X148318020Y-103570514D01*
X148318020Y-103570514D02*
X148365639Y-103618133D01*
X148365639Y-103618133D02*
X148460877Y-103665752D01*
X148460877Y-103665752D02*
X148603734Y-103665752D01*
X148603734Y-103665752D02*
X148698972Y-103618133D01*
X148270401Y-103284800D02*
X148365639Y-103332419D01*
X148365639Y-103332419D02*
X148556115Y-103332419D01*
X148556115Y-103332419D02*
X148651353Y-103284800D01*
X148651353Y-103284800D02*
X148698972Y-103237180D01*
X148698972Y-103237180D02*
X148746591Y-103141942D01*
X148746591Y-103141942D02*
X148746591Y-102856228D01*
X148746591Y-102856228D02*
X148698972Y-102760990D01*
X148698972Y-102760990D02*
X148651353Y-102713371D01*
X148651353Y-102713371D02*
X148556115Y-102665752D01*
X148556115Y-102665752D02*
X148365639Y-102665752D01*
X148365639Y-102665752D02*
X148270401Y-102713371D01*
X147794210Y-103332419D02*
X147794210Y-102665752D01*
X147794210Y-102332419D02*
X147841829Y-102380038D01*
X147841829Y-102380038D02*
X147794210Y-102427657D01*
X147794210Y-102427657D02*
X147746591Y-102380038D01*
X147746591Y-102380038D02*
X147794210Y-102332419D01*
X147794210Y-102332419D02*
X147794210Y-102427657D01*
X147175163Y-103332419D02*
X147270401Y-103284800D01*
X147270401Y-103284800D02*
X147318020Y-103189561D01*
X147318020Y-103189561D02*
X147318020Y-102332419D01*
X146413258Y-103284800D02*
X146508496Y-103332419D01*
X146508496Y-103332419D02*
X146698972Y-103332419D01*
X146698972Y-103332419D02*
X146794210Y-103284800D01*
X146794210Y-103284800D02*
X146841829Y-103189561D01*
X146841829Y-103189561D02*
X146841829Y-102808609D01*
X146841829Y-102808609D02*
X146794210Y-102713371D01*
X146794210Y-102713371D02*
X146698972Y-102665752D01*
X146698972Y-102665752D02*
X146508496Y-102665752D01*
X146508496Y-102665752D02*
X146413258Y-102713371D01*
X146413258Y-102713371D02*
X146365639Y-102808609D01*
X146365639Y-102808609D02*
X146365639Y-102903847D01*
X146365639Y-102903847D02*
X146841829Y-102999085D01*
X148984687Y-104942419D02*
X149318020Y-104466228D01*
X149556115Y-104942419D02*
X149556115Y-103942419D01*
X149556115Y-103942419D02*
X149175163Y-103942419D01*
X149175163Y-103942419D02*
X149079925Y-103990038D01*
X149079925Y-103990038D02*
X149032306Y-104037657D01*
X149032306Y-104037657D02*
X148984687Y-104132895D01*
X148984687Y-104132895D02*
X148984687Y-104275752D01*
X148984687Y-104275752D02*
X149032306Y-104370990D01*
X149032306Y-104370990D02*
X149079925Y-104418609D01*
X149079925Y-104418609D02*
X149175163Y-104466228D01*
X149175163Y-104466228D02*
X149556115Y-104466228D01*
X148413258Y-104942419D02*
X148508496Y-104894800D01*
X148508496Y-104894800D02*
X148556115Y-104847180D01*
X148556115Y-104847180D02*
X148603734Y-104751942D01*
X148603734Y-104751942D02*
X148603734Y-104466228D01*
X148603734Y-104466228D02*
X148556115Y-104370990D01*
X148556115Y-104370990D02*
X148508496Y-104323371D01*
X148508496Y-104323371D02*
X148413258Y-104275752D01*
X148413258Y-104275752D02*
X148270401Y-104275752D01*
X148270401Y-104275752D02*
X148175163Y-104323371D01*
X148175163Y-104323371D02*
X148127544Y-104370990D01*
X148127544Y-104370990D02*
X148079925Y-104466228D01*
X148079925Y-104466228D02*
X148079925Y-104751942D01*
X148079925Y-104751942D02*
X148127544Y-104847180D01*
X148127544Y-104847180D02*
X148175163Y-104894800D01*
X148175163Y-104894800D02*
X148270401Y-104942419D01*
X148270401Y-104942419D02*
X148413258Y-104942419D01*
X147651353Y-104942419D02*
X147651353Y-103942419D01*
X147651353Y-104323371D02*
X147556115Y-104275752D01*
X147556115Y-104275752D02*
X147365639Y-104275752D01*
X147365639Y-104275752D02*
X147270401Y-104323371D01*
X147270401Y-104323371D02*
X147222782Y-104370990D01*
X147222782Y-104370990D02*
X147175163Y-104466228D01*
X147175163Y-104466228D02*
X147175163Y-104751942D01*
X147175163Y-104751942D02*
X147222782Y-104847180D01*
X147222782Y-104847180D02*
X147270401Y-104894800D01*
X147270401Y-104894800D02*
X147365639Y-104942419D01*
X147365639Y-104942419D02*
X147556115Y-104942419D01*
X147556115Y-104942419D02*
X147651353Y-104894800D01*
X146603734Y-104942419D02*
X146698972Y-104894800D01*
X146698972Y-104894800D02*
X146746591Y-104847180D01*
X146746591Y-104847180D02*
X146794210Y-104751942D01*
X146794210Y-104751942D02*
X146794210Y-104466228D01*
X146794210Y-104466228D02*
X146746591Y-104370990D01*
X146746591Y-104370990D02*
X146698972Y-104323371D01*
X146698972Y-104323371D02*
X146603734Y-104275752D01*
X146603734Y-104275752D02*
X146460877Y-104275752D01*
X146460877Y-104275752D02*
X146365639Y-104323371D01*
X146365639Y-104323371D02*
X146318020Y-104370990D01*
X146318020Y-104370990D02*
X146270401Y-104466228D01*
X146270401Y-104466228D02*
X146270401Y-104751942D01*
X146270401Y-104751942D02*
X146318020Y-104847180D01*
X146318020Y-104847180D02*
X146365639Y-104894800D01*
X146365639Y-104894800D02*
X146460877Y-104942419D01*
X146460877Y-104942419D02*
X146603734Y-104942419D01*
X145984686Y-104275752D02*
X145603734Y-104275752D01*
X145841829Y-103942419D02*
X145841829Y-104799561D01*
X145841829Y-104799561D02*
X145794210Y-104894800D01*
X145794210Y-104894800D02*
X145698972Y-104942419D01*
X145698972Y-104942419D02*
X145603734Y-104942419D01*
X145270400Y-104942419D02*
X145270400Y-104275752D01*
X145270400Y-103942419D02*
X145318019Y-103990038D01*
X145318019Y-103990038D02*
X145270400Y-104037657D01*
X145270400Y-104037657D02*
X145222781Y-103990038D01*
X145222781Y-103990038D02*
X145270400Y-103942419D01*
X145270400Y-103942419D02*
X145270400Y-104037657D01*
X144365639Y-104894800D02*
X144460877Y-104942419D01*
X144460877Y-104942419D02*
X144651353Y-104942419D01*
X144651353Y-104942419D02*
X144746591Y-104894800D01*
X144746591Y-104894800D02*
X144794210Y-104847180D01*
X144794210Y-104847180D02*
X144841829Y-104751942D01*
X144841829Y-104751942D02*
X144841829Y-104466228D01*
X144841829Y-104466228D02*
X144794210Y-104370990D01*
X144794210Y-104370990D02*
X144746591Y-104323371D01*
X144746591Y-104323371D02*
X144651353Y-104275752D01*
X144651353Y-104275752D02*
X144460877Y-104275752D01*
X144460877Y-104275752D02*
X144365639Y-104323371D01*
X143984686Y-104894800D02*
X143889448Y-104942419D01*
X143889448Y-104942419D02*
X143698972Y-104942419D01*
X143698972Y-104942419D02*
X143603734Y-104894800D01*
X143603734Y-104894800D02*
X143556115Y-104799561D01*
X143556115Y-104799561D02*
X143556115Y-104751942D01*
X143556115Y-104751942D02*
X143603734Y-104656704D01*
X143603734Y-104656704D02*
X143698972Y-104609085D01*
X143698972Y-104609085D02*
X143841829Y-104609085D01*
X143841829Y-104609085D02*
X143937067Y-104561466D01*
X143937067Y-104561466D02*
X143984686Y-104466228D01*
X143984686Y-104466228D02*
X143984686Y-104418609D01*
X143984686Y-104418609D02*
X143937067Y-104323371D01*
X143937067Y-104323371D02*
X143841829Y-104275752D01*
X143841829Y-104275752D02*
X143698972Y-104275752D01*
X143698972Y-104275752D02*
X143603734Y-104323371D01*
X149079925Y-106552419D02*
X149556115Y-106552419D01*
X149556115Y-106552419D02*
X149556115Y-105552419D01*
X148318020Y-106552419D02*
X148318020Y-106028609D01*
X148318020Y-106028609D02*
X148365639Y-105933371D01*
X148365639Y-105933371D02*
X148460877Y-105885752D01*
X148460877Y-105885752D02*
X148651353Y-105885752D01*
X148651353Y-105885752D02*
X148746591Y-105933371D01*
X148318020Y-106504800D02*
X148413258Y-106552419D01*
X148413258Y-106552419D02*
X148651353Y-106552419D01*
X148651353Y-106552419D02*
X148746591Y-106504800D01*
X148746591Y-106504800D02*
X148794210Y-106409561D01*
X148794210Y-106409561D02*
X148794210Y-106314323D01*
X148794210Y-106314323D02*
X148746591Y-106219085D01*
X148746591Y-106219085D02*
X148651353Y-106171466D01*
X148651353Y-106171466D02*
X148413258Y-106171466D01*
X148413258Y-106171466D02*
X148318020Y-106123847D01*
X147841829Y-106552419D02*
X147841829Y-105552419D01*
X147841829Y-105933371D02*
X147746591Y-105885752D01*
X147746591Y-105885752D02*
X147556115Y-105885752D01*
X147556115Y-105885752D02*
X147460877Y-105933371D01*
X147460877Y-105933371D02*
X147413258Y-105980990D01*
X147413258Y-105980990D02*
X147365639Y-106076228D01*
X147365639Y-106076228D02*
X147365639Y-106361942D01*
X147365639Y-106361942D02*
X147413258Y-106457180D01*
X147413258Y-106457180D02*
X147460877Y-106504800D01*
X147460877Y-106504800D02*
X147556115Y-106552419D01*
X147556115Y-106552419D02*
X147746591Y-106552419D01*
X147746591Y-106552419D02*
X147841829Y-106504800D01*
X146794210Y-106552419D02*
X146889448Y-106504800D01*
X146889448Y-106504800D02*
X146937067Y-106457180D01*
X146937067Y-106457180D02*
X146984686Y-106361942D01*
X146984686Y-106361942D02*
X146984686Y-106076228D01*
X146984686Y-106076228D02*
X146937067Y-105980990D01*
X146937067Y-105980990D02*
X146889448Y-105933371D01*
X146889448Y-105933371D02*
X146794210Y-105885752D01*
X146794210Y-105885752D02*
X146651353Y-105885752D01*
X146651353Y-105885752D02*
X146556115Y-105933371D01*
X146556115Y-105933371D02*
X146508496Y-105980990D01*
X146508496Y-105980990D02*
X146460877Y-106076228D01*
X146460877Y-106076228D02*
X146460877Y-106361942D01*
X146460877Y-106361942D02*
X146508496Y-106457180D01*
X146508496Y-106457180D02*
X146556115Y-106504800D01*
X146556115Y-106504800D02*
X146651353Y-106552419D01*
X146651353Y-106552419D02*
X146794210Y-106552419D01*
X146032305Y-106552419D02*
X146032305Y-105885752D01*
X146032305Y-106076228D02*
X145984686Y-105980990D01*
X145984686Y-105980990D02*
X145937067Y-105933371D01*
X145937067Y-105933371D02*
X145841829Y-105885752D01*
X145841829Y-105885752D02*
X145746591Y-105885752D01*
X144984686Y-106552419D02*
X144984686Y-106028609D01*
X144984686Y-106028609D02*
X145032305Y-105933371D01*
X145032305Y-105933371D02*
X145127543Y-105885752D01*
X145127543Y-105885752D02*
X145318019Y-105885752D01*
X145318019Y-105885752D02*
X145413257Y-105933371D01*
X144984686Y-106504800D02*
X145079924Y-106552419D01*
X145079924Y-106552419D02*
X145318019Y-106552419D01*
X145318019Y-106552419D02*
X145413257Y-106504800D01*
X145413257Y-106504800D02*
X145460876Y-106409561D01*
X145460876Y-106409561D02*
X145460876Y-106314323D01*
X145460876Y-106314323D02*
X145413257Y-106219085D01*
X145413257Y-106219085D02*
X145318019Y-106171466D01*
X145318019Y-106171466D02*
X145079924Y-106171466D01*
X145079924Y-106171466D02*
X144984686Y-106123847D01*
X144651352Y-105885752D02*
X144270400Y-105885752D01*
X144508495Y-105552419D02*
X144508495Y-106409561D01*
X144508495Y-106409561D02*
X144460876Y-106504800D01*
X144460876Y-106504800D02*
X144365638Y-106552419D01*
X144365638Y-106552419D02*
X144270400Y-106552419D01*
X143794209Y-106552419D02*
X143889447Y-106504800D01*
X143889447Y-106504800D02*
X143937066Y-106457180D01*
X143937066Y-106457180D02*
X143984685Y-106361942D01*
X143984685Y-106361942D02*
X143984685Y-106076228D01*
X143984685Y-106076228D02*
X143937066Y-105980990D01*
X143937066Y-105980990D02*
X143889447Y-105933371D01*
X143889447Y-105933371D02*
X143794209Y-105885752D01*
X143794209Y-105885752D02*
X143651352Y-105885752D01*
X143651352Y-105885752D02*
X143556114Y-105933371D01*
X143556114Y-105933371D02*
X143508495Y-105980990D01*
X143508495Y-105980990D02*
X143460876Y-106076228D01*
X143460876Y-106076228D02*
X143460876Y-106361942D01*
X143460876Y-106361942D02*
X143508495Y-106457180D01*
X143508495Y-106457180D02*
X143556114Y-106504800D01*
X143556114Y-106504800D02*
X143651352Y-106552419D01*
X143651352Y-106552419D02*
X143794209Y-106552419D01*
X143032304Y-106552419D02*
X143032304Y-105885752D01*
X143032304Y-106076228D02*
X142984685Y-105980990D01*
X142984685Y-105980990D02*
X142937066Y-105933371D01*
X142937066Y-105933371D02*
X142841828Y-105885752D01*
X142841828Y-105885752D02*
X142746590Y-105885752D01*
X142508494Y-105885752D02*
X142270399Y-106552419D01*
X142032304Y-105885752D02*
X142270399Y-106552419D01*
X142270399Y-106552419D02*
X142365637Y-106790514D01*
X142365637Y-106790514D02*
X142413256Y-106838133D01*
X142413256Y-106838133D02*
X142508494Y-106885752D01*
M02*
