%TF.GenerationSoftware,KiCad,Pcbnew,7.0.9*%
%TF.CreationDate,2023-11-20T12:38:18-05:00*%
%TF.ProjectId,brobot_v1,62726f62-6f74-45f7-9631-2e6b69636164,rev?*%
%TF.SameCoordinates,Original*%
%TF.FileFunction,Copper,L16,Bot*%
%TF.FilePolarity,Positive*%
%FSLAX46Y46*%
G04 Gerber Fmt 4.6, Leading zero omitted, Abs format (unit mm)*
G04 Created by KiCad (PCBNEW 7.0.9) date 2023-11-20 12:38:18*
%MOMM*%
%LPD*%
G01*
G04 APERTURE LIST*
G04 Aperture macros list*
%AMOutline5P*
0 Free polygon, 5 corners , with rotation*
0 The origin of the aperture is its center*
0 number of corners: always 5*
0 $1 to $10 corner X, Y*
0 $11 Rotation angle, in degrees counterclockwise*
0 create outline with 5 corners*
4,1,5,$1,$2,$3,$4,$5,$6,$7,$8,$9,$10,$1,$2,$11*%
%AMOutline6P*
0 Free polygon, 6 corners , with rotation*
0 The origin of the aperture is its center*
0 number of corners: always 6*
0 $1 to $12 corner X, Y*
0 $13 Rotation angle, in degrees counterclockwise*
0 create outline with 6 corners*
4,1,6,$1,$2,$3,$4,$5,$6,$7,$8,$9,$10,$11,$12,$1,$2,$13*%
%AMOutline7P*
0 Free polygon, 7 corners , with rotation*
0 The origin of the aperture is its center*
0 number of corners: always 7*
0 $1 to $14 corner X, Y*
0 $15 Rotation angle, in degrees counterclockwise*
0 create outline with 7 corners*
4,1,7,$1,$2,$3,$4,$5,$6,$7,$8,$9,$10,$11,$12,$13,$14,$1,$2,$15*%
%AMOutline8P*
0 Free polygon, 8 corners , with rotation*
0 The origin of the aperture is its center*
0 number of corners: always 8*
0 $1 to $16 corner X, Y*
0 $17 Rotation angle, in degrees counterclockwise*
0 create outline with 8 corners*
4,1,8,$1,$2,$3,$4,$5,$6,$7,$8,$9,$10,$11,$12,$13,$14,$15,$16,$1,$2,$17*%
G04 Aperture macros list end*
%TA.AperFunction,ComponentPad*%
%ADD10C,1.700000*%
%TD*%
%TA.AperFunction,ComponentPad*%
%ADD11R,1.700000X1.700000*%
%TD*%
%TA.AperFunction,ComponentPad*%
%ADD12C,7.620000*%
%TD*%
%TA.AperFunction,ComponentPad*%
%ADD13O,4.064000X2.032000*%
%TD*%
%TA.AperFunction,ComponentPad*%
%ADD14Outline8P,-0.800100X0.331412X-0.331412X0.800100X0.331412X0.800100X0.800100X0.331412X0.800100X-0.331412X0.331412X-0.800100X-0.331412X-0.800100X-0.800100X-0.331412X0.000000*%
%TD*%
%TA.AperFunction,ComponentPad*%
%ADD15Outline8P,-0.660400X0.273547X-0.273547X0.660400X0.273547X0.660400X0.660400X0.273547X0.660400X-0.273547X0.273547X-0.660400X-0.273547X-0.660400X-0.660400X-0.273547X180.000000*%
%TD*%
%TA.AperFunction,ComponentPad*%
%ADD16Outline8P,-0.660400X0.273547X-0.273547X0.660400X0.273547X0.660400X0.660400X0.273547X0.660400X-0.273547X0.273547X-0.660400X-0.273547X-0.660400X-0.660400X-0.273547X0.000000*%
%TD*%
%TA.AperFunction,ComponentPad*%
%ADD17Outline8P,-0.660400X0.273547X-0.273547X0.660400X0.273547X0.660400X0.660400X0.273547X0.660400X-0.273547X0.273547X-0.660400X-0.273547X-0.660400X-0.660400X-0.273547X270.000000*%
%TD*%
%TA.AperFunction,ComponentPad*%
%ADD18Outline8P,-0.838200X0.347194X-0.347194X0.838200X0.347194X0.838200X0.838200X0.347194X0.838200X-0.347194X0.347194X-0.838200X-0.347194X-0.838200X-0.838200X-0.347194X90.000000*%
%TD*%
%TA.AperFunction,ComponentPad*%
%ADD19Outline8P,-0.838200X0.347194X-0.347194X0.838200X0.347194X0.838200X0.838200X0.347194X0.838200X-0.347194X0.347194X-0.838200X-0.347194X-0.838200X-0.838200X-0.347194X270.000000*%
%TD*%
%TA.AperFunction,ComponentPad*%
%ADD20Outline8P,-1.270000X0.526051X-0.526051X1.270000X0.526051X1.270000X1.270000X0.526051X1.270000X-0.526051X0.526051X-1.270000X-0.526051X-1.270000X-1.270000X-0.526051X0.000000*%
%TD*%
%TA.AperFunction,ComponentPad*%
%ADD21C,1.930400*%
%TD*%
%TA.AperFunction,ComponentPad*%
%ADD22R,1.930400X1.930400*%
%TD*%
%TA.AperFunction,Conductor*%
%ADD23C,0.500000*%
%TD*%
%TA.AperFunction,Conductor*%
%ADD24C,0.812800*%
%TD*%
G04 APERTURE END LIST*
D10*
%TO.P,U1,14*%
%TO.N,VCC5V*%
X159296100Y-109448600D03*
%TO.P,U1,13*%
%TO.N,GND*%
X159296100Y-111988600D03*
%TO.P,U1,12*%
%TO.N,N/C*%
X159296100Y-114528600D03*
%TO.P,U1,11*%
X159296100Y-117068600D03*
%TO.P,U1,10*%
X159296100Y-119608600D03*
%TO.P,U1,9*%
%TO.N,IN5*%
X159296100Y-122148600D03*
%TO.P,U1,8*%
%TO.N,IN6*%
X159296100Y-124688600D03*
%TO.P,U1,7*%
%TO.N,N/C*%
X144056100Y-124688600D03*
%TO.P,U1,6*%
%TO.N,SCL*%
X144056100Y-122148600D03*
%TO.P,U1,5*%
%TO.N,SDA*%
X144056100Y-119608600D03*
%TO.P,U1,4*%
%TO.N,IN4*%
X144056100Y-117068600D03*
%TO.P,U1,3*%
%TO.N,IN3*%
X144056100Y-114528600D03*
%TO.P,U1,2*%
%TO.N,IN2*%
X144056100Y-111988600D03*
D11*
%TO.P,U1,1*%
%TO.N,IN1*%
X144056100Y-109448600D03*
%TD*%
D12*
%TO.P,U2,HEAT*%
%TO.N,GND*%
X171996100Y-100558600D03*
D13*
%TO.P,U2,3*%
%TO.N,VCC5V*%
X154216100Y-103098600D03*
%TO.P,U2,2*%
%TO.N,GND*%
X154216100Y-100558600D03*
%TO.P,U2,1*%
%TO.N,VCC*%
X154216100Y-98018600D03*
%TD*%
D14*
%TO.P,PAD39,1*%
%TO.N,VOUT*%
X151676100Y-110718600D03*
%TD*%
%TO.P,PAD40,1*%
%TO.N,GND*%
X151676100Y-113258600D03*
%TD*%
%TO.P,PAD41,1*%
%TO.N,REFV*%
X151676100Y-115798600D03*
%TD*%
D15*
%TO.P,R1,2*%
%TO.N,GND*%
X147866100Y-119608600D03*
%TO.P,R1,1*%
%TO.N,REFV*%
X155486100Y-119608600D03*
%TD*%
D16*
%TO.P,R2,2*%
%TO.N,VCC*%
X155486100Y-124688600D03*
%TO.P,R2,1*%
%TO.N,SERIES*%
X147866100Y-124688600D03*
%TD*%
%TO.P,R3,2*%
%TO.N,REFV*%
X155486100Y-122148600D03*
%TO.P,R3,1*%
%TO.N,SERIES*%
X147866100Y-122148600D03*
%TD*%
D17*
%TO.P,R4,2*%
%TO.N,VCC*%
X155486100Y-115798600D03*
%TO.P,R4,1*%
%TO.N,VOUT*%
X155486100Y-108178600D03*
%TD*%
D18*
%TO.P,P1,1*%
%TO.N,GNDM1*%
X128816100Y-123688600D03*
%TO.P,P1,2*%
%TO.N,VCCM1*%
X128816100Y-125688600D03*
%TD*%
D19*
%TO.P,P2,1*%
%TO.N,GNDM2*%
X130086100Y-119338600D03*
%TO.P,P2,2*%
%TO.N,VCCM2*%
X130086100Y-117338600D03*
%TD*%
%TO.P,P3,1*%
%TO.N,GNDM3*%
X168186100Y-125688600D03*
%TO.P,P3,2*%
%TO.N,VCCM3*%
X168186100Y-123688600D03*
%TD*%
D16*
%TO.P,R5,2*%
%TO.N,VCC*%
X151676100Y-92938600D03*
%TO.P,R5,1*%
%TO.N,BPOS*%
X144056100Y-92938600D03*
%TD*%
D20*
%TO.P,SP1,2*%
%TO.N,BPOS*%
X148577300Y-99288600D03*
%TO.P,SP1,1*%
%TO.N,DRAIN*%
X142074900Y-99288600D03*
%TD*%
D21*
%TO.P,Q1,3*%
%TO.N,VOUT*%
X147866100Y-113258600D03*
%TO.P,Q1,2*%
%TO.N,DRAIN*%
X147866100Y-110718600D03*
D22*
%TO.P,Q1,1*%
%TO.N,GND*%
X147866100Y-108178600D03*
%TD*%
D14*
%TO.P,PAD29,1*%
%TO.N,VCC*%
X135166100Y-124688600D03*
%TD*%
%TO.P,PAD30,1*%
%TO.N,N/C*%
X135166100Y-122148600D03*
%TD*%
%TO.P,PAD31,1*%
%TO.N,VCCM1*%
X135166100Y-119608600D03*
%TD*%
%TO.P,PAD32,1*%
%TO.N,GND*%
X135166100Y-117068600D03*
%TD*%
%TO.P,PAD33,1*%
%TO.N,GNDM1*%
X135166100Y-114528600D03*
%TD*%
%TO.P,PAD34,1*%
%TO.N,IN2*%
X135166100Y-111988600D03*
%TD*%
%TO.P,PAD35,1*%
%TO.N,IN1*%
X135166100Y-109448600D03*
%TD*%
%TO.P,PAD36,1*%
%TO.N,IN3*%
X138976100Y-108178600D03*
%TD*%
%TO.P,PAD42,1*%
%TO.N,IN4*%
X138976100Y-110718600D03*
%TD*%
%TO.P,PAD43,1*%
%TO.N,GNDM2*%
X138976100Y-113258600D03*
%TD*%
%TO.P,PAD44,1*%
%TO.N,GND*%
X138976100Y-115798600D03*
%TD*%
%TO.P,PAD45,1*%
%TO.N,VCCM2*%
X138976100Y-118338600D03*
%TD*%
%TO.P,PAD46,1*%
%TO.N,N/C*%
X138976100Y-120878600D03*
%TD*%
%TO.P,PAD47,1*%
%TO.N,VCC*%
X138976100Y-123418600D03*
%TD*%
%TO.P,PAD48,1*%
%TO.N,VCC*%
X163106100Y-110718600D03*
%TD*%
%TO.P,PAD49,1*%
%TO.N,N/C*%
X163106100Y-113258600D03*
%TD*%
%TO.P,PAD50,1*%
%TO.N,VCCM3*%
X163106100Y-115798600D03*
%TD*%
%TO.P,PAD51,1*%
%TO.N,GND*%
X163106100Y-118338600D03*
%TD*%
%TO.P,PAD52,1*%
%TO.N,GNDM3*%
X163106100Y-120878600D03*
%TD*%
%TO.P,PAD53,1*%
%TO.N,IN6*%
X163106100Y-123418600D03*
%TD*%
%TO.P,PAD54,1*%
%TO.N,IN5*%
X163106100Y-125958600D03*
%TD*%
D19*
%TO.P,P4,1*%
%TO.N,GND*%
X147866100Y-90128600D03*
%TO.P,P4,2*%
%TO.N,VCC*%
X147866100Y-88128600D03*
%TD*%
D23*
%TO.N,GNDM2*%
X137160000Y-112712500D02*
X137706100Y-113258600D01*
X137160000Y-106680000D02*
X137160000Y-112712500D01*
X135401888Y-106680000D02*
X137160000Y-106680000D01*
X135010944Y-107070944D02*
X135401888Y-106680000D01*
X133130926Y-108950962D02*
X135010944Y-107070944D01*
X133130926Y-114300000D02*
X133130926Y-108950962D01*
D24*
X133130926Y-114300000D02*
X132626100Y-118338600D01*
D23*
%TO.N,VCCM2*%
X127862881Y-119561819D02*
X127862881Y-119788394D01*
X130086100Y-117338600D02*
X127862881Y-119561819D01*
D24*
X138976100Y-118338600D02*
X137024533Y-120290167D01*
X137024533Y-124595467D02*
X137706100Y-125958600D01*
X137024533Y-120290167D02*
X137024533Y-124595467D01*
%TO.N,GND*%
X150329900Y-111912400D02*
X150329900Y-111760000D01*
X151676100Y-113258600D02*
X150329900Y-111912400D01*
X150329900Y-111760000D02*
X149136100Y-108178600D01*
%TO.N,VCCM2*%
X137706100Y-127000000D02*
X132511800Y-127000000D01*
X137706100Y-125958600D02*
X137706100Y-127000000D01*
X132511800Y-127000000D02*
X130086100Y-122148600D01*
X127862881Y-119788394D02*
X130086100Y-122148600D01*
%TO.N,GNDM2*%
X137706100Y-113258600D02*
X138976100Y-113258600D01*
X130086100Y-119338600D02*
X132626100Y-118338600D01*
%TO.N,IN5*%
X163106100Y-125958600D02*
X159296100Y-122148600D01*
%TO.N,VCC*%
X158026100Y-106908600D02*
X155486100Y-115798600D01*
X160566100Y-108178600D02*
X158026100Y-106908600D01*
X163106100Y-110718600D02*
X160566100Y-108178600D01*
%TO.N,GND*%
X149136100Y-108178600D02*
X147866100Y-108178600D01*
X147866100Y-115798600D02*
X151676100Y-113258600D01*
X147866100Y-119608600D02*
X147866100Y-115798600D01*
X141516100Y-117068600D02*
X141516100Y-127000000D01*
X146596100Y-119608600D02*
X147866100Y-119608600D01*
X145326100Y-127000000D02*
X146596100Y-119608600D01*
X141516100Y-127000000D02*
X145326100Y-127000000D01*
X138976100Y-115798600D02*
X141516100Y-117068600D01*
%TD*%
M02*
