%TF.GenerationSoftware,KiCad,Pcbnew,7.0.9*%
%TF.CreationDate,2023-11-20T12:38:18-05:00*%
%TF.ProjectId,brobot_v1,62726f62-6f74-45f7-9631-2e6b69636164,rev?*%
%TF.SameCoordinates,Original*%
%TF.FileFunction,Legend,Top*%
%TF.FilePolarity,Positive*%
%FSLAX46Y46*%
G04 Gerber Fmt 4.6, Leading zero omitted, Abs format (unit mm)*
G04 Created by KiCad (PCBNEW 7.0.9) date 2023-11-20 12:38:18*
%MOMM*%
%LPD*%
G01*
G04 APERTURE LIST*
%ADD10C,0.089154*%
%ADD11C,0.254000*%
%ADD12C,0.127000*%
%ADD13C,0.152400*%
G04 APERTURE END LIST*
D10*
X149680189Y-119250145D02*
X149723115Y-119207219D01*
X149723115Y-119207219D02*
X149808967Y-119164293D01*
X149808967Y-119164293D02*
X150023597Y-119164293D01*
X150023597Y-119164293D02*
X150109449Y-119207219D01*
X150109449Y-119207219D02*
X150152375Y-119250145D01*
X150152375Y-119250145D02*
X150195301Y-119335997D01*
X150195301Y-119335997D02*
X150195301Y-119421849D01*
X150195301Y-119421849D02*
X150152375Y-119550627D01*
X150152375Y-119550627D02*
X149637263Y-120065739D01*
X149637263Y-120065739D02*
X150195301Y-120065739D01*
X150581635Y-119979887D02*
X150624561Y-120022813D01*
X150624561Y-120022813D02*
X150581635Y-120065739D01*
X150581635Y-120065739D02*
X150538709Y-120022813D01*
X150538709Y-120022813D02*
X150581635Y-119979887D01*
X150581635Y-119979887D02*
X150581635Y-120065739D01*
X151440155Y-119164293D02*
X151010895Y-119164293D01*
X151010895Y-119164293D02*
X150967969Y-119593553D01*
X150967969Y-119593553D02*
X151010895Y-119550627D01*
X151010895Y-119550627D02*
X151096747Y-119507701D01*
X151096747Y-119507701D02*
X151311377Y-119507701D01*
X151311377Y-119507701D02*
X151397229Y-119550627D01*
X151397229Y-119550627D02*
X151440155Y-119593553D01*
X151440155Y-119593553D02*
X151483081Y-119679405D01*
X151483081Y-119679405D02*
X151483081Y-119894035D01*
X151483081Y-119894035D02*
X151440155Y-119979887D01*
X151440155Y-119979887D02*
X151397229Y-120022813D01*
X151397229Y-120022813D02*
X151311377Y-120065739D01*
X151311377Y-120065739D02*
X151096747Y-120065739D01*
X151096747Y-120065739D02*
X151010895Y-120022813D01*
X151010895Y-120022813D02*
X150967969Y-119979887D01*
X152298675Y-119164293D02*
X151869415Y-119164293D01*
X151869415Y-119164293D02*
X151826489Y-119593553D01*
X151826489Y-119593553D02*
X151869415Y-119550627D01*
X151869415Y-119550627D02*
X151955267Y-119507701D01*
X151955267Y-119507701D02*
X152169897Y-119507701D01*
X152169897Y-119507701D02*
X152255749Y-119550627D01*
X152255749Y-119550627D02*
X152298675Y-119593553D01*
X152298675Y-119593553D02*
X152341601Y-119679405D01*
X152341601Y-119679405D02*
X152341601Y-119894035D01*
X152341601Y-119894035D02*
X152298675Y-119979887D01*
X152298675Y-119979887D02*
X152255749Y-120022813D01*
X152255749Y-120022813D02*
X152169897Y-120065739D01*
X152169897Y-120065739D02*
X151955267Y-120065739D01*
X151955267Y-120065739D02*
X151869415Y-120022813D01*
X151869415Y-120022813D02*
X151826489Y-119979887D01*
X152727935Y-120065739D02*
X152727935Y-119164293D01*
X152813787Y-119722331D02*
X153071343Y-120065739D01*
X153071343Y-119464775D02*
X152727935Y-119808183D01*
X150237931Y-124154798D02*
X150795969Y-124154798D01*
X150795969Y-124154798D02*
X150495487Y-124498206D01*
X150495487Y-124498206D02*
X150624265Y-124498206D01*
X150624265Y-124498206D02*
X150710117Y-124541132D01*
X150710117Y-124541132D02*
X150753043Y-124584058D01*
X150753043Y-124584058D02*
X150795969Y-124669910D01*
X150795969Y-124669910D02*
X150795969Y-124884540D01*
X150795969Y-124884540D02*
X150753043Y-124970392D01*
X150753043Y-124970392D02*
X150710117Y-125013318D01*
X150710117Y-125013318D02*
X150624265Y-125056244D01*
X150624265Y-125056244D02*
X150366709Y-125056244D01*
X150366709Y-125056244D02*
X150280857Y-125013318D01*
X150280857Y-125013318D02*
X150237931Y-124970392D01*
X151182303Y-124970392D02*
X151225229Y-125013318D01*
X151225229Y-125013318D02*
X151182303Y-125056244D01*
X151182303Y-125056244D02*
X151139377Y-125013318D01*
X151139377Y-125013318D02*
X151182303Y-124970392D01*
X151182303Y-124970392D02*
X151182303Y-125056244D01*
X151997897Y-124455280D02*
X151997897Y-125056244D01*
X151783267Y-124111872D02*
X151568637Y-124755762D01*
X151568637Y-124755762D02*
X152126675Y-124755762D01*
X152470083Y-125056244D02*
X152470083Y-124154798D01*
X152555935Y-124712836D02*
X152813491Y-125056244D01*
X152813491Y-124455280D02*
X152470083Y-124798688D01*
X150237931Y-121614798D02*
X150795969Y-121614798D01*
X150795969Y-121614798D02*
X150495487Y-121958206D01*
X150495487Y-121958206D02*
X150624265Y-121958206D01*
X150624265Y-121958206D02*
X150710117Y-122001132D01*
X150710117Y-122001132D02*
X150753043Y-122044058D01*
X150753043Y-122044058D02*
X150795969Y-122129910D01*
X150795969Y-122129910D02*
X150795969Y-122344540D01*
X150795969Y-122344540D02*
X150753043Y-122430392D01*
X150753043Y-122430392D02*
X150710117Y-122473318D01*
X150710117Y-122473318D02*
X150624265Y-122516244D01*
X150624265Y-122516244D02*
X150366709Y-122516244D01*
X150366709Y-122516244D02*
X150280857Y-122473318D01*
X150280857Y-122473318D02*
X150237931Y-122430392D01*
X151182303Y-122430392D02*
X151225229Y-122473318D01*
X151225229Y-122473318D02*
X151182303Y-122516244D01*
X151182303Y-122516244D02*
X151139377Y-122473318D01*
X151139377Y-122473318D02*
X151182303Y-122430392D01*
X151182303Y-122430392D02*
X151182303Y-122516244D01*
X151997897Y-121915280D02*
X151997897Y-122516244D01*
X151783267Y-121571872D02*
X151568637Y-122215762D01*
X151568637Y-122215762D02*
X152126675Y-122215762D01*
X152470083Y-122516244D02*
X152470083Y-121614798D01*
X152555935Y-122172836D02*
X152813491Y-122516244D01*
X152813491Y-121915280D02*
X152470083Y-122258688D01*
X155342271Y-112396249D02*
X155943235Y-112396249D01*
X154998863Y-112610879D02*
X155642753Y-112825509D01*
X155642753Y-112825509D02*
X155642753Y-112267471D01*
X155041789Y-112009915D02*
X155041789Y-111408951D01*
X155041789Y-111408951D02*
X155943235Y-111795285D01*
X155041789Y-110893839D02*
X155041789Y-110807987D01*
X155041789Y-110807987D02*
X155084715Y-110722135D01*
X155084715Y-110722135D02*
X155127641Y-110679209D01*
X155127641Y-110679209D02*
X155213493Y-110636283D01*
X155213493Y-110636283D02*
X155385197Y-110593357D01*
X155385197Y-110593357D02*
X155599827Y-110593357D01*
X155599827Y-110593357D02*
X155771531Y-110636283D01*
X155771531Y-110636283D02*
X155857383Y-110679209D01*
X155857383Y-110679209D02*
X155900309Y-110722135D01*
X155900309Y-110722135D02*
X155943235Y-110807987D01*
X155943235Y-110807987D02*
X155943235Y-110893839D01*
X155943235Y-110893839D02*
X155900309Y-110979691D01*
X155900309Y-110979691D02*
X155857383Y-111022617D01*
X155857383Y-111022617D02*
X155771531Y-111065543D01*
X155771531Y-111065543D02*
X155599827Y-111108469D01*
X155599827Y-111108469D02*
X155385197Y-111108469D01*
X155385197Y-111108469D02*
X155213493Y-111065543D01*
X155213493Y-111065543D02*
X155127641Y-111022617D01*
X155127641Y-111022617D02*
X155084715Y-110979691D01*
X155084715Y-110979691D02*
X155041789Y-110893839D01*
X146985969Y-94576244D02*
X146470857Y-94576244D01*
X146728413Y-94576244D02*
X146728413Y-93674798D01*
X146728413Y-93674798D02*
X146642561Y-93803576D01*
X146642561Y-93803576D02*
X146556709Y-93889428D01*
X146556709Y-93889428D02*
X146470857Y-93932354D01*
X147801563Y-93674798D02*
X147372303Y-93674798D01*
X147372303Y-93674798D02*
X147329377Y-94104058D01*
X147329377Y-94104058D02*
X147372303Y-94061132D01*
X147372303Y-94061132D02*
X147458155Y-94018206D01*
X147458155Y-94018206D02*
X147672785Y-94018206D01*
X147672785Y-94018206D02*
X147758637Y-94061132D01*
X147758637Y-94061132D02*
X147801563Y-94104058D01*
X147801563Y-94104058D02*
X147844489Y-94189910D01*
X147844489Y-94189910D02*
X147844489Y-94404540D01*
X147844489Y-94404540D02*
X147801563Y-94490392D01*
X147801563Y-94490392D02*
X147758637Y-94533318D01*
X147758637Y-94533318D02*
X147672785Y-94576244D01*
X147672785Y-94576244D02*
X147458155Y-94576244D01*
X147458155Y-94576244D02*
X147372303Y-94533318D01*
X147372303Y-94533318D02*
X147329377Y-94490392D01*
X148402527Y-93674798D02*
X148488379Y-93674798D01*
X148488379Y-93674798D02*
X148574231Y-93717724D01*
X148574231Y-93717724D02*
X148617157Y-93760650D01*
X148617157Y-93760650D02*
X148660083Y-93846502D01*
X148660083Y-93846502D02*
X148703009Y-94018206D01*
X148703009Y-94018206D02*
X148703009Y-94232836D01*
X148703009Y-94232836D02*
X148660083Y-94404540D01*
X148660083Y-94404540D02*
X148617157Y-94490392D01*
X148617157Y-94490392D02*
X148574231Y-94533318D01*
X148574231Y-94533318D02*
X148488379Y-94576244D01*
X148488379Y-94576244D02*
X148402527Y-94576244D01*
X148402527Y-94576244D02*
X148316675Y-94533318D01*
X148316675Y-94533318D02*
X148273749Y-94490392D01*
X148273749Y-94490392D02*
X148230823Y-94404540D01*
X148230823Y-94404540D02*
X148187897Y-94232836D01*
X148187897Y-94232836D02*
X148187897Y-94018206D01*
X148187897Y-94018206D02*
X148230823Y-93846502D01*
X148230823Y-93846502D02*
X148273749Y-93760650D01*
X148273749Y-93760650D02*
X148316675Y-93717724D01*
X148316675Y-93717724D02*
X148402527Y-93674798D01*
%TO.C,U1*%
D11*
X141184100Y-108407600D02*
G75*
G03*
X141184100Y-108407600I-127000J0D01*
G01*
D12*
X146876100Y-112500600D02*
X146876100Y-105148600D01*
X156476100Y-112500600D02*
X146876100Y-112500600D01*
X156476100Y-105148600D02*
X156476100Y-112500600D01*
X146876100Y-105148600D02*
X156476100Y-105148600D01*
X142876100Y-106568600D02*
X142876100Y-127568600D01*
X160476100Y-106568600D02*
X142876100Y-106568600D01*
X160476100Y-127568600D02*
X160476100Y-106568600D01*
X142876100Y-127568600D02*
X160476100Y-127568600D01*
D11*
%TO.C,U2*%
X158661100Y-94843600D02*
X167551100Y-94843600D01*
X158661100Y-106273600D02*
X158661100Y-94843600D01*
X167551100Y-106273600D02*
X158661100Y-106273600D01*
X167551100Y-94843600D02*
X167551100Y-106273600D01*
D13*
%TO.C,PAD39*%
X150914100Y-111480600D02*
X150914100Y-111226600D01*
X151168100Y-111480600D02*
X150914100Y-111480600D01*
X152438100Y-111480600D02*
X152184100Y-111480600D01*
X152438100Y-111226600D02*
X152438100Y-111480600D01*
X152438100Y-109956600D02*
X152184100Y-109956600D01*
X152438100Y-109956600D02*
X152438100Y-110210600D01*
X150914100Y-109956600D02*
X150914100Y-110210600D01*
X150914100Y-109956600D02*
X151168100Y-109956600D01*
%TO.C,PAD40*%
X150914100Y-114020600D02*
X150914100Y-113766600D01*
X151168100Y-114020600D02*
X150914100Y-114020600D01*
X152438100Y-114020600D02*
X152184100Y-114020600D01*
X152438100Y-113766600D02*
X152438100Y-114020600D01*
X152438100Y-112496600D02*
X152184100Y-112496600D01*
X152438100Y-112496600D02*
X152438100Y-112750600D01*
X150914100Y-112496600D02*
X150914100Y-112750600D01*
X150914100Y-112496600D02*
X151168100Y-112496600D01*
%TO.C,PAD41*%
X150914100Y-116560600D02*
X150914100Y-116306600D01*
X151168100Y-116560600D02*
X150914100Y-116560600D01*
X152438100Y-116560600D02*
X152184100Y-116560600D01*
X152438100Y-116306600D02*
X152438100Y-116560600D01*
X152438100Y-115036600D02*
X152184100Y-115036600D01*
X152438100Y-115036600D02*
X152438100Y-115290600D01*
X150914100Y-115036600D02*
X150914100Y-115290600D01*
X150914100Y-115036600D02*
X151168100Y-115036600D01*
%TO.C,R1*%
G36*
X154597100Y-119862600D02*
G01*
X154216100Y-119862600D01*
X154216100Y-119354600D01*
X154597100Y-119354600D01*
X154597100Y-119862600D01*
G37*
G36*
X149136100Y-119862600D02*
G01*
X148755100Y-119862600D01*
X148755100Y-119354600D01*
X149136100Y-119354600D01*
X149136100Y-119862600D01*
G37*
X149136100Y-118846600D02*
X149136100Y-120370600D01*
X149390100Y-118592600D02*
X149771100Y-118592600D01*
X149390100Y-120624600D02*
X149771100Y-120624600D01*
X149898100Y-118719600D02*
X153454100Y-118719600D01*
X149898100Y-118719600D02*
X149771100Y-118592600D01*
X149898100Y-120497600D02*
X153454100Y-120497600D01*
X149898100Y-120497600D02*
X149771100Y-120624600D01*
X153454100Y-118719600D02*
X153581100Y-118592600D01*
X153962100Y-118592600D02*
X153581100Y-118592600D01*
X153454100Y-120497600D02*
X153581100Y-120624600D01*
X153962100Y-120624600D02*
X153581100Y-120624600D01*
X154216100Y-118846600D02*
X154216100Y-120370600D01*
X149136100Y-120370600D02*
G75*
G03*
X149390100Y-120624600I254000J0D01*
G01*
X149390100Y-118592600D02*
G75*
G03*
X149136100Y-118846600I0J-254000D01*
G01*
X154216100Y-118846600D02*
G75*
G03*
X153962100Y-118592600I-254000J0D01*
G01*
X153962100Y-120624600D02*
G75*
G03*
X154216100Y-120370600I0J254000D01*
G01*
%TO.C,R2*%
G36*
X149136100Y-124942600D02*
G01*
X148755100Y-124942600D01*
X148755100Y-124434600D01*
X149136100Y-124434600D01*
X149136100Y-124942600D01*
G37*
G36*
X154597100Y-124942600D02*
G01*
X154216100Y-124942600D01*
X154216100Y-124434600D01*
X154597100Y-124434600D01*
X154597100Y-124942600D01*
G37*
X154216100Y-125450600D02*
X154216100Y-123926600D01*
X153962100Y-125704600D02*
X153581100Y-125704600D01*
X153962100Y-123672600D02*
X153581100Y-123672600D01*
X153454100Y-125577600D02*
X149898100Y-125577600D01*
X153454100Y-125577600D02*
X153581100Y-125704600D01*
X153454100Y-123799600D02*
X149898100Y-123799600D01*
X153454100Y-123799600D02*
X153581100Y-123672600D01*
X149898100Y-125577600D02*
X149771100Y-125704600D01*
X149390100Y-125704600D02*
X149771100Y-125704600D01*
X149898100Y-123799600D02*
X149771100Y-123672600D01*
X149390100Y-123672600D02*
X149771100Y-123672600D01*
X149136100Y-125450600D02*
X149136100Y-123926600D01*
X154216100Y-123926600D02*
G75*
G03*
X153962100Y-123672600I-254000J0D01*
G01*
X153962100Y-125704600D02*
G75*
G03*
X154216100Y-125450600I0J254000D01*
G01*
X149136100Y-125450600D02*
G75*
G03*
X149390100Y-125704600I254000J0D01*
G01*
X149390100Y-123672600D02*
G75*
G03*
X149136100Y-123926600I0J-254000D01*
G01*
%TO.C,R3*%
G36*
X149136100Y-122402600D02*
G01*
X148755100Y-122402600D01*
X148755100Y-121894600D01*
X149136100Y-121894600D01*
X149136100Y-122402600D01*
G37*
G36*
X154597100Y-122402600D02*
G01*
X154216100Y-122402600D01*
X154216100Y-121894600D01*
X154597100Y-121894600D01*
X154597100Y-122402600D01*
G37*
X154216100Y-122910600D02*
X154216100Y-121386600D01*
X153962100Y-123164600D02*
X153581100Y-123164600D01*
X153962100Y-121132600D02*
X153581100Y-121132600D01*
X153454100Y-123037600D02*
X149898100Y-123037600D01*
X153454100Y-123037600D02*
X153581100Y-123164600D01*
X153454100Y-121259600D02*
X149898100Y-121259600D01*
X153454100Y-121259600D02*
X153581100Y-121132600D01*
X149898100Y-123037600D02*
X149771100Y-123164600D01*
X149390100Y-123164600D02*
X149771100Y-123164600D01*
X149898100Y-121259600D02*
X149771100Y-121132600D01*
X149390100Y-121132600D02*
X149771100Y-121132600D01*
X149136100Y-122910600D02*
X149136100Y-121386600D01*
X154216100Y-121386600D02*
G75*
G03*
X153962100Y-121132600I-254000J0D01*
G01*
X153962100Y-123164600D02*
G75*
G03*
X154216100Y-122910600I0J254000D01*
G01*
X149136100Y-122910600D02*
G75*
G03*
X149390100Y-123164600I254000J0D01*
G01*
X149390100Y-121132600D02*
G75*
G03*
X149136100Y-121386600I0J-254000D01*
G01*
%TO.C,R4*%
G36*
X155740100Y-109448600D02*
G01*
X155232100Y-109448600D01*
X155232100Y-109067600D01*
X155740100Y-109067600D01*
X155740100Y-109448600D01*
G37*
G36*
X155740100Y-114909600D02*
G01*
X155232100Y-114909600D01*
X155232100Y-114528600D01*
X155740100Y-114528600D01*
X155740100Y-114909600D01*
G37*
X154724100Y-114528600D02*
X156248100Y-114528600D01*
X154470100Y-114274600D02*
X154470100Y-113893600D01*
X156502100Y-114274600D02*
X156502100Y-113893600D01*
X154597100Y-113766600D02*
X154597100Y-110210600D01*
X154597100Y-113766600D02*
X154470100Y-113893600D01*
X156375100Y-113766600D02*
X156375100Y-110210600D01*
X156375100Y-113766600D02*
X156502100Y-113893600D01*
X154597100Y-110210600D02*
X154470100Y-110083600D01*
X154470100Y-109702600D02*
X154470100Y-110083600D01*
X156375100Y-110210600D02*
X156502100Y-110083600D01*
X156502100Y-109702600D02*
X156502100Y-110083600D01*
X154724100Y-109448600D02*
X156248100Y-109448600D01*
X156248100Y-114528600D02*
G75*
G03*
X156502100Y-114274600I0J254000D01*
G01*
X154470100Y-114274600D02*
G75*
G03*
X154724100Y-114528600I254000J0D01*
G01*
X154724100Y-109448600D02*
G75*
G03*
X154470100Y-109702600I0J-254000D01*
G01*
X156502100Y-109702600D02*
G75*
G03*
X156248100Y-109448600I-254000J0D01*
G01*
D12*
%TO.C,P1*%
X129916100Y-125088600D02*
X130516100Y-125088600D01*
X129916100Y-124288600D02*
X130516100Y-124288600D01*
X129916100Y-124288600D02*
X129916100Y-122338600D01*
X129116100Y-122338600D02*
X129116100Y-121738600D01*
X128216100Y-122338600D02*
X128216100Y-121738600D01*
X128216100Y-127638600D02*
X128216100Y-127038600D01*
X129116100Y-127638600D02*
X129116100Y-127038600D01*
X129116100Y-122338600D02*
X129916100Y-122338600D01*
X128216100Y-122338600D02*
X129116100Y-122338600D01*
X126616100Y-122338600D02*
X128216100Y-122338600D01*
X129916100Y-127038600D02*
X129916100Y-125088600D01*
X129116100Y-127038600D02*
X129916100Y-127038600D01*
X128216100Y-127038600D02*
X129116100Y-127038600D01*
X126616100Y-127038600D02*
X128216100Y-127038600D01*
X126616100Y-127038600D02*
X126616100Y-122338600D01*
X129116100Y-127638600D02*
X130516100Y-127638600D01*
X128216100Y-127638600D02*
X129116100Y-127638600D01*
X126016100Y-127638600D02*
X128216100Y-127638600D01*
X129116100Y-121738600D02*
X130516100Y-121738600D01*
X128216100Y-121738600D02*
X129116100Y-121738600D01*
X126016100Y-121738600D02*
X128216100Y-121738600D01*
X126016100Y-127638600D02*
X126016100Y-121738600D01*
X130516100Y-124288600D02*
X130516100Y-121738600D01*
X130516100Y-125088600D02*
X130516100Y-124288600D01*
X130516100Y-127638600D02*
X130516100Y-125088600D01*
%TO.C,P2*%
X128986100Y-117938600D02*
X128386100Y-117938600D01*
X128986100Y-118738600D02*
X128386100Y-118738600D01*
X128986100Y-118738600D02*
X128986100Y-120688600D01*
X129786100Y-120688600D02*
X129786100Y-121288600D01*
X130686100Y-120688600D02*
X130686100Y-121288600D01*
X130686100Y-115388600D02*
X130686100Y-115988600D01*
X129786100Y-115388600D02*
X129786100Y-115988600D01*
X129786100Y-120688600D02*
X128986100Y-120688600D01*
X130686100Y-120688600D02*
X129786100Y-120688600D01*
X132286100Y-120688600D02*
X130686100Y-120688600D01*
X128986100Y-115988600D02*
X128986100Y-117938600D01*
X129786100Y-115988600D02*
X128986100Y-115988600D01*
X130686100Y-115988600D02*
X129786100Y-115988600D01*
X132286100Y-115988600D02*
X130686100Y-115988600D01*
X132286100Y-115988600D02*
X132286100Y-120688600D01*
X129786100Y-115388600D02*
X128386100Y-115388600D01*
X130686100Y-115388600D02*
X129786100Y-115388600D01*
X132886100Y-115388600D02*
X130686100Y-115388600D01*
X129786100Y-121288600D02*
X128386100Y-121288600D01*
X130686100Y-121288600D02*
X129786100Y-121288600D01*
X132886100Y-121288600D02*
X130686100Y-121288600D01*
X132886100Y-115388600D02*
X132886100Y-121288600D01*
X128386100Y-118738600D02*
X128386100Y-121288600D01*
X128386100Y-117938600D02*
X128386100Y-118738600D01*
X128386100Y-115388600D02*
X128386100Y-117938600D01*
%TO.C,P3*%
X167086100Y-124288600D02*
X166486100Y-124288600D01*
X167086100Y-125088600D02*
X166486100Y-125088600D01*
X167086100Y-125088600D02*
X167086100Y-127038600D01*
X167886100Y-127038600D02*
X167886100Y-127638600D01*
X168786100Y-127038600D02*
X168786100Y-127638600D01*
X168786100Y-121738600D02*
X168786100Y-122338600D01*
X167886100Y-121738600D02*
X167886100Y-122338600D01*
X167886100Y-127038600D02*
X167086100Y-127038600D01*
X168786100Y-127038600D02*
X167886100Y-127038600D01*
X170386100Y-127038600D02*
X168786100Y-127038600D01*
X167086100Y-122338600D02*
X167086100Y-124288600D01*
X167886100Y-122338600D02*
X167086100Y-122338600D01*
X168786100Y-122338600D02*
X167886100Y-122338600D01*
X170386100Y-122338600D02*
X168786100Y-122338600D01*
X170386100Y-122338600D02*
X170386100Y-127038600D01*
X167886100Y-121738600D02*
X166486100Y-121738600D01*
X168786100Y-121738600D02*
X167886100Y-121738600D01*
X170986100Y-121738600D02*
X168786100Y-121738600D01*
X167886100Y-127638600D02*
X166486100Y-127638600D01*
X168786100Y-127638600D02*
X167886100Y-127638600D01*
X170986100Y-127638600D02*
X168786100Y-127638600D01*
X170986100Y-121738600D02*
X170986100Y-127638600D01*
X166486100Y-125088600D02*
X166486100Y-127638600D01*
X166486100Y-124288600D02*
X166486100Y-125088600D01*
X166486100Y-121738600D02*
X166486100Y-124288600D01*
%TO.C,R5*%
G36*
X145326100Y-93192600D02*
G01*
X144945100Y-93192600D01*
X144945100Y-92684600D01*
X145326100Y-92684600D01*
X145326100Y-93192600D01*
G37*
G36*
X150787100Y-93192600D02*
G01*
X150406100Y-93192600D01*
X150406100Y-92684600D01*
X150787100Y-92684600D01*
X150787100Y-93192600D01*
G37*
D13*
X150406100Y-93700600D02*
X150406100Y-92176600D01*
X150152100Y-93954600D02*
X149771100Y-93954600D01*
X150152100Y-91922600D02*
X149771100Y-91922600D01*
X149644100Y-93827600D02*
X146088100Y-93827600D01*
X149644100Y-93827600D02*
X149771100Y-93954600D01*
X149644100Y-92049600D02*
X146088100Y-92049600D01*
X149644100Y-92049600D02*
X149771100Y-91922600D01*
X146088100Y-93827600D02*
X145961100Y-93954600D01*
X145580100Y-93954600D02*
X145961100Y-93954600D01*
X146088100Y-92049600D02*
X145961100Y-91922600D01*
X145580100Y-91922600D02*
X145961100Y-91922600D01*
X145326100Y-93700600D02*
X145326100Y-92176600D01*
X150406100Y-92176600D02*
G75*
G03*
X150152100Y-91922600I-254000J0D01*
G01*
X150152100Y-93954600D02*
G75*
G03*
X150406100Y-93700600I0J254000D01*
G01*
X145326100Y-93700600D02*
G75*
G03*
X145580100Y-93954600I254000J0D01*
G01*
X145580100Y-91922600D02*
G75*
G03*
X145326100Y-92176600I0J-254000D01*
G01*
%TO.C,SP1*%
X146596100Y-99288600D02*
G75*
G03*
X146596100Y-99288600I-1270000J0D01*
G01*
X151422100Y-99288600D02*
G75*
G03*
X151422100Y-99288600I-6096000J0D01*
G01*
%TO.C,Q1*%
G36*
X146342100Y-114782600D02*
G01*
X145834100Y-114782600D01*
X145834100Y-106400600D01*
X146342100Y-106400600D01*
X146342100Y-114782600D01*
G37*
D12*
X149390100Y-106654600D02*
X146342100Y-106654600D01*
X149390100Y-114528600D02*
X146342100Y-114528600D01*
X145834100Y-114782600D02*
X146342100Y-114782600D01*
X145834100Y-106400600D02*
X145834100Y-114782600D01*
X146342100Y-106400600D02*
X145834100Y-106400600D01*
X149390100Y-106654600D02*
X149390100Y-114528600D01*
X146342100Y-106654600D02*
X146342100Y-106400600D01*
X146342100Y-114528600D02*
X146342100Y-106654600D01*
X146342100Y-114782600D02*
X146342100Y-114528600D01*
X149898100Y-114020600D02*
X149390100Y-114528600D01*
X149898100Y-107162600D02*
X149898100Y-114020600D01*
X149390100Y-106654600D02*
X149898100Y-107162600D01*
D13*
%TO.C,PAD29*%
X135928100Y-123926600D02*
X135674100Y-123926600D01*
X135928100Y-124180600D02*
X135928100Y-123926600D01*
X135928100Y-125450600D02*
X135928100Y-125196600D01*
X135674100Y-125450600D02*
X135928100Y-125450600D01*
X134404100Y-125450600D02*
X134658100Y-125450600D01*
X134404100Y-125196600D02*
X134404100Y-125450600D01*
X134404100Y-123926600D02*
X134404100Y-124180600D01*
X134658100Y-123926600D02*
X134404100Y-123926600D01*
%TO.C,PAD30*%
X135928100Y-121386600D02*
X135674100Y-121386600D01*
X135928100Y-121640600D02*
X135928100Y-121386600D01*
X135928100Y-122910600D02*
X135928100Y-122656600D01*
X135674100Y-122910600D02*
X135928100Y-122910600D01*
X134404100Y-122910600D02*
X134658100Y-122910600D01*
X134404100Y-122656600D02*
X134404100Y-122910600D01*
X134404100Y-121386600D02*
X134404100Y-121640600D01*
X134658100Y-121386600D02*
X134404100Y-121386600D01*
%TO.C,PAD31*%
X135928100Y-118846600D02*
X135674100Y-118846600D01*
X135928100Y-119100600D02*
X135928100Y-118846600D01*
X135928100Y-120370600D02*
X135928100Y-120116600D01*
X135674100Y-120370600D02*
X135928100Y-120370600D01*
X134404100Y-120370600D02*
X134658100Y-120370600D01*
X134404100Y-120116600D02*
X134404100Y-120370600D01*
X134404100Y-118846600D02*
X134404100Y-119100600D01*
X134658100Y-118846600D02*
X134404100Y-118846600D01*
%TO.C,PAD32*%
X135928100Y-116306600D02*
X135674100Y-116306600D01*
X135928100Y-116560600D02*
X135928100Y-116306600D01*
X135928100Y-117830600D02*
X135928100Y-117576600D01*
X135674100Y-117830600D02*
X135928100Y-117830600D01*
X134404100Y-117830600D02*
X134658100Y-117830600D01*
X134404100Y-117576600D02*
X134404100Y-117830600D01*
X134404100Y-116306600D02*
X134404100Y-116560600D01*
X134658100Y-116306600D02*
X134404100Y-116306600D01*
%TO.C,PAD33*%
X135928100Y-113766600D02*
X135674100Y-113766600D01*
X135928100Y-114020600D02*
X135928100Y-113766600D01*
X135928100Y-115290600D02*
X135928100Y-115036600D01*
X135674100Y-115290600D02*
X135928100Y-115290600D01*
X134404100Y-115290600D02*
X134658100Y-115290600D01*
X134404100Y-115036600D02*
X134404100Y-115290600D01*
X134404100Y-113766600D02*
X134404100Y-114020600D01*
X134658100Y-113766600D02*
X134404100Y-113766600D01*
%TO.C,PAD34*%
X135928100Y-111226600D02*
X135674100Y-111226600D01*
X135928100Y-111480600D02*
X135928100Y-111226600D01*
X135928100Y-112750600D02*
X135928100Y-112496600D01*
X135674100Y-112750600D02*
X135928100Y-112750600D01*
X134404100Y-112750600D02*
X134658100Y-112750600D01*
X134404100Y-112496600D02*
X134404100Y-112750600D01*
X134404100Y-111226600D02*
X134404100Y-111480600D01*
X134658100Y-111226600D02*
X134404100Y-111226600D01*
%TO.C,PAD35*%
X135928100Y-108686600D02*
X135674100Y-108686600D01*
X135928100Y-108940600D02*
X135928100Y-108686600D01*
X135928100Y-110210600D02*
X135928100Y-109956600D01*
X135674100Y-110210600D02*
X135928100Y-110210600D01*
X134404100Y-110210600D02*
X134658100Y-110210600D01*
X134404100Y-109956600D02*
X134404100Y-110210600D01*
X134404100Y-108686600D02*
X134404100Y-108940600D01*
X134658100Y-108686600D02*
X134404100Y-108686600D01*
%TO.C,PAD36*%
X139738100Y-107416600D02*
X139484100Y-107416600D01*
X139738100Y-107670600D02*
X139738100Y-107416600D01*
X139738100Y-108940600D02*
X139738100Y-108686600D01*
X139484100Y-108940600D02*
X139738100Y-108940600D01*
X138214100Y-108940600D02*
X138468100Y-108940600D01*
X138214100Y-108686600D02*
X138214100Y-108940600D01*
X138214100Y-107416600D02*
X138214100Y-107670600D01*
X138468100Y-107416600D02*
X138214100Y-107416600D01*
%TO.C,PAD42*%
X139738100Y-109956600D02*
X139484100Y-109956600D01*
X139738100Y-110210600D02*
X139738100Y-109956600D01*
X139738100Y-111480600D02*
X139738100Y-111226600D01*
X139484100Y-111480600D02*
X139738100Y-111480600D01*
X138214100Y-111480600D02*
X138468100Y-111480600D01*
X138214100Y-111226600D02*
X138214100Y-111480600D01*
X138214100Y-109956600D02*
X138214100Y-110210600D01*
X138468100Y-109956600D02*
X138214100Y-109956600D01*
%TO.C,PAD43*%
X139738100Y-112496600D02*
X139484100Y-112496600D01*
X139738100Y-112750600D02*
X139738100Y-112496600D01*
X139738100Y-114020600D02*
X139738100Y-113766600D01*
X139484100Y-114020600D02*
X139738100Y-114020600D01*
X138214100Y-114020600D02*
X138468100Y-114020600D01*
X138214100Y-113766600D02*
X138214100Y-114020600D01*
X138214100Y-112496600D02*
X138214100Y-112750600D01*
X138468100Y-112496600D02*
X138214100Y-112496600D01*
%TO.C,PAD44*%
X139738100Y-115036600D02*
X139484100Y-115036600D01*
X139738100Y-115290600D02*
X139738100Y-115036600D01*
X139738100Y-116560600D02*
X139738100Y-116306600D01*
X139484100Y-116560600D02*
X139738100Y-116560600D01*
X138214100Y-116560600D02*
X138468100Y-116560600D01*
X138214100Y-116306600D02*
X138214100Y-116560600D01*
X138214100Y-115036600D02*
X138214100Y-115290600D01*
X138468100Y-115036600D02*
X138214100Y-115036600D01*
%TO.C,PAD45*%
X139738100Y-117576600D02*
X139484100Y-117576600D01*
X139738100Y-117830600D02*
X139738100Y-117576600D01*
X139738100Y-119100600D02*
X139738100Y-118846600D01*
X139484100Y-119100600D02*
X139738100Y-119100600D01*
X138214100Y-119100600D02*
X138468100Y-119100600D01*
X138214100Y-118846600D02*
X138214100Y-119100600D01*
X138214100Y-117576600D02*
X138214100Y-117830600D01*
X138468100Y-117576600D02*
X138214100Y-117576600D01*
%TO.C,PAD46*%
X139738100Y-120116600D02*
X139484100Y-120116600D01*
X139738100Y-120370600D02*
X139738100Y-120116600D01*
X139738100Y-121640600D02*
X139738100Y-121386600D01*
X139484100Y-121640600D02*
X139738100Y-121640600D01*
X138214100Y-121640600D02*
X138468100Y-121640600D01*
X138214100Y-121386600D02*
X138214100Y-121640600D01*
X138214100Y-120116600D02*
X138214100Y-120370600D01*
X138468100Y-120116600D02*
X138214100Y-120116600D01*
%TO.C,PAD47*%
X139738100Y-122656600D02*
X139484100Y-122656600D01*
X139738100Y-122910600D02*
X139738100Y-122656600D01*
X139738100Y-124180600D02*
X139738100Y-123926600D01*
X139484100Y-124180600D02*
X139738100Y-124180600D01*
X138214100Y-124180600D02*
X138468100Y-124180600D01*
X138214100Y-123926600D02*
X138214100Y-124180600D01*
X138214100Y-122656600D02*
X138214100Y-122910600D01*
X138468100Y-122656600D02*
X138214100Y-122656600D01*
%TO.C,PAD48*%
X163868100Y-109956600D02*
X163614100Y-109956600D01*
X163868100Y-110210600D02*
X163868100Y-109956600D01*
X163868100Y-111480600D02*
X163868100Y-111226600D01*
X163614100Y-111480600D02*
X163868100Y-111480600D01*
X162344100Y-111480600D02*
X162598100Y-111480600D01*
X162344100Y-111226600D02*
X162344100Y-111480600D01*
X162344100Y-109956600D02*
X162344100Y-110210600D01*
X162598100Y-109956600D02*
X162344100Y-109956600D01*
%TO.C,PAD49*%
X163868100Y-112496600D02*
X163614100Y-112496600D01*
X163868100Y-112750600D02*
X163868100Y-112496600D01*
X163868100Y-114020600D02*
X163868100Y-113766600D01*
X163614100Y-114020600D02*
X163868100Y-114020600D01*
X162344100Y-114020600D02*
X162598100Y-114020600D01*
X162344100Y-113766600D02*
X162344100Y-114020600D01*
X162344100Y-112496600D02*
X162344100Y-112750600D01*
X162598100Y-112496600D02*
X162344100Y-112496600D01*
%TO.C,PAD50*%
X163868100Y-115036600D02*
X163614100Y-115036600D01*
X163868100Y-115290600D02*
X163868100Y-115036600D01*
X163868100Y-116560600D02*
X163868100Y-116306600D01*
X163614100Y-116560600D02*
X163868100Y-116560600D01*
X162344100Y-116560600D02*
X162598100Y-116560600D01*
X162344100Y-116306600D02*
X162344100Y-116560600D01*
X162344100Y-115036600D02*
X162344100Y-115290600D01*
X162598100Y-115036600D02*
X162344100Y-115036600D01*
%TO.C,PAD51*%
X163868100Y-117576600D02*
X163614100Y-117576600D01*
X163868100Y-117830600D02*
X163868100Y-117576600D01*
X163868100Y-119100600D02*
X163868100Y-118846600D01*
X163614100Y-119100600D02*
X163868100Y-119100600D01*
X162344100Y-119100600D02*
X162598100Y-119100600D01*
X162344100Y-118846600D02*
X162344100Y-119100600D01*
X162344100Y-117576600D02*
X162344100Y-117830600D01*
X162598100Y-117576600D02*
X162344100Y-117576600D01*
%TO.C,PAD52*%
X163868100Y-120116600D02*
X163614100Y-120116600D01*
X163868100Y-120370600D02*
X163868100Y-120116600D01*
X163868100Y-121640600D02*
X163868100Y-121386600D01*
X163614100Y-121640600D02*
X163868100Y-121640600D01*
X162344100Y-121640600D02*
X162598100Y-121640600D01*
X162344100Y-121386600D02*
X162344100Y-121640600D01*
X162344100Y-120116600D02*
X162344100Y-120370600D01*
X162598100Y-120116600D02*
X162344100Y-120116600D01*
%TO.C,PAD53*%
X163868100Y-122656600D02*
X163614100Y-122656600D01*
X163868100Y-122910600D02*
X163868100Y-122656600D01*
X163868100Y-124180600D02*
X163868100Y-123926600D01*
X163614100Y-124180600D02*
X163868100Y-124180600D01*
X162344100Y-124180600D02*
X162598100Y-124180600D01*
X162344100Y-123926600D02*
X162344100Y-124180600D01*
X162344100Y-122656600D02*
X162344100Y-122910600D01*
X162598100Y-122656600D02*
X162344100Y-122656600D01*
%TO.C,PAD54*%
X163868100Y-125196600D02*
X163614100Y-125196600D01*
X163868100Y-125450600D02*
X163868100Y-125196600D01*
X163868100Y-126720600D02*
X163868100Y-126466600D01*
X163614100Y-126720600D02*
X163868100Y-126720600D01*
X162344100Y-126720600D02*
X162598100Y-126720600D01*
X162344100Y-126466600D02*
X162344100Y-126720600D01*
X162344100Y-125196600D02*
X162344100Y-125450600D01*
X162598100Y-125196600D02*
X162344100Y-125196600D01*
D12*
%TO.C,P4*%
X146766100Y-88728600D02*
X146166100Y-88728600D01*
X146766100Y-89528600D02*
X146166100Y-89528600D01*
X146766100Y-89528600D02*
X146766100Y-91478600D01*
X147566100Y-91478600D02*
X147566100Y-92078600D01*
X148466100Y-91478600D02*
X148466100Y-92078600D01*
X148466100Y-86178600D02*
X148466100Y-86778600D01*
X147566100Y-86178600D02*
X147566100Y-86778600D01*
X147566100Y-91478600D02*
X146766100Y-91478600D01*
X148466100Y-91478600D02*
X147566100Y-91478600D01*
X150066100Y-91478600D02*
X148466100Y-91478600D01*
X146766100Y-86778600D02*
X146766100Y-88728600D01*
X147566100Y-86778600D02*
X146766100Y-86778600D01*
X148466100Y-86778600D02*
X147566100Y-86778600D01*
X150066100Y-86778600D02*
X148466100Y-86778600D01*
X150066100Y-86778600D02*
X150066100Y-91478600D01*
X147566100Y-86178600D02*
X146166100Y-86178600D01*
X148466100Y-86178600D02*
X147566100Y-86178600D01*
X150666100Y-86178600D02*
X148466100Y-86178600D01*
X147566100Y-92078600D02*
X146166100Y-92078600D01*
X148466100Y-92078600D02*
X147566100Y-92078600D01*
X150666100Y-92078600D02*
X148466100Y-92078600D01*
X150666100Y-86178600D02*
X150666100Y-92078600D01*
X146166100Y-89528600D02*
X146166100Y-92078600D01*
X146166100Y-88728600D02*
X146166100Y-89528600D01*
X146166100Y-86178600D02*
X146166100Y-88728600D01*
%TD*%
M02*
