M48
; DRILL file {KiCad 7.0.9} date Mon Nov 20 12:38:22 2023
; FORMAT={-:-/ absolute / inch / decimal}
; #@! TF.CreationDate,2023-11-20T12:38:22-05:00
; #@! TF.GenerationSoftware,Kicad,Pcbnew,7.0.9
; #@! TF.FileFunction,Plated,1,16,PTH
FMAT,2
INCH
; #@! TA.AperFunction,Plated,PTH,ComponentDrill
T1C0.0320
; #@! TA.AperFunction,Plated,PTH,ComponentDrill
T2C0.0360
; #@! TA.AperFunction,Plated,PTH,ComponentDrill
T3C0.0394
; #@! TA.AperFunction,Plated,PTH,ComponentDrill
T4C0.0400
; #@! TA.AperFunction,Plated,PTH,ComponentDrill
T5C0.0433
; #@! TA.AperFunction,Plated,PTH,ComponentDrill
T6C0.0500
; #@! TA.AperFunction,Plated,PTH,ComponentDrill
T7C0.1260
%
G90
G05
T1
X5.0715Y-4.8696
X5.0715Y-4.9484
X5.1215Y-4.6196
X5.1215Y-4.6984
X5.6715Y-3.659
X5.8215Y-3.4696
X5.8215Y-3.5484
X5.8215Y-4.709
X5.8215Y-4.809
X5.8215Y-4.909
X5.9715Y-3.659
X5.9715Y-4.359
X5.9715Y-4.459
X5.9715Y-4.559
X6.1215Y-4.259
X6.1215Y-4.559
X6.1215Y-4.709
X6.1215Y-4.809
X6.1215Y-4.909
X6.6215Y-4.8696
X6.6215Y-4.9484
T2
X5.3215Y-4.309
X5.3215Y-4.409
X5.3215Y-4.509
X5.3215Y-4.609
X5.3215Y-4.709
X5.3215Y-4.809
X5.3215Y-4.909
X5.4715Y-4.259
X5.4715Y-4.359
X5.4715Y-4.459
X5.4715Y-4.559
X5.4715Y-4.659
X5.4715Y-4.759
X5.4715Y-4.859
X6.4215Y-4.359
X6.4215Y-4.459
X6.4215Y-4.559
X6.4215Y-4.659
X6.4215Y-4.759
X6.4215Y-4.859
X6.4215Y-4.959
T3
X5.6715Y-4.309
X5.6715Y-4.409
X5.6715Y-4.509
X5.6715Y-4.609
X5.6715Y-4.709
X5.6715Y-4.809
X5.6715Y-4.909
X6.2715Y-4.309
X6.2715Y-4.409
X6.2715Y-4.509
X6.2715Y-4.609
X6.2715Y-4.709
X6.2715Y-4.809
X6.2715Y-4.909
T4
X5.5935Y-3.909
X5.8495Y-3.909
T5
X5.8215Y-4.259
X5.8215Y-4.359
X5.8215Y-4.459
T6
X6.0715Y-3.859
X6.0715Y-3.959
X6.0715Y-4.059
T7
X6.7715Y-3.959
T0
M30
