M48
; DRILL file {KiCad 7.0.9} date Mon Nov 20 12:16:44 2023
; FORMAT={-:-/ absolute / inch / decimal}
; #@! TF.CreationDate,2023-11-20T12:16:44-05:00
; #@! TF.GenerationSoftware,Kicad,Pcbnew,7.0.9
; #@! TF.FileFunction,Plated,1,16,PTH
FMAT,2
INCH
; #@! TA.AperFunction,Plated,PTH,ComponentDrill
T1C0.0320
; #@! TA.AperFunction,Plated,PTH,ComponentDrill
T2C0.0360
; #@! TA.AperFunction,Plated,PTH,ComponentDrill
T3C0.0394
; #@! TA.AperFunction,Plated,PTH,ComponentDrill
T4C0.0400
; #@! TA.AperFunction,Plated,PTH,ComponentDrill
T5C0.0433
; #@! TA.AperFunction,Plated,PTH,ComponentDrill
T6C0.0500
; #@! TA.AperFunction,Plated,PTH,ComponentDrill
T7C0.1260
%
G90
G05
T1
X5.0465Y-3.8696
X5.0465Y-3.9484
X5.0465Y-4.4196
X5.0465Y-4.4984
X5.1465Y-3.259
X5.2465Y-3.259
X5.5465Y-4.809
X5.5465Y-4.909
X5.5465Y-5.009
X5.6465Y-4.809
X5.6465Y-4.909
X5.6465Y-5.009
X5.9465Y-4.809
X5.9465Y-4.909
X5.9465Y-5.009
X6.0465Y-4.709
X6.0465Y-5.009
X6.6965Y-3.8696
X6.6965Y-3.9484
X6.6965Y-4.4196
X6.6965Y-4.4984
X6.6965Y-4.659
X6.6965Y-4.959
T2
X5.1965Y-3.659
X5.1965Y-3.759
X5.1965Y-3.859
X5.1965Y-3.959
X5.1965Y-4.059
X5.1965Y-4.159
X5.1965Y-4.259
X5.3965Y-3.859
X5.3965Y-3.959
X5.3965Y-4.059
X5.3965Y-4.159
X5.3965Y-4.259
X5.3965Y-4.359
X5.3965Y-4.459
X6.3465Y-3.859
X6.3465Y-3.959
X6.3465Y-4.059
X6.3465Y-4.159
X6.3465Y-4.259
X6.3465Y-4.359
X6.3465Y-4.459
X6.4965Y-3.609
X6.4965Y-3.709
X6.4965Y-3.809
X6.4965Y-3.909
X6.4965Y-4.009
X6.4965Y-4.109
X6.4965Y-4.209
T3
X5.5465Y-3.609
X5.5465Y-3.709
X5.5465Y-3.809
X5.5465Y-3.909
X5.5465Y-4.009
X5.5465Y-4.109
X5.5465Y-4.209
X6.1465Y-3.609
X6.1465Y-3.709
X6.1465Y-3.809
X6.1465Y-3.909
X6.1465Y-4.009
X6.1465Y-4.109
X6.1465Y-4.209
T4
X6.2185Y-4.859
X6.4745Y-4.859
T5
X5.3965Y-4.659
X5.3965Y-4.759
X5.3965Y-4.859
T6
X6.1465Y-3.309
X6.2465Y-3.309
X6.3465Y-3.309
T7
X6.2465Y-2.609
T0
M30
