%TF.GenerationSoftware,KiCad,Pcbnew,7.0.9*%
%TF.CreationDate,2023-11-20T12:16:38-05:00*%
%TF.ProjectId,uTerreSoRo_v4.1_bigger_pads_RSC,75546572-7265-4536-9f52-6f5f76342e31,rev?*%
%TF.SameCoordinates,Original*%
%TF.FileFunction,Copper,L1,Top*%
%TF.FilePolarity,Positive*%
%FSLAX46Y46*%
G04 Gerber Fmt 4.6, Leading zero omitted, Abs format (unit mm)*
G04 Created by KiCad (PCBNEW 7.0.9) date 2023-11-20 12:16:38*
%MOMM*%
%LPD*%
G01*
G04 APERTURE LIST*
G04 Aperture macros list*
%AMOutline5P*
0 Free polygon, 5 corners , with rotation*
0 The origin of the aperture is its center*
0 number of corners: always 5*
0 $1 to $10 corner X, Y*
0 $11 Rotation angle, in degrees counterclockwise*
0 create outline with 5 corners*
4,1,5,$1,$2,$3,$4,$5,$6,$7,$8,$9,$10,$1,$2,$11*%
%AMOutline6P*
0 Free polygon, 6 corners , with rotation*
0 The origin of the aperture is its center*
0 number of corners: always 6*
0 $1 to $12 corner X, Y*
0 $13 Rotation angle, in degrees counterclockwise*
0 create outline with 6 corners*
4,1,6,$1,$2,$3,$4,$5,$6,$7,$8,$9,$10,$11,$12,$1,$2,$13*%
%AMOutline7P*
0 Free polygon, 7 corners , with rotation*
0 The origin of the aperture is its center*
0 number of corners: always 7*
0 $1 to $14 corner X, Y*
0 $15 Rotation angle, in degrees counterclockwise*
0 create outline with 7 corners*
4,1,7,$1,$2,$3,$4,$5,$6,$7,$8,$9,$10,$11,$12,$13,$14,$1,$2,$15*%
%AMOutline8P*
0 Free polygon, 8 corners , with rotation*
0 The origin of the aperture is its center*
0 number of corners: always 8*
0 $1 to $16 corner X, Y*
0 $17 Rotation angle, in degrees counterclockwise*
0 create outline with 8 corners*
4,1,8,$1,$2,$3,$4,$5,$6,$7,$8,$9,$10,$11,$12,$13,$14,$15,$16,$1,$2,$17*%
G04 Aperture macros list end*
%TA.AperFunction,ComponentPad*%
%ADD10Outline8P,-0.800100X0.331412X-0.331412X0.800100X0.331412X0.800100X0.800100X0.331412X0.800100X-0.331412X0.331412X-0.800100X-0.331412X-0.800100X-0.800100X-0.331412X0.000000*%
%TD*%
%TA.AperFunction,ComponentPad*%
%ADD11C,7.620000*%
%TD*%
%TA.AperFunction,ComponentPad*%
%ADD12O,2.032000X4.064000*%
%TD*%
%TA.AperFunction,ComponentPad*%
%ADD13Outline8P,-0.660400X0.273547X-0.273547X0.660400X0.273547X0.660400X0.660400X0.273547X0.660400X-0.273547X0.273547X-0.660400X-0.273547X-0.660400X-0.660400X-0.273547X0.000000*%
%TD*%
%TA.AperFunction,ComponentPad*%
%ADD14C,1.700000*%
%TD*%
%TA.AperFunction,ComponentPad*%
%ADD15R,1.700000X1.700000*%
%TD*%
%TA.AperFunction,ComponentPad*%
%ADD16Outline8P,-0.660400X0.273547X-0.273547X0.660400X0.273547X0.660400X0.660400X0.273547X0.660400X-0.273547X0.273547X-0.660400X-0.273547X-0.660400X-0.660400X-0.273547X180.000000*%
%TD*%
%TA.AperFunction,ComponentPad*%
%ADD17Outline8P,-0.660400X0.273547X-0.273547X0.660400X0.273547X0.660400X0.660400X0.273547X0.660400X-0.273547X0.273547X-0.660400X-0.273547X-0.660400X-0.660400X-0.273547X270.000000*%
%TD*%
%TA.AperFunction,ComponentPad*%
%ADD18Outline8P,-0.838200X0.347194X-0.347194X0.838200X0.347194X0.838200X0.838200X0.347194X0.838200X-0.347194X0.347194X-0.838200X-0.347194X-0.838200X-0.838200X-0.347194X90.000000*%
%TD*%
%TA.AperFunction,ComponentPad*%
%ADD19Outline8P,-0.660400X0.273547X-0.273547X0.660400X0.273547X0.660400X0.660400X0.273547X0.660400X-0.273547X0.273547X-0.660400X-0.273547X-0.660400X-0.660400X-0.273547X90.000000*%
%TD*%
%TA.AperFunction,ComponentPad*%
%ADD20Outline8P,-1.270000X0.526051X-0.526051X1.270000X0.526051X1.270000X1.270000X0.526051X1.270000X-0.526051X0.526051X-1.270000X-0.526051X-1.270000X-1.270000X-0.526051X0.000000*%
%TD*%
%TA.AperFunction,ComponentPad*%
%ADD21C,1.930400*%
%TD*%
%TA.AperFunction,ComponentPad*%
%ADD22R,1.930400X1.930400*%
%TD*%
%TA.AperFunction,Conductor*%
%ADD23C,0.700000*%
%TD*%
%TA.AperFunction,Conductor*%
%ADD24C,1.270000*%
%TD*%
%TA.AperFunction,Conductor*%
%ADD25C,1.000000*%
%TD*%
%TA.AperFunction,Conductor*%
%ADD26C,0.500000*%
%TD*%
G04 APERTURE END LIST*
D10*
%TO.P,PAD38,1*%
%TO.N,GND*%
X130721100Y-82778600D03*
%TD*%
%TO.P,PAD37,1*%
%TO.N,VCC*%
X133261100Y-82778600D03*
%TD*%
D11*
%TO.P,U2,HEAT*%
%TO.N,GND*%
X158661100Y-66268600D03*
D12*
%TO.P,U2,3*%
%TO.N,VCC5V*%
X161201100Y-84048600D03*
%TO.P,U2,2*%
%TO.N,GND*%
X158661100Y-84048600D03*
%TO.P,U2,1*%
%TO.N,VCC*%
X156121100Y-84048600D03*
%TD*%
D13*
%TO.P,R3,2*%
%TO.N,REFV*%
X151041100Y-124688600D03*
%TO.P,R3,1*%
%TO.N,SERIES*%
X143421100Y-124688600D03*
%TD*%
D14*
%TO.P,U1,14*%
%TO.N,VCC5V*%
X156121100Y-91668600D03*
%TO.P,U1,13*%
%TO.N,GND*%
X156121100Y-94208600D03*
%TO.P,U1,12*%
%TO.N,N/C*%
X156121100Y-96748600D03*
%TO.P,U1,11*%
%TO.N,IN7*%
X156121100Y-99288600D03*
%TO.P,U1,10*%
%TO.N,IN8*%
X156121100Y-101828600D03*
%TO.P,U1,9*%
%TO.N,IN5*%
X156121100Y-104368600D03*
%TO.P,U1,8*%
%TO.N,IN6*%
X156121100Y-106908600D03*
%TO.P,U1,7*%
%TO.N,N/C*%
X140881100Y-106908600D03*
%TO.P,U1,6*%
%TO.N,SCL*%
X140881100Y-104368600D03*
%TO.P,U1,5*%
%TO.N,SDA*%
X140881100Y-101828600D03*
%TO.P,U1,4*%
%TO.N,IN4*%
X140881100Y-99288600D03*
%TO.P,U1,3*%
%TO.N,IN3*%
X140881100Y-96748600D03*
%TO.P,U1,2*%
%TO.N,IN2*%
X140881100Y-94208600D03*
D15*
%TO.P,U1,1*%
%TO.N,IN1*%
X140881100Y-91668600D03*
%TD*%
D10*
%TO.P,PAD39,1*%
%TO.N,VOUT*%
X140881100Y-122148600D03*
%TD*%
%TO.P,PAD40,1*%
%TO.N,GND*%
X140881100Y-124688600D03*
%TD*%
%TO.P,PAD41,1*%
%TO.N,REFV*%
X140881100Y-127228600D03*
%TD*%
D16*
%TO.P,R1,2*%
%TO.N,GND*%
X143421100Y-122148600D03*
%TO.P,R1,1*%
%TO.N,REFV*%
X151041100Y-122148600D03*
%TD*%
D13*
%TO.P,R2,2*%
%TO.N,VCC*%
X151041100Y-127228600D03*
%TO.P,R2,1*%
%TO.N,SERIES*%
X143421100Y-127228600D03*
%TD*%
D17*
%TO.P,R4,2*%
%TO.N,VCC*%
X153581100Y-127228600D03*
%TO.P,R4,1*%
%TO.N,VOUT*%
X153581100Y-119608600D03*
%TD*%
D18*
%TO.P,P1,1*%
%TO.N,GNDM1*%
X128181100Y-98288600D03*
%TO.P,P1,2*%
%TO.N,VCCM1*%
X128181100Y-100288600D03*
%TD*%
%TO.P,P2,1*%
%TO.N,GNDM2*%
X128181100Y-112258600D03*
%TO.P,P2,2*%
%TO.N,VCCM2*%
X128181100Y-114258600D03*
%TD*%
%TO.P,P3,1*%
%TO.N,GNDM3*%
X170091100Y-112258600D03*
%TO.P,P3,2*%
%TO.N,VCCM3*%
X170091100Y-114258600D03*
%TD*%
%TO.P,P4,1*%
%TO.N,GNDM4*%
X170091100Y-98288600D03*
%TO.P,P4,2*%
%TO.N,VCCM4*%
X170091100Y-100288600D03*
%TD*%
D19*
%TO.P,R5,2*%
%TO.N,VCC*%
X170091100Y-118338600D03*
%TO.P,R5,1*%
%TO.N,BPOS*%
X170091100Y-125958600D03*
%TD*%
D20*
%TO.P,SP1,2*%
%TO.N,BPOS*%
X164452300Y-123418600D03*
%TO.P,SP1,1*%
%TO.N,DRAIN*%
X157949900Y-123418600D03*
%TD*%
D21*
%TO.P,Q1,3*%
%TO.N,VOUT*%
X137071100Y-123418600D03*
%TO.P,Q1,2*%
%TO.N,DRAIN*%
X137071100Y-120878600D03*
D22*
%TO.P,Q1,1*%
%TO.N,GND*%
X137071100Y-118338600D03*
%TD*%
D10*
%TO.P,PAD29,1*%
%TO.N,VCC*%
X131991100Y-108178600D03*
%TD*%
%TO.P,PAD30,1*%
%TO.N,N/C*%
X131991100Y-105638600D03*
%TD*%
%TO.P,PAD31,1*%
%TO.N,VCCM1*%
X131991100Y-103098600D03*
%TD*%
%TO.P,PAD32,1*%
%TO.N,GND*%
X131991100Y-100558600D03*
%TD*%
%TO.P,PAD33,1*%
%TO.N,GNDM1*%
X131991100Y-98018600D03*
%TD*%
%TO.P,PAD34,1*%
%TO.N,IN2*%
X131991100Y-95478600D03*
%TD*%
%TO.P,PAD35,1*%
%TO.N,IN1*%
X131991100Y-92938600D03*
%TD*%
%TO.P,PAD36,1*%
%TO.N,IN3*%
X137071100Y-98018600D03*
%TD*%
%TO.P,PAD42,1*%
%TO.N,IN4*%
X137071100Y-100558600D03*
%TD*%
%TO.P,PAD43,1*%
%TO.N,GNDM2*%
X137071100Y-103098600D03*
%TD*%
%TO.P,PAD44,1*%
%TO.N,GND*%
X137071100Y-105638600D03*
%TD*%
%TO.P,PAD45,1*%
%TO.N,VCCM2*%
X137071100Y-108178600D03*
%TD*%
%TO.P,PAD46,1*%
%TO.N,N/C*%
X137071100Y-110718600D03*
%TD*%
%TO.P,PAD47,1*%
%TO.N,VCC*%
X137071100Y-113258600D03*
%TD*%
%TO.P,PAD48,1*%
%TO.N,VCC*%
X161201100Y-113258600D03*
%TD*%
%TO.P,PAD49,1*%
%TO.N,N/C*%
X161201100Y-110718600D03*
%TD*%
%TO.P,PAD50,1*%
%TO.N,VCCM3*%
X161201100Y-108178600D03*
%TD*%
%TO.P,PAD51,1*%
%TO.N,GND*%
X161201100Y-105638600D03*
%TD*%
%TO.P,PAD52,1*%
%TO.N,GNDM3*%
X161201100Y-103098600D03*
%TD*%
%TO.P,PAD53,1*%
%TO.N,IN6*%
X161201100Y-100558600D03*
%TD*%
%TO.P,PAD54,1*%
%TO.N,IN5*%
X161201100Y-98018600D03*
%TD*%
%TO.P,PAD55,1*%
%TO.N,IN7*%
X165011100Y-91668600D03*
%TD*%
%TO.P,PAD56,1*%
%TO.N,IN8*%
X165011100Y-94208600D03*
%TD*%
%TO.P,PAD57,1*%
%TO.N,GNDM4*%
X165011100Y-96748600D03*
%TD*%
%TO.P,PAD58,1*%
%TO.N,GND*%
X165011100Y-99288600D03*
%TD*%
%TO.P,PAD59,1*%
%TO.N,VCCM4*%
X165011100Y-101828600D03*
%TD*%
%TO.P,PAD60,1*%
%TO.N,N/C*%
X165011100Y-104368600D03*
%TD*%
%TO.P,PAD61,1*%
%TO.N,VCC*%
X165011100Y-106908600D03*
%TD*%
D23*
%TO.N,VCC5V*%
X161201100Y-84048600D02*
X161201100Y-85318600D01*
%TO.N,GND*%
X130721100Y-82778600D02*
X133261100Y-85318600D01*
%TO.N,VCC5V*%
X158661100Y-87858600D02*
X161201100Y-85318600D01*
D24*
%TO.N,GND*%
X158661100Y-80695800D02*
X165100000Y-80695800D01*
D25*
X165100000Y-88900000D02*
X165100000Y-80695800D01*
X161429700Y-88900000D02*
X165100000Y-88900000D01*
X161353500Y-88976200D02*
X161429700Y-88900000D01*
D26*
X135801100Y-96748600D02*
X135801100Y-93980000D01*
D24*
X135801100Y-85318600D02*
X135801100Y-93980000D01*
D26*
X134531100Y-98018600D02*
X135801100Y-96748600D01*
X163423600Y-105638600D02*
X162560000Y-105638600D01*
D24*
X161201100Y-105638600D02*
X162560000Y-105638600D01*
D26*
X163423600Y-97701100D02*
X161131250Y-95408750D01*
D24*
X161131250Y-95408750D02*
X159931100Y-94208600D01*
D26*
X163423600Y-99288600D02*
X165011100Y-99288600D01*
X163423600Y-99288600D02*
X163423600Y-97701100D01*
X163423600Y-101600000D02*
X163423600Y-105638600D01*
X163423600Y-99288600D02*
X163423600Y-101600000D01*
X163423600Y-105638600D02*
X163423600Y-97701100D01*
D24*
X133261100Y-85318600D02*
X135801100Y-85318600D01*
X129451100Y-82778600D02*
X130721100Y-82778600D01*
X130721100Y-82778600D02*
X130721100Y-80695800D01*
X129451100Y-95478600D02*
X129451100Y-82778600D01*
%TO.N,VCC*%
X133261100Y-82778600D02*
X154851100Y-82778600D01*
%TO.N,GND*%
X134620000Y-127228600D02*
X134620000Y-118338600D01*
X138341100Y-127228600D02*
X134620000Y-127228600D01*
X140881100Y-124688600D02*
X138341100Y-127228600D01*
X134620000Y-118338600D02*
X131991100Y-118338600D01*
%TO.N,DRAIN*%
X138341100Y-120878600D02*
X137071100Y-120878600D01*
X142151100Y-117068600D02*
X138341100Y-120878600D01*
X157391100Y-117068600D02*
X142151100Y-117068600D01*
X157391100Y-122859800D02*
X157391100Y-117068600D01*
X157949900Y-123418600D02*
X157391100Y-122859800D01*
%TO.N,BPOS*%
X165011100Y-125958600D02*
X170091100Y-125958600D01*
X165011100Y-123977400D02*
X165011100Y-125958600D01*
X164452300Y-123418600D02*
X165011100Y-123977400D01*
%TO.N,SERIES*%
X143421100Y-124688600D02*
X143421100Y-127228600D01*
%TO.N,REFV*%
X147231100Y-122148600D02*
X151041100Y-122148600D01*
X147231100Y-129311400D02*
X147231100Y-122148600D01*
X140881100Y-129311400D02*
X147231100Y-129311400D01*
X140881100Y-127228600D02*
X140881100Y-129311400D01*
X151041100Y-122148600D02*
X151041100Y-124688600D01*
%TO.N,VOUT*%
X139611100Y-123418600D02*
X140881100Y-122148600D01*
X137071100Y-123418600D02*
X139611100Y-123418600D01*
X143421100Y-119608600D02*
X140881100Y-122148600D01*
X153581100Y-119608600D02*
X143421100Y-119608600D01*
%TO.N,VCC5V*%
X157391100Y-87858600D02*
X158661100Y-87858600D01*
X156121100Y-89128600D02*
X157391100Y-87858600D01*
X156121100Y-91668600D02*
X156121100Y-89128600D01*
%TO.N,IN5*%
X158661100Y-98018600D02*
X161201100Y-98018600D01*
X158661100Y-101828600D02*
X158661100Y-98018600D01*
X156121100Y-104368600D02*
X158661100Y-101828600D01*
%TO.N,VCC*%
X165011100Y-106908600D02*
X165011100Y-115341400D01*
X161201100Y-113258600D02*
X161201100Y-115341400D01*
X137071100Y-113258600D02*
X137071100Y-115341400D01*
X131991100Y-108178600D02*
X131991100Y-115341400D01*
X161201100Y-127228600D02*
X153581100Y-127228600D01*
X151041100Y-129311400D02*
X151041100Y-127228600D01*
X161201100Y-129311400D02*
X151041100Y-129311400D01*
X161201100Y-127228600D02*
X161201100Y-129311400D01*
X161201100Y-115341400D02*
X161201100Y-127228600D01*
X154851100Y-82778600D02*
X156121100Y-84048600D01*
X166738300Y-118338600D02*
X163741100Y-115341400D01*
X170091100Y-118338600D02*
X166738300Y-118338600D01*
X152311100Y-115341400D02*
X152311100Y-87858600D01*
X165011100Y-115341400D02*
X163741100Y-115341400D01*
X161201100Y-115341400D02*
X163741100Y-115341400D01*
X152311100Y-115341400D02*
X161201100Y-115341400D01*
X137071100Y-115341400D02*
X131991100Y-115341400D01*
X152311100Y-115341400D02*
X137071100Y-115341400D01*
X152311100Y-87858600D02*
X156121100Y-84048600D01*
%TO.N,GND*%
X134531100Y-105638600D02*
X134531100Y-100558600D01*
X137071100Y-105638600D02*
X134531100Y-105638600D01*
X131991100Y-100558600D02*
X134531100Y-100558600D01*
X125641100Y-95478600D02*
X129451100Y-95478600D01*
X125641100Y-118338600D02*
X125641100Y-95478600D01*
X143421100Y-122148600D02*
X140881100Y-124688600D01*
X131991100Y-118338600D02*
X125641100Y-118338600D01*
X137071100Y-118338600D02*
X131991100Y-118338600D01*
X159931100Y-90398600D02*
X161353500Y-88976200D01*
X159931100Y-94208600D02*
X159931100Y-90398600D01*
X156121100Y-94208600D02*
X159931100Y-90398600D01*
X158661100Y-80695800D02*
X158661100Y-84048600D01*
X130721100Y-80695800D02*
X158661100Y-80695800D01*
X134531100Y-100558600D02*
X134531100Y-98018600D01*
%TD*%
M02*
